<?xml version="1.0" encoding="utf-8" standalone="no"?>
<!DOCTYPE svg PUBLIC "-//W3C//DTD SVG 1.1//EN"
  "http://www.w3.org/Graphics/SVG/1.1/DTD/svg11.dtd">
<svg xmlns:xlink="http://www.w3.org/1999/xlink" width="784.8pt" height="532.54125pt" viewBox="0 0 784.8 532.54125" xmlns="http://www.w3.org/2000/svg" version="1.1">
 <metadata>
  <rdf:RDF xmlns:dc="http://purl.org/dc/elements/1.1/" xmlns:cc="http://creativecommons.org/ns#" xmlns:rdf="http://www.w3.org/1999/02/22-rdf-syntax-ns#">
   <cc:Work>
    <dc:type rdf:resource="http://purl.org/dc/dcmitype/StillImage"/>
    <dc:date>2026-07-12T11:34:37.390014</dc:date>
    <dc:format>image/svg+xml</dc:format>
    <dc:creator>
     <cc:Agent>
      <dc:title>Matplotlib v3.9.4, https://matplotlib.org/</dc:title>
     </cc:Agent>
    </dc:creator>
   </cc:Work>
  </rdf:RDF>
 </metadata>
 <defs>
  <style type="text/css">*{stroke-linejoin: round; stroke-linecap: butt}</style>
 </defs>
 <g id="figure_1">
  <g id="patch_1">
   <path d="M 0 532.54125 
L 784.8 532.54125 
L 784.8 0 
L 0 0 
z
" style="fill: #ffffff"/>
  </g>
  <g id="axes_1">
   <g id="patch_2">
    <path d="M 222.912 86.4949 
L 561.888 86.4949 
Q 570.292364 86.4949 570.292364 83.49595 
L 570.292364 42.5103 
Q 570.292364 39.51135 561.888 39.51135 
L 222.912 39.51135 
Q 214.507636 39.51135 214.507636 42.5103 
L 214.507636 83.49595 
Q 214.507636 86.4949 222.912 86.4949 
z
" clip-path="url(#p0ff50be8fc)" style="fill: #0b1f3a; stroke: #0b1f3a; stroke-width: 1.2; stroke-linejoin: miter"/>
   </g>
   <g id="patch_3">
    <path d="M 166.882909 176.4634 
L 617.917091 176.4634 
Q 626.321455 176.4634 626.321455 173.46445 
L 626.321455 117.48405 
Q 626.321455 114.4851 617.917091 114.4851 
L 166.882909 114.4851 
Q 158.478545 114.4851 158.478545 117.48405 
L 158.478545 173.46445 
Q 158.478545 176.4634 166.882909 176.4634 
z
" clip-path="url(#p0ff50be8fc)" style="fill: #1f4e79; stroke: #0b1f3a; stroke-width: 1.2; stroke-linejoin: miter"/>
   </g>
   <g id="patch_4">
    <path d="M 68.832 286.4249 
L 323.764364 286.4249 
Q 332.168727 286.4249 332.168727 283.42595 
L 332.168727 217.44905 
Q 332.168727 214.4501 323.764364 214.4501 
L 68.832 214.4501 
Q 60.427636 214.4501 60.427636 217.44905 
L 60.427636 283.42595 
Q 60.427636 286.4249 68.832 286.4249 
z
" clip-path="url(#p0ff50be8fc)" style="fill: #0d7377; stroke: #0b1f3a; stroke-width: 1.2; stroke-linejoin: miter"/>
   </g>
   <g id="patch_5">
    <path d="M 461.035636 286.4249 
L 715.968 286.4249 
Q 724.372364 286.4249 724.372364 283.42595 
L 724.372364 217.44905 
Q 724.372364 214.4501 715.968 214.4501 
L 461.035636 214.4501 
Q 452.631273 214.4501 452.631273 217.44905 
L 452.631273 283.42595 
Q 452.631273 286.4249 461.035636 286.4249 
z
" clip-path="url(#p0ff50be8fc)" style="fill: #2b6cb0; stroke: #0b1f3a; stroke-width: 1.2; stroke-linejoin: miter"/>
   </g>
   <g id="patch_6">
    <path d="M 208.904727 386.3899 
L 575.895273 386.3899 
Q 584.299636 386.3899 584.299636 383.39095 
L 584.299636 327.41055 
Q 584.299636 324.4116 575.895273 324.4116 
L 208.904727 324.4116 
Q 200.500364 324.4116 200.500364 327.41055 
L 200.500364 383.39095 
Q 200.500364 386.3899 208.904727 386.3899 
z
" clip-path="url(#p0ff50be8fc)" style="fill: #c4a35a; stroke: #0b1f3a; stroke-width: 1.2; stroke-linejoin: miter"/>
   </g>
   <g id="patch_7">
    <path d="M 166.882909 476.3584 
L 617.917091 476.3584 
Q 626.321455 476.3584 626.321455 473.35945 
L 626.321455 417.37905 
Q 626.321455 414.3801 617.917091 414.3801 
L 166.882909 414.3801 
Q 158.478545 414.3801 158.478545 417.37905 
L 158.478545 473.35945 
Q 158.478545 476.3584 166.882909 476.3584 
z
" clip-path="url(#p0ff50be8fc)" style="fill: #553c9a; stroke: #0b1f3a; stroke-width: 1.2; stroke-linejoin: miter"/>
   </g>
   <g id="text_1">
    <!-- Order Entry  ·  Single-threaded per symbol -->
    <g style="fill: #ffffff" transform="translate(298.475781 65.58125) scale(0.1 -0.1)">
     <defs>
      <path id="Helvetica-4f" d="M 2469 4716 
Q 3684 4716 4269 3934 
Q 4725 3325 4725 2375 
Q 4725 1347 4203 666 
Q 3591 -134 2456 -134 
Q 1397 -134 791 566 
Q 250 1241 250 2272 
Q 250 3203 713 3866 
Q 1306 4716 2469 4716 
z
M 2531 422 
Q 3353 422 3720 1011 
Q 4088 1600 4088 2366 
Q 4088 3175 3664 3669 
Q 3241 4163 2506 4163 
Q 1794 4163 1344 3673 
Q 894 3184 894 2231 
Q 894 1469 1280 945 
Q 1666 422 2531 422 
z
M 2488 4716 
L 2488 4716 
z
" transform="scale(0.015625)"/>
      <path id="Helvetica-72" d="M 428 3347 
L 963 3347 
L 963 2769 
Q 1028 2938 1284 3180 
Q 1541 3422 1875 3422 
Q 1891 3422 1928 3419 
Q 1966 3416 2056 3406 
L 2056 2813 
Q 2006 2822 1964 2825 
Q 1922 2828 1872 2828 
Q 1447 2828 1219 2554 
Q 991 2281 991 1925 
L 991 0 
L 428 0 
L 428 3347 
z
" transform="scale(0.015625)"/>
      <path id="Helvetica-64" d="M 769 1634 
Q 769 1097 997 734 
Q 1225 372 1728 372 
Q 2119 372 2370 708 
Q 2622 1044 2622 1672 
Q 2622 2306 2362 2611 
Q 2103 2916 1722 2916 
Q 1297 2916 1033 2591 
Q 769 2266 769 1634 
z
M 1616 3406 
Q 2000 3406 2259 3244 
Q 2409 3150 2600 2916 
L 2600 4606 
L 3141 4606 
L 3141 0 
L 2634 0 
L 2634 466 
Q 2438 156 2169 18 
Q 1900 -119 1553 -119 
Q 994 -119 584 351 
Q 175 822 175 1603 
Q 175 2334 548 2870 
Q 922 3406 1616 3406 
z
" transform="scale(0.015625)"/>
      <path id="Helvetica-65" d="M 1806 3422 
Q 2163 3422 2497 3255 
Q 2831 3088 3006 2822 
Q 3175 2569 3231 2231 
Q 3281 2000 3281 1494 
L 828 1494 
Q 844 984 1069 676 
Q 1294 369 1766 369 
Q 2206 369 2469 659 
Q 2619 828 2681 1050 
L 3234 1050 
Q 3213 866 3089 639 
Q 2966 413 2813 269 
Q 2556 19 2178 -69 
Q 1975 -119 1719 -119 
Q 1094 -119 659 336 
Q 225 791 225 1609 
Q 225 2416 662 2919 
Q 1100 3422 1806 3422 
z
M 2703 1941 
Q 2669 2306 2544 2525 
Q 2313 2931 1772 2931 
Q 1384 2931 1121 2651 
Q 859 2372 844 1941 
L 2703 1941 
z
M 1753 3428 
L 1753 3428 
z
" transform="scale(0.015625)"/>
      <path id="Helvetica-20" transform="scale(0.015625)"/>
      <path id="Helvetica-45" d="M 547 4591 
L 3894 4591 
L 3894 4028 
L 1153 4028 
L 1153 2634 
L 3688 2634 
L 3688 2103 
L 1153 2103 
L 1153 547 
L 3941 547 
L 3941 0 
L 547 0 
L 547 4591 
z
M 2244 4591 
L 2244 4591 
z
" transform="scale(0.015625)"/>
      <path id="Helvetica-6e" d="M 413 3347 
L 947 3347 
L 947 2872 
Q 1184 3166 1450 3294 
Q 1716 3422 2041 3422 
Q 2753 3422 3003 2925 
Q 3141 2653 3141 2147 
L 3141 0 
L 2569 0 
L 2569 2109 
Q 2569 2416 2478 2603 
Q 2328 2916 1934 2916 
Q 1734 2916 1606 2875 
Q 1375 2806 1200 2600 
Q 1059 2434 1017 2257 
Q 975 2081 975 1753 
L 975 0 
L 413 0 
L 413 3347 
z
M 1734 3428 
L 1734 3428 
z
" transform="scale(0.015625)"/>
      <path id="Helvetica-74" d="M 525 4281 
L 1094 4281 
L 1094 3347 
L 1628 3347 
L 1628 2888 
L 1094 2888 
L 1094 703 
Q 1094 528 1213 469 
Q 1278 434 1431 434 
Q 1472 434 1519 436 
Q 1566 438 1628 444 
L 1628 0 
Q 1531 -28 1426 -40 
Q 1322 -53 1200 -53 
Q 806 -53 665 148 
Q 525 350 525 672 
L 525 2888 
L 72 2888 
L 72 3347 
L 525 3347 
L 525 4281 
z
" transform="scale(0.015625)"/>
      <path id="Helvetica-79" d="M 2503 3347 
L 3125 3347 
Q 3006 3025 2597 1878 
Q 2291 1016 2084 472 
Q 1597 -809 1397 -1090 
Q 1197 -1372 709 -1372 
Q 591 -1372 527 -1362 
Q 463 -1353 369 -1328 
L 369 -816 
Q 516 -856 581 -865 
Q 647 -875 697 -875 
Q 853 -875 926 -823 
Q 1000 -772 1050 -697 
Q 1066 -672 1162 -440 
Q 1259 -209 1303 -97 
L 66 3347 
L 703 3347 
L 1600 622 
L 2503 3347 
z
M 1597 3428 
L 1597 3428 
z
" transform="scale(0.015625)"/>
      <path id="Helvetica-b7" d="M 872 2591 
Q 1041 2591 1156 2473 
Q 1272 2356 1272 2191 
Q 1272 2025 1155 1908 
Q 1038 1791 872 1791 
Q 706 1791 589 1908 
Q 472 2025 472 2191 
Q 472 2356 587 2473 
Q 703 2591 872 2591 
z
" transform="scale(0.015625)"/>
      <path id="Helvetica-53" d="M 894 1481 
Q 916 1091 1078 847 
Q 1388 391 2169 391 
Q 2519 391 2806 491 
Q 3363 684 3363 1184 
Q 3363 1559 3128 1719 
Q 2891 1875 2384 1991 
L 1763 2131 
Q 1153 2269 900 2434 
Q 463 2722 463 3294 
Q 463 3913 891 4309 
Q 1319 4706 2103 4706 
Q 2825 4706 3329 4357 
Q 3834 4009 3834 3244 
L 3250 3244 
Q 3203 3613 3050 3809 
Q 2766 4169 2084 4169 
Q 1534 4169 1293 3937 
Q 1053 3706 1053 3400 
Q 1053 3063 1334 2906 
Q 1519 2806 2169 2656 
L 2813 2509 
Q 3278 2403 3531 2219 
Q 3969 1897 3969 1284 
Q 3969 522 3414 194 
Q 2859 -134 2125 -134 
Q 1269 -134 784 303 
Q 300 738 309 1481 
L 894 1481 
z
M 2150 4716 
L 2150 4716 
z
" transform="scale(0.015625)"/>
      <path id="Helvetica-69" d="M 413 3331 
L 984 3331 
L 984 0 
L 413 0 
L 413 3331 
z
M 413 4591 
L 984 4591 
L 984 3953 
L 413 3953 
L 413 4591 
z
" transform="scale(0.015625)"/>
      <path id="Helvetica-67" d="M 1594 3406 
Q 1988 3406 2281 3213 
Q 2441 3103 2606 2894 
L 2606 3316 
L 3125 3316 
L 3125 272 
Q 3125 -366 2938 -734 
Q 2588 -1416 1616 -1416 
Q 1075 -1416 706 -1173 
Q 338 -931 294 -416 
L 866 -416 
Q 906 -641 1028 -763 
Q 1219 -950 1628 -950 
Q 2275 -950 2475 -494 
Q 2594 -225 2584 466 
Q 2416 209 2178 84 
Q 1941 -41 1550 -41 
Q 1006 -41 598 345 
Q 191 731 191 1622 
Q 191 2463 602 2934 
Q 1013 3406 1594 3406 
z
M 2606 1688 
Q 2606 2309 2350 2609 
Q 2094 2909 1697 2909 
Q 1103 2909 884 2353 
Q 769 2056 769 1575 
Q 769 1009 998 714 
Q 1228 419 1616 419 
Q 2222 419 2469 966 
Q 2606 1275 2606 1688 
z
M 1659 3428 
L 1659 3428 
z
" transform="scale(0.015625)"/>
      <path id="Helvetica-6c" d="M 428 4591 
L 991 4591 
L 991 0 
L 428 0 
L 428 4591 
z
" transform="scale(0.015625)"/>
      <path id="Helvetica-2d" d="M 266 2072 
L 1834 2072 
L 1834 1494 
L 266 1494 
L 266 2072 
z
" transform="scale(0.015625)"/>
      <path id="Helvetica-68" d="M 413 4606 
L 975 4606 
L 975 2894 
Q 1175 3147 1334 3250 
Q 1606 3428 2013 3428 
Q 2741 3428 3000 2919 
Q 3141 2641 3141 2147 
L 3141 0 
L 2563 0 
L 2563 2109 
Q 2563 2478 2469 2650 
Q 2316 2925 1894 2925 
Q 1544 2925 1259 2684 
Q 975 2444 975 1775 
L 975 0 
L 413 0 
L 413 4606 
z
" transform="scale(0.015625)"/>
      <path id="Helvetica-61" d="M 844 891 
Q 844 647 1022 506 
Q 1200 366 1444 366 
Q 1741 366 2019 503 
Q 2488 731 2488 1250 
L 2488 1703 
Q 2384 1638 2221 1594 
Q 2059 1550 1903 1531 
L 1563 1488 
Q 1256 1447 1103 1359 
Q 844 1213 844 891 
z
M 2206 2028 
Q 2400 2053 2466 2191 
Q 2503 2266 2503 2406 
Q 2503 2694 2298 2823 
Q 2094 2953 1713 2953 
Q 1272 2953 1088 2716 
Q 984 2584 953 2325 
L 428 2325 
Q 444 2944 830 3186 
Q 1216 3428 1725 3428 
Q 2316 3428 2684 3203 
Q 3050 2978 3050 2503 
L 3050 575 
Q 3050 488 3086 434 
Q 3122 381 3238 381 
Q 3275 381 3322 386 
Q 3369 391 3422 400 
L 3422 -16 
Q 3291 -53 3222 -62 
Q 3153 -72 3034 -72 
Q 2744 -72 2613 134 
Q 2544 244 2516 444 
Q 2344 219 2022 53 
Q 1700 -113 1313 -113 
Q 847 -113 551 170 
Q 256 453 256 878 
Q 256 1344 547 1600 
Q 838 1856 1309 1916 
L 2206 2028 
z
M 1741 3428 
L 1741 3428 
z
" transform="scale(0.015625)"/>
      <path id="Helvetica-70" d="M 1825 378 
Q 2219 378 2480 708 
Q 2741 1038 2741 1694 
Q 2741 2094 2625 2381 
Q 2406 2934 1825 2934 
Q 1241 2934 1025 2350 
Q 909 2038 909 1556 
Q 909 1169 1025 897 
Q 1244 378 1825 378 
z
M 369 3331 
L 916 3331 
L 916 2888 
Q 1084 3116 1284 3241 
Q 1569 3428 1953 3428 
Q 2522 3428 2919 2992 
Q 3316 2556 3316 1747 
Q 3316 653 2744 184 
Q 2381 -113 1900 -113 
Q 1522 -113 1266 53 
Q 1116 147 931 375 
L 931 -1334 
L 369 -1334 
L 369 3331 
z
" transform="scale(0.015625)"/>
      <path id="Helvetica-73" d="M 747 1050 
Q 772 769 888 619 
Q 1100 347 1625 347 
Q 1938 347 2175 483 
Q 2413 619 2413 903 
Q 2413 1119 2222 1231 
Q 2100 1300 1741 1391 
L 1294 1503 
Q 866 1609 663 1741 
Q 300 1969 300 2372 
Q 300 2847 642 3140 
Q 984 3434 1563 3434 
Q 2319 3434 2653 2991 
Q 2863 2709 2856 2384 
L 2325 2384 
Q 2309 2575 2191 2731 
Q 1997 2953 1519 2953 
Q 1200 2953 1036 2831 
Q 872 2709 872 2509 
Q 872 2291 1088 2159 
Q 1213 2081 1456 2022 
L 1828 1931 
Q 2434 1784 2641 1647 
Q 2969 1431 2969 969 
Q 2969 522 2630 197 
Q 2291 -128 1597 -128 
Q 850 -128 539 211 
Q 228 550 206 1050 
L 747 1050 
z
M 1578 3428 
L 1578 3428 
z
" transform="scale(0.015625)"/>
      <path id="Helvetica-6d" d="M 413 3347 
L 969 3347 
L 969 2872 
Q 1169 3119 1331 3231 
Q 1609 3422 1963 3422 
Q 2363 3422 2606 3225 
Q 2744 3113 2856 2894 
Q 3044 3163 3297 3292 
Q 3550 3422 3866 3422 
Q 4541 3422 4784 2934 
Q 4916 2672 4916 2228 
L 4916 0 
L 4331 0 
L 4331 2325 
Q 4331 2659 4164 2784 
Q 3997 2909 3756 2909 
Q 3425 2909 3186 2687 
Q 2947 2466 2947 1947 
L 2947 0 
L 2375 0 
L 2375 2184 
Q 2375 2525 2294 2681 
Q 2166 2916 1816 2916 
Q 1497 2916 1236 2669 
Q 975 2422 975 1775 
L 975 0 
L 413 0 
L 413 3347 
z
" transform="scale(0.015625)"/>
      <path id="Helvetica-62" d="M 369 4606 
L 916 4606 
L 916 2941 
Q 1100 3181 1356 3307 
Q 1613 3434 1913 3434 
Q 2538 3434 2927 3004 
Q 3316 2575 3316 1738 
Q 3316 944 2931 419 
Q 2547 -106 1866 -106 
Q 1484 -106 1222 78 
Q 1066 188 888 428 
L 888 0 
L 369 0 
L 369 4606 
z
M 1831 391 
Q 2288 391 2514 753 
Q 2741 1116 2741 1709 
Q 2741 2238 2514 2584 
Q 2288 2931 1847 2931 
Q 1463 2931 1173 2647 
Q 884 2363 884 1709 
Q 884 1238 1003 944 
Q 1225 391 1831 391 
z
" transform="scale(0.015625)"/>
      <path id="Helvetica-6f" d="M 1741 363 
Q 2300 363 2508 786 
Q 2716 1209 2716 1728 
Q 2716 2197 2566 2491 
Q 2328 2953 1747 2953 
Q 1231 2953 997 2559 
Q 763 2166 763 1609 
Q 763 1075 997 719 
Q 1231 363 1741 363 
z
M 1763 3444 
Q 2409 3444 2856 3012 
Q 3303 2581 3303 1744 
Q 3303 934 2909 406 
Q 2516 -122 1688 -122 
Q 997 -122 590 345 
Q 184 813 184 1600 
Q 184 2444 612 2944 
Q 1041 3444 1763 3444 
z
M 1744 3428 
L 1744 3428 
z
" transform="scale(0.015625)"/>
     </defs>
     <use xlink:href="#Helvetica-4f"/>
     <use xlink:href="#Helvetica-72" x="77.783203"/>
     <use xlink:href="#Helvetica-64" x="111.083984"/>
     <use xlink:href="#Helvetica-65" x="166.699219"/>
     <use xlink:href="#Helvetica-72" x="222.314453"/>
     <use xlink:href="#Helvetica-20" x="255.615234"/>
     <use xlink:href="#Helvetica-45" x="283.398438"/>
     <use xlink:href="#Helvetica-6e" x="350.097656"/>
     <use xlink:href="#Helvetica-74" x="405.712891"/>
     <use xlink:href="#Helvetica-72" x="433.496094"/>
     <use xlink:href="#Helvetica-79" x="466.796875"/>
     <use xlink:href="#Helvetica-20" x="516.796875"/>
     <use xlink:href="#Helvetica-20" x="544.580078"/>
     <use xlink:href="#Helvetica-b7" x="572.363281"/>
     <use xlink:href="#Helvetica-20" x="600.146484"/>
     <use xlink:href="#Helvetica-20" x="627.929688"/>
     <use xlink:href="#Helvetica-53" x="655.712891"/>
     <use xlink:href="#Helvetica-69" x="722.412109"/>
     <use xlink:href="#Helvetica-6e" x="744.628906"/>
     <use xlink:href="#Helvetica-67" x="800.244141"/>
     <use xlink:href="#Helvetica-6c" x="855.859375"/>
     <use xlink:href="#Helvetica-65" x="878.076172"/>
     <use xlink:href="#Helvetica-2d" x="933.691406"/>
     <use xlink:href="#Helvetica-74" x="966.992188"/>
     <use xlink:href="#Helvetica-68" x="994.775391"/>
     <use xlink:href="#Helvetica-72" x="1050.390625"/>
     <use xlink:href="#Helvetica-65" x="1083.691406"/>
     <use xlink:href="#Helvetica-61" x="1139.306641"/>
     <use xlink:href="#Helvetica-64" x="1194.921875"/>
     <use xlink:href="#Helvetica-65" x="1250.537109"/>
     <use xlink:href="#Helvetica-64" x="1306.152344"/>
     <use xlink:href="#Helvetica-20" x="1361.767578"/>
     <use xlink:href="#Helvetica-70" x="1389.550781"/>
     <use xlink:href="#Helvetica-65" x="1445.166016"/>
     <use xlink:href="#Helvetica-72" x="1500.78125"/>
     <use xlink:href="#Helvetica-20" x="1534.082031"/>
     <use xlink:href="#Helvetica-73" x="1561.865234"/>
     <use xlink:href="#Helvetica-79" x="1611.865234"/>
     <use xlink:href="#Helvetica-6d" x="1661.865234"/>
     <use xlink:href="#Helvetica-62" x="1745.166016"/>
     <use xlink:href="#Helvetica-6f" x="1800.78125"/>
     <use xlink:href="#Helvetica-6c" x="1856.396484"/>
    </g>
   </g>
   <g id="patch_8">
    <path d="M 392.4 87.497723 
Q 392.4 100.491944 392.4 111.920917 
" style="fill: none; stroke: #4a5568; stroke-width: 1.4; stroke-linecap: round"/>
    <path d="M 394.4 107.920917 
L 392.4 111.920917 
L 390.4 107.920917 
z
" style="fill: #4a5568; stroke: #4a5568; stroke-width: 1.4; stroke-linecap: round"/>
   </g>
   <g id="text_2">
    <!-- Robin Hood ID Index -->
    <g style="fill: #ffffff" transform="translate(350.628047 142.847234) scale(0.09 -0.09)">
     <defs>
      <path id="Helvetica-52" d="M 2622 2488 
Q 3059 2488 3314 2663 
Q 3569 2838 3569 3294 
Q 3569 3784 3213 3963 
Q 3022 4056 2703 4056 
L 1184 4056 
L 1184 2488 
L 2622 2488 
z
M 563 4591 
L 2688 4591 
Q 3213 4591 3553 4438 
Q 4200 4144 4200 3353 
Q 4200 2941 4029 2678 
Q 3859 2416 3553 2256 
Q 3822 2147 3958 1969 
Q 4094 1791 4109 1391 
L 4131 775 
Q 4141 513 4175 384 
Q 4231 166 4375 103 
L 4375 0 
L 3613 0 
Q 3581 59 3562 153 
Q 3544 247 3531 516 
L 3494 1281 
Q 3472 1731 3159 1884 
Q 2981 1969 2600 1969 
L 1184 1969 
L 1184 0 
L 563 0 
L 563 4591 
z
" transform="scale(0.015625)"/>
      <path id="Helvetica-48" d="M 503 4591 
L 1131 4591 
L 1131 2694 
L 3519 2694 
L 3519 4591 
L 4147 4591 
L 4147 0 
L 3519 0 
L 3519 2147 
L 1131 2147 
L 1131 0 
L 503 0 
L 503 4591 
z
" transform="scale(0.015625)"/>
      <path id="Helvetica-49" d="M 628 4591 
L 1256 4591 
L 1256 0 
L 628 0 
L 628 4591 
z
" transform="scale(0.015625)"/>
      <path id="Helvetica-44" d="M 2250 531 
Q 2566 531 2769 597 
Q 3131 719 3363 1066 
Q 3547 1344 3628 1778 
Q 3675 2038 3675 2259 
Q 3675 3113 3336 3584 
Q 2997 4056 2244 4056 
L 1141 4056 
L 1141 531 
L 2250 531 
z
M 516 4591 
L 2375 4591 
Q 3322 4591 3844 3919 
Q 4309 3313 4309 2366 
Q 4309 1634 4034 1044 
Q 3550 0 2369 0 
L 516 0 
L 516 4591 
z
" transform="scale(0.015625)"/>
      <path id="Helvetica-78" d="M 94 3347 
L 822 3347 
L 1591 2169 
L 2369 3347 
L 3053 3331 
L 1925 1716 
L 3103 0 
L 2384 0 
L 1553 1256 
L 747 0 
L 34 0 
L 1213 1716 
L 94 3347 
z
" transform="scale(0.015625)"/>
     </defs>
     <use xlink:href="#Helvetica-52"/>
     <use xlink:href="#Helvetica-6f" x="72.216797"/>
     <use xlink:href="#Helvetica-62" x="127.832031"/>
     <use xlink:href="#Helvetica-69" x="183.447266"/>
     <use xlink:href="#Helvetica-6e" x="205.664062"/>
     <use xlink:href="#Helvetica-20" x="261.279297"/>
     <use xlink:href="#Helvetica-48" x="289.0625"/>
     <use xlink:href="#Helvetica-6f" x="361.279297"/>
     <use xlink:href="#Helvetica-6f" x="416.894531"/>
     <use xlink:href="#Helvetica-64" x="472.509766"/>
     <use xlink:href="#Helvetica-20" x="528.125"/>
     <use xlink:href="#Helvetica-49" x="555.908203"/>
     <use xlink:href="#Helvetica-44" x="583.691406"/>
     <use xlink:href="#Helvetica-20" x="655.908203"/>
     <use xlink:href="#Helvetica-49" x="683.691406"/>
     <use xlink:href="#Helvetica-6e" x="711.474609"/>
     <use xlink:href="#Helvetica-64" x="767.089844"/>
     <use xlink:href="#Helvetica-65" x="822.705078"/>
     <use xlink:href="#Helvetica-78" x="878.320312"/>
    </g>
    <!-- OrderID → Order*   |   load factor &lt; 0.7   |   no rehash on hot path -->
    <g style="fill: #ffffff" transform="translate(264.277266 152.681422) scale(0.09 -0.09)">
     <defs>
      <path id="Helvetica-2192" d="M 206 0 
L 206 4591 
L 3850 4591 
L 3850 0 
L 206 0 
z
M 3275 575 
L 3275 4016 
L 781 4016 
L 781 575 
L 3275 575 
z
" transform="scale(0.015625)"/>
      <path id="Helvetica-2a" d="M 1406 4591 
L 1406 3894 
L 2088 4131 
L 2213 3784 
L 1531 3563 
L 1953 2975 
L 1644 2753 
L 1234 3363 
L 822 2753 
L 503 2975 
L 931 3563 
L 244 3784 
L 369 4131 
L 1044 3888 
L 1044 4591 
L 1406 4591 
z
" transform="scale(0.015625)"/>
      <path id="Helvetica-7c" d="M 984 0 
L 450 0 
L 450 4656 
L 984 4656 
L 984 0 
z
" transform="scale(0.015625)"/>
      <path id="Helvetica-66" d="M 553 3856 
Q 566 4206 675 4369 
Q 872 4656 1434 4656 
Q 1488 4656 1544 4653 
Q 1600 4650 1672 4644 
L 1672 4131 
Q 1584 4138 1545 4139 
Q 1506 4141 1472 4141 
Q 1216 4141 1166 4008 
Q 1116 3875 1116 3331 
L 1672 3331 
L 1672 2888 
L 1109 2888 
L 1109 0 
L 553 0 
L 553 2888 
L 88 2888 
L 88 3331 
L 553 3331 
L 553 3856 
z
" transform="scale(0.015625)"/>
      <path id="Helvetica-63" d="M 1703 3444 
Q 2269 3444 2623 3169 
Q 2978 2894 3050 2222 
L 2503 2222 
Q 2453 2531 2275 2736 
Q 2097 2941 1703 2941 
Q 1166 2941 934 2416 
Q 784 2075 784 1575 
Q 784 1072 996 728 
Q 1209 384 1666 384 
Q 2016 384 2220 598 
Q 2425 813 2503 1184 
L 3050 1184 
Q 2956 519 2581 211 
Q 2206 -97 1622 -97 
Q 966 -97 575 383 
Q 184 863 184 1581 
Q 184 2463 612 2953 
Q 1041 3444 1703 3444 
z
M 1616 3428 
L 1616 3428 
z
" transform="scale(0.015625)"/>
      <path id="Helvetica-3c" d="M 88 1894 
L 3741 3325 
L 3741 2763 
L 753 1634 
L 3741 503 
L 3741 -59 
L 88 1375 
L 88 1894 
z
" transform="scale(0.015625)"/>
      <path id="Helvetica-30" d="M 1731 4475 
Q 2600 4475 2988 3759 
Q 3288 3206 3288 2244 
Q 3288 1331 3016 734 
Q 2622 -122 1728 -122 
Q 922 -122 528 578 
Q 200 1163 200 2147 
Q 200 2909 397 3456 
Q 766 4475 1731 4475 
z
M 1725 391 
Q 2163 391 2422 778 
Q 2681 1166 2681 2222 
Q 2681 2984 2493 3476 
Q 2306 3969 1766 3969 
Q 1269 3969 1039 3501 
Q 809 3034 809 2125 
Q 809 1441 956 1025 
Q 1181 391 1725 391 
z
" transform="scale(0.015625)"/>
      <path id="Helvetica-2e" d="M 547 681 
L 1200 681 
L 1200 0 
L 547 0 
L 547 681 
z
" transform="scale(0.015625)"/>
      <path id="Helvetica-37" d="M 3347 4400 
L 3347 3909 
Q 3131 3700 2773 3181 
Q 2416 2663 2141 2063 
Q 1869 1478 1728 997 
Q 1638 688 1494 0 
L 872 0 
Q 1084 1281 1809 2550 
Q 2238 3294 2709 3834 
L 234 3834 
L 234 4400 
L 3347 4400 
z
" transform="scale(0.015625)"/>
     </defs>
     <use xlink:href="#Helvetica-4f"/>
     <use xlink:href="#Helvetica-72" x="77.783203"/>
     <use xlink:href="#Helvetica-64" x="111.083984"/>
     <use xlink:href="#Helvetica-65" x="166.699219"/>
     <use xlink:href="#Helvetica-72" x="222.314453"/>
     <use xlink:href="#Helvetica-49" x="255.615234"/>
     <use xlink:href="#Helvetica-44" x="283.398438"/>
     <use xlink:href="#Helvetica-20" x="355.615234"/>
     <use xlink:href="#Helvetica-2192" x="383.398438"/>
     <use xlink:href="#Helvetica-20" x="446.777344"/>
     <use xlink:href="#Helvetica-4f" x="474.560547"/>
     <use xlink:href="#Helvetica-72" x="552.34375"/>
     <use xlink:href="#Helvetica-64" x="585.644531"/>
     <use xlink:href="#Helvetica-65" x="641.259766"/>
     <use xlink:href="#Helvetica-72" x="696.875"/>
     <use xlink:href="#Helvetica-2a" x="730.175781"/>
     <use xlink:href="#Helvetica-20" x="769.091797"/>
     <use xlink:href="#Helvetica-20" x="796.875"/>
     <use xlink:href="#Helvetica-20" x="824.658203"/>
     <use xlink:href="#Helvetica-7c" x="852.441406"/>
     <use xlink:href="#Helvetica-20" x="878.417969"/>
     <use xlink:href="#Helvetica-20" x="906.201172"/>
     <use xlink:href="#Helvetica-20" x="933.984375"/>
     <use xlink:href="#Helvetica-6c" x="961.767578"/>
     <use xlink:href="#Helvetica-6f" x="983.984375"/>
     <use xlink:href="#Helvetica-61" x="1039.599609"/>
     <use xlink:href="#Helvetica-64" x="1095.214844"/>
     <use xlink:href="#Helvetica-20" x="1150.830078"/>
     <use xlink:href="#Helvetica-66" x="1178.613281"/>
     <use xlink:href="#Helvetica-61" x="1206.396484"/>
     <use xlink:href="#Helvetica-63" x="1262.011719"/>
     <use xlink:href="#Helvetica-74" x="1312.011719"/>
     <use xlink:href="#Helvetica-6f" x="1339.794922"/>
     <use xlink:href="#Helvetica-72" x="1395.410156"/>
     <use xlink:href="#Helvetica-20" x="1428.710938"/>
     <use xlink:href="#Helvetica-3c" x="1456.494141"/>
     <use xlink:href="#Helvetica-20" x="1514.892578"/>
     <use xlink:href="#Helvetica-30" x="1542.675781"/>
     <use xlink:href="#Helvetica-2e" x="1598.291016"/>
     <use xlink:href="#Helvetica-37" x="1626.074219"/>
     <use xlink:href="#Helvetica-20" x="1681.689453"/>
     <use xlink:href="#Helvetica-20" x="1709.472656"/>
     <use xlink:href="#Helvetica-20" x="1737.255859"/>
     <use xlink:href="#Helvetica-7c" x="1765.039062"/>
     <use xlink:href="#Helvetica-20" x="1791.015625"/>
     <use xlink:href="#Helvetica-20" x="1818.798828"/>
     <use xlink:href="#Helvetica-20" x="1846.582031"/>
     <use xlink:href="#Helvetica-6e" x="1874.365234"/>
     <use xlink:href="#Helvetica-6f" x="1929.980469"/>
     <use xlink:href="#Helvetica-20" x="1985.595703"/>
     <use xlink:href="#Helvetica-72" x="2013.378906"/>
     <use xlink:href="#Helvetica-65" x="2046.679688"/>
     <use xlink:href="#Helvetica-68" x="2102.294922"/>
     <use xlink:href="#Helvetica-61" x="2157.910156"/>
     <use xlink:href="#Helvetica-73" x="2213.525391"/>
     <use xlink:href="#Helvetica-68" x="2263.525391"/>
     <use xlink:href="#Helvetica-20" x="2319.140625"/>
     <use xlink:href="#Helvetica-6f" x="2346.923828"/>
     <use xlink:href="#Helvetica-6e" x="2402.539062"/>
     <use xlink:href="#Helvetica-20" x="2458.154297"/>
     <use xlink:href="#Helvetica-68" x="2485.9375"/>
     <use xlink:href="#Helvetica-6f" x="2541.552734"/>
     <use xlink:href="#Helvetica-74" x="2597.167969"/>
     <use xlink:href="#Helvetica-20" x="2624.951172"/>
     <use xlink:href="#Helvetica-70" x="2652.734375"/>
     <use xlink:href="#Helvetica-61" x="2708.349609"/>
     <use xlink:href="#Helvetica-74" x="2763.964844"/>
     <use xlink:href="#Helvetica-68" x="2791.748047"/>
    </g>
   </g>
   <g id="patch_9">
    <path d="M 285.537265 176.324044 
Q 245.321752 195.457646 206.519667 213.918773 
" style="fill: none; stroke: #4a5568; stroke-width: 1.4; stroke-linecap: round"/>
    <path d="M 210.990947 214.006268 
L 206.519667 213.918773 
L 209.272431 210.394246 
z
" style="fill: #4a5568; stroke: #4a5568; stroke-width: 1.4; stroke-linecap: round"/>
   </g>
   <g id="patch_10">
    <path d="M 499.262735 176.324044 
Q 539.478248 195.457646 578.280333 213.918773 
" style="fill: none; stroke: #4a5568; stroke-width: 1.4; stroke-linecap: round"/>
    <path d="M 575.527569 210.394246 
L 578.280333 213.918773 
L 573.809053 214.006268 
z
" style="fill: #4a5568; stroke: #4a5568; stroke-width: 1.4; stroke-linecap: round"/>
   </g>
   <g id="text_3">
    <!-- BID Book -->
    <g style="fill: #ffffff" transform="translate(178.345916 238.867805) scale(0.085 -0.085)">
     <defs>
      <path id="Helvetica-42" d="M 2213 2650 
Q 2606 2650 2825 2759 
Q 3169 2931 3169 3378 
Q 3169 3828 2803 3984 
Q 2597 4072 2191 4072 
L 1081 4072 
L 1081 2650 
L 2213 2650 
z
M 2422 531 
Q 2994 531 3238 863 
Q 3391 1072 3391 1369 
Q 3391 1869 2944 2050 
Q 2706 2147 2316 2147 
L 1081 2147 
L 1081 531 
L 2422 531 
z
M 472 4591 
L 2444 4591 
Q 3250 4591 3591 4109 
Q 3791 3825 3791 3453 
Q 3791 3019 3544 2741 
Q 3416 2594 3175 2472 
Q 3528 2338 3703 2169 
Q 4013 1869 4013 1341 
Q 4013 897 3734 538 
Q 3319 0 2413 0 
L 472 0 
L 472 4591 
z
" transform="scale(0.015625)"/>
      <path id="Helvetica-6b" d="M 400 4591 
L 941 4591 
L 941 1925 
L 2384 3347 
L 3103 3347 
L 1822 2094 
L 3175 0 
L 2456 0 
L 1413 1688 
L 941 1256 
L 941 0 
L 400 0 
L 400 4591 
z
" transform="scale(0.015625)"/>
     </defs>
     <use xlink:href="#Helvetica-42"/>
     <use xlink:href="#Helvetica-49" x="66.699219"/>
     <use xlink:href="#Helvetica-44" x="94.482422"/>
     <use xlink:href="#Helvetica-20" x="166.699219"/>
     <use xlink:href="#Helvetica-42" x="194.482422"/>
     <use xlink:href="#Helvetica-6f" x="261.181641"/>
     <use xlink:href="#Helvetica-6f" x="316.796875"/>
     <use xlink:href="#Helvetica-6b" x="372.412109"/>
    </g>
    <!-- Sorted DESC level list -->
    <g style="fill: #ffffff" transform="translate(154.492127 247.95643) scale(0.085 -0.085)">
     <defs>
      <path id="Helvetica-43" d="M 2422 4716 
Q 3294 4716 3775 4256 
Q 4256 3797 4309 3213 
L 3703 3213 
Q 3600 3656 3292 3915 
Q 2984 4175 2428 4175 
Q 1750 4175 1333 3698 
Q 916 3222 916 2238 
Q 916 1431 1292 929 
Q 1669 428 2416 428 
Q 3103 428 3463 956 
Q 3653 1234 3747 1688 
L 4353 1688 
Q 4272 963 3816 472 
Q 3269 -119 2341 -119 
Q 1541 -119 997 366 
Q 281 1006 281 2344 
Q 281 3359 819 4009 
Q 1400 4716 2422 4716 
z
M 2297 4716 
L 2297 4716 
z
" transform="scale(0.015625)"/>
      <path id="Helvetica-76" d="M 688 3347 
L 1581 622 
L 2516 3347 
L 3131 3347 
L 1869 0 
L 1269 0 
L 34 3347 
L 688 3347 
z
" transform="scale(0.015625)"/>
     </defs>
     <use xlink:href="#Helvetica-53"/>
     <use xlink:href="#Helvetica-6f" x="66.699219"/>
     <use xlink:href="#Helvetica-72" x="122.314453"/>
     <use xlink:href="#Helvetica-74" x="155.615234"/>
     <use xlink:href="#Helvetica-65" x="183.398438"/>
     <use xlink:href="#Helvetica-64" x="239.013672"/>
     <use xlink:href="#Helvetica-20" x="294.628906"/>
     <use xlink:href="#Helvetica-44" x="322.412109"/>
     <use xlink:href="#Helvetica-45" x="394.628906"/>
     <use xlink:href="#Helvetica-53" x="461.328125"/>
     <use xlink:href="#Helvetica-43" x="528.027344"/>
     <use xlink:href="#Helvetica-20" x="600.244141"/>
     <use xlink:href="#Helvetica-6c" x="628.027344"/>
     <use xlink:href="#Helvetica-65" x="650.244141"/>
     <use xlink:href="#Helvetica-76" x="705.859375"/>
     <use xlink:href="#Helvetica-65" x="755.859375"/>
     <use xlink:href="#Helvetica-6c" x="811.474609"/>
     <use xlink:href="#Helvetica-20" x="833.691406"/>
     <use xlink:href="#Helvetica-6c" x="861.474609"/>
     <use xlink:href="#Helvetica-69" x="883.691406"/>
     <use xlink:href="#Helvetica-73" x="905.908203"/>
     <use xlink:href="#Helvetica-74" x="955.908203"/>
    </g>
    <!-- Flat price window O(1) -->
    <g style="fill: #ffffff" transform="translate(153.788221 257.244273) scale(0.085 -0.085)">
     <defs>
      <path id="Helvetica-46" d="M 547 4591 
L 3731 4591 
L 3731 4028 
L 1169 4028 
L 1169 2634 
L 3422 2634 
L 3422 2088 
L 1169 2088 
L 1169 0 
L 547 0 
L 547 4591 
z
" transform="scale(0.015625)"/>
      <path id="Helvetica-77" d="M 672 3347 
L 1316 709 
L 1969 3347 
L 2600 3347 
L 3256 725 
L 3941 3347 
L 4503 3347 
L 3531 0 
L 2947 0 
L 2266 2591 
L 1606 0 
L 1022 0 
L 56 3347 
L 672 3347 
z
" transform="scale(0.015625)"/>
      <path id="Helvetica-28" d="M 1894 4666 
Q 1403 3713 1256 3263 
Q 1034 2578 1034 1681 
Q 1034 775 1288 25 
Q 1444 -438 1903 -1306 
L 1525 -1306 
Q 1069 -594 959 -397 
Q 850 -200 722 138 
Q 547 600 478 1125 
Q 444 1397 444 1644 
Q 444 2569 734 3291 
Q 919 3750 1503 4666 
L 1894 4666 
z
" transform="scale(0.015625)"/>
      <path id="Helvetica-31" d="M 613 3169 
L 613 3600 
Q 1222 3659 1462 3798 
Q 1703 3938 1822 4456 
L 2266 4456 
L 2266 0 
L 1666 0 
L 1666 3169 
L 613 3169 
z
" transform="scale(0.015625)"/>
      <path id="Helvetica-29" d="M 222 -1306 
Q 719 -338 863 106 
Q 1081 778 1081 1681 
Q 1081 2584 828 3334 
Q 672 3797 213 4666 
L 591 4666 
Q 1072 3897 1173 3717 
Q 1275 3538 1394 3222 
Q 1544 2831 1608 2450 
Q 1672 2069 1672 1716 
Q 1672 791 1378 66 
Q 1194 -400 613 -1306 
L 222 -1306 
z
" transform="scale(0.015625)"/>
     </defs>
     <use xlink:href="#Helvetica-46"/>
     <use xlink:href="#Helvetica-6c" x="61.083984"/>
     <use xlink:href="#Helvetica-61" x="83.300781"/>
     <use xlink:href="#Helvetica-74" x="138.916016"/>
     <use xlink:href="#Helvetica-20" x="166.699219"/>
     <use xlink:href="#Helvetica-70" x="194.482422"/>
     <use xlink:href="#Helvetica-72" x="250.097656"/>
     <use xlink:href="#Helvetica-69" x="283.398438"/>
     <use xlink:href="#Helvetica-63" x="305.615234"/>
     <use xlink:href="#Helvetica-65" x="355.615234"/>
     <use xlink:href="#Helvetica-20" x="411.230469"/>
     <use xlink:href="#Helvetica-77" x="439.013672"/>
     <use xlink:href="#Helvetica-69" x="511.230469"/>
     <use xlink:href="#Helvetica-6e" x="533.447266"/>
     <use xlink:href="#Helvetica-64" x="589.0625"/>
     <use xlink:href="#Helvetica-6f" x="644.677734"/>
     <use xlink:href="#Helvetica-77" x="700.292969"/>
     <use xlink:href="#Helvetica-20" x="772.509766"/>
     <use xlink:href="#Helvetica-4f" x="800.292969"/>
     <use xlink:href="#Helvetica-28" x="878.076172"/>
     <use xlink:href="#Helvetica-31" x="911.376953"/>
     <use xlink:href="#Helvetica-29" x="966.992188"/>
    </g>
    <!-- Intrusive FIFO / level -->
    <g style="fill: #ffffff" transform="translate(157.095916 266.332898) scale(0.085 -0.085)">
     <defs>
      <path id="Helvetica-75" d="M 975 3347 
L 975 1125 
Q 975 869 1056 706 
Q 1206 406 1616 406 
Q 2203 406 2416 931 
Q 2531 1213 2531 1703 
L 2531 3347 
L 3094 3347 
L 3094 0 
L 2563 0 
L 2569 494 
Q 2459 303 2297 172 
Q 1975 -91 1516 -91 
Q 800 -91 541 388 
Q 400 644 400 1072 
L 400 3347 
L 975 3347 
z
M 1747 3428 
L 1747 3428 
z
" transform="scale(0.015625)"/>
      <path id="Helvetica-2f" d="M 1456 4591 
L 1931 4591 
L 475 0 
L 0 0 
L 1456 4591 
z
" transform="scale(0.015625)"/>
     </defs>
     <use xlink:href="#Helvetica-49"/>
     <use xlink:href="#Helvetica-6e" x="27.783203"/>
     <use xlink:href="#Helvetica-74" x="83.398438"/>
     <use xlink:href="#Helvetica-72" x="111.181641"/>
     <use xlink:href="#Helvetica-75" x="144.482422"/>
     <use xlink:href="#Helvetica-73" x="200.097656"/>
     <use xlink:href="#Helvetica-69" x="250.097656"/>
     <use xlink:href="#Helvetica-76" x="272.314453"/>
     <use xlink:href="#Helvetica-65" x="322.314453"/>
     <use xlink:href="#Helvetica-20" x="377.929688"/>
     <use xlink:href="#Helvetica-46" x="405.712891"/>
     <use xlink:href="#Helvetica-49" x="466.796875"/>
     <use xlink:href="#Helvetica-46" x="494.580078"/>
     <use xlink:href="#Helvetica-4f" x="555.664062"/>
     <use xlink:href="#Helvetica-20" x="633.447266"/>
     <use xlink:href="#Helvetica-2f" x="661.230469"/>
     <use xlink:href="#Helvetica-20" x="689.013672"/>
     <use xlink:href="#Helvetica-6c" x="716.796875"/>
     <use xlink:href="#Helvetica-65" x="739.013672"/>
     <use xlink:href="#Helvetica-76" x="794.628906"/>
     <use xlink:href="#Helvetica-65" x="844.628906"/>
     <use xlink:href="#Helvetica-6c" x="900.244141"/>
    </g>
   </g>
   <g id="text_4">
    <!-- ASK Book -->
    <g style="fill: #ffffff" transform="translate(569.129787 238.867805) scale(0.085 -0.085)">
     <defs>
      <path id="Helvetica-41" d="M 2844 1881 
L 2147 3909 
L 1406 1881 
L 2844 1881 
z
M 1822 4591 
L 2525 4591 
L 4191 0 
L 3509 0 
L 3044 1375 
L 1228 1375 
L 731 0 
L 94 0 
L 1822 4591 
z
" transform="scale(0.015625)"/>
      <path id="Helvetica-4b" d="M 488 4591 
L 1094 4591 
L 1094 2353 
L 3331 4591 
L 4191 4591 
L 2281 2741 
L 4244 0 
L 3434 0 
L 1828 2303 
L 1094 1600 
L 1094 0 
L 488 0 
L 488 4591 
z
" transform="scale(0.015625)"/>
     </defs>
     <use xlink:href="#Helvetica-41"/>
     <use xlink:href="#Helvetica-53" x="66.699219"/>
     <use xlink:href="#Helvetica-4b" x="133.398438"/>
     <use xlink:href="#Helvetica-20" x="200.097656"/>
     <use xlink:href="#Helvetica-42" x="227.880859"/>
     <use xlink:href="#Helvetica-6f" x="294.580078"/>
     <use xlink:href="#Helvetica-6f" x="350.195312"/>
     <use xlink:href="#Helvetica-6b" x="405.810547"/>
    </g>
    <!-- Sorted ASC level list -->
    <g style="fill: #ffffff" transform="translate(549.76506 247.95643) scale(0.085 -0.085)">
     <use xlink:href="#Helvetica-53"/>
     <use xlink:href="#Helvetica-6f" x="66.699219"/>
     <use xlink:href="#Helvetica-72" x="122.314453"/>
     <use xlink:href="#Helvetica-74" x="155.615234"/>
     <use xlink:href="#Helvetica-65" x="183.398438"/>
     <use xlink:href="#Helvetica-64" x="239.013672"/>
     <use xlink:href="#Helvetica-20" x="294.628906"/>
     <use xlink:href="#Helvetica-41" x="322.412109"/>
     <use xlink:href="#Helvetica-53" x="389.111328"/>
     <use xlink:href="#Helvetica-43" x="455.810547"/>
     <use xlink:href="#Helvetica-20" x="528.027344"/>
     <use xlink:href="#Helvetica-6c" x="555.810547"/>
     <use xlink:href="#Helvetica-65" x="578.027344"/>
     <use xlink:href="#Helvetica-76" x="633.642578"/>
     <use xlink:href="#Helvetica-65" x="683.642578"/>
     <use xlink:href="#Helvetica-6c" x="739.257812"/>
     <use xlink:href="#Helvetica-20" x="761.474609"/>
     <use xlink:href="#Helvetica-6c" x="789.257812"/>
     <use xlink:href="#Helvetica-69" x="811.474609"/>
     <use xlink:href="#Helvetica-73" x="833.691406"/>
     <use xlink:href="#Helvetica-74" x="883.691406"/>
    </g>
    <!-- Flat price window O(1) -->
    <g style="fill: #ffffff" transform="translate(545.991857 257.244273) scale(0.085 -0.085)">
     <use xlink:href="#Helvetica-46"/>
     <use xlink:href="#Helvetica-6c" x="61.083984"/>
     <use xlink:href="#Helvetica-61" x="83.300781"/>
     <use xlink:href="#Helvetica-74" x="138.916016"/>
     <use xlink:href="#Helvetica-20" x="166.699219"/>
     <use xlink:href="#Helvetica-70" x="194.482422"/>
     <use xlink:href="#Helvetica-72" x="250.097656"/>
     <use xlink:href="#Helvetica-69" x="283.398438"/>
     <use xlink:href="#Helvetica-63" x="305.615234"/>
     <use xlink:href="#Helvetica-65" x="355.615234"/>
     <use xlink:href="#Helvetica-20" x="411.230469"/>
     <use xlink:href="#Helvetica-77" x="439.013672"/>
     <use xlink:href="#Helvetica-69" x="511.230469"/>
     <use xlink:href="#Helvetica-6e" x="533.447266"/>
     <use xlink:href="#Helvetica-64" x="589.0625"/>
     <use xlink:href="#Helvetica-6f" x="644.677734"/>
     <use xlink:href="#Helvetica-77" x="700.292969"/>
     <use xlink:href="#Helvetica-20" x="772.509766"/>
     <use xlink:href="#Helvetica-4f" x="800.292969"/>
     <use xlink:href="#Helvetica-28" x="878.076172"/>
     <use xlink:href="#Helvetica-31" x="911.376953"/>
     <use xlink:href="#Helvetica-29" x="966.992188"/>
    </g>
    <!-- Intrusive FIFO / level -->
    <g style="fill: #ffffff" transform="translate(549.299553 266.332898) scale(0.085 -0.085)">
     <use xlink:href="#Helvetica-49"/>
     <use xlink:href="#Helvetica-6e" x="27.783203"/>
     <use xlink:href="#Helvetica-74" x="83.398438"/>
     <use xlink:href="#Helvetica-72" x="111.181641"/>
     <use xlink:href="#Helvetica-75" x="144.482422"/>
     <use xlink:href="#Helvetica-73" x="200.097656"/>
     <use xlink:href="#Helvetica-69" x="250.097656"/>
     <use xlink:href="#Helvetica-76" x="272.314453"/>
     <use xlink:href="#Helvetica-65" x="322.314453"/>
     <use xlink:href="#Helvetica-20" x="377.929688"/>
     <use xlink:href="#Helvetica-46" x="405.712891"/>
     <use xlink:href="#Helvetica-49" x="466.796875"/>
     <use xlink:href="#Helvetica-46" x="494.580078"/>
     <use xlink:href="#Helvetica-4f" x="555.664062"/>
     <use xlink:href="#Helvetica-20" x="633.447266"/>
     <use xlink:href="#Helvetica-2f" x="661.230469"/>
     <use xlink:href="#Helvetica-20" x="689.013672"/>
     <use xlink:href="#Helvetica-6c" x="716.796875"/>
     <use xlink:href="#Helvetica-65" x="739.013672"/>
     <use xlink:href="#Helvetica-76" x="794.628906"/>
     <use xlink:href="#Helvetica-65" x="844.628906"/>
     <use xlink:href="#Helvetica-6c" x="900.244141"/>
    </g>
   </g>
   <g id="patch_11">
    <path d="M 323.682375 286.93107 
Q 339.872876 305.41842 355.032147 322.728245 
" style="fill: none; stroke: #4a5568; stroke-width: 1.4; stroke-linecap: round"/>
    <path d="M 353.901417 318.401416 
L 355.032147 322.728245 
L 350.892246 321.036731 
z
" style="fill: #4a5568; stroke: #4a5568; stroke-width: 1.4; stroke-linecap: round"/>
   </g>
   <g id="patch_12">
    <path d="M 530.603623 286.136671 
Q 479.944572 305.418586 430.748387 324.143703 
" style="fill: none; stroke: #4a5568; stroke-width: 1.4; stroke-linecap: round"/>
    <path d="M 435.198199 324.589984 
L 430.748387 324.143703 
L 433.775299 320.851621 
z
" style="fill: #4a5568; stroke: #4a5568; stroke-width: 1.4; stroke-linecap: round"/>
   </g>
   <g id="text_5">
    <!-- Matching Core -->
    <g style="fill: #0b1f3a" transform="translate(363.13875 352.796938) scale(0.09 -0.09)">
     <defs>
      <path id="Helvetica-4d" d="M 472 4591 
L 1363 4591 
L 2681 709 
L 3991 4591 
L 4872 4591 
L 4872 0 
L 4281 0 
L 4281 2709 
Q 4281 2850 4287 3175 
Q 4294 3500 4294 3872 
L 2984 0 
L 2369 0 
L 1050 3872 
L 1050 3731 
Q 1050 3563 1058 3217 
Q 1066 2872 1066 2709 
L 1066 0 
L 472 0 
L 472 4591 
z
" transform="scale(0.015625)"/>
     </defs>
     <use xlink:href="#Helvetica-4d"/>
     <use xlink:href="#Helvetica-61" x="83.300781"/>
     <use xlink:href="#Helvetica-74" x="138.916016"/>
     <use xlink:href="#Helvetica-63" x="166.699219"/>
     <use xlink:href="#Helvetica-68" x="216.699219"/>
     <use xlink:href="#Helvetica-69" x="272.314453"/>
     <use xlink:href="#Helvetica-6e" x="294.53125"/>
     <use xlink:href="#Helvetica-67" x="350.146484"/>
     <use xlink:href="#Helvetica-20" x="405.761719"/>
     <use xlink:href="#Helvetica-43" x="433.544922"/>
     <use xlink:href="#Helvetica-6f" x="505.761719"/>
     <use xlink:href="#Helvetica-72" x="561.376953"/>
     <use xlink:href="#Helvetica-65" x="594.677734"/>
    </g>
    <!-- Price-time priority  ·  Passive pricing  ·  Partial fills -->
    <g style="fill: #0b1f3a" transform="translate(294.129141 362.645188) scale(0.09 -0.09)">
     <defs>
      <path id="Helvetica-50" d="M 547 4591 
L 2613 4591 
Q 3225 4591 3600 4245 
Q 3975 3900 3975 3275 
Q 3975 2738 3640 2339 
Q 3306 1941 2613 1941 
L 1169 1941 
L 1169 0 
L 547 0 
L 547 4591 
z
M 3347 3272 
Q 3347 3778 2972 3959 
Q 2766 4056 2406 4056 
L 1169 4056 
L 1169 2466 
L 2406 2466 
Q 2825 2466 3086 2644 
Q 3347 2822 3347 3272 
z
" transform="scale(0.015625)"/>
     </defs>
     <use xlink:href="#Helvetica-50"/>
     <use xlink:href="#Helvetica-72" x="66.699219"/>
     <use xlink:href="#Helvetica-69" x="100"/>
     <use xlink:href="#Helvetica-63" x="122.216797"/>
     <use xlink:href="#Helvetica-65" x="172.216797"/>
     <use xlink:href="#Helvetica-2d" x="227.832031"/>
     <use xlink:href="#Helvetica-74" x="261.132812"/>
     <use xlink:href="#Helvetica-69" x="288.916016"/>
     <use xlink:href="#Helvetica-6d" x="311.132812"/>
     <use xlink:href="#Helvetica-65" x="394.433594"/>
     <use xlink:href="#Helvetica-20" x="450.048828"/>
     <use xlink:href="#Helvetica-70" x="477.832031"/>
     <use xlink:href="#Helvetica-72" x="533.447266"/>
     <use xlink:href="#Helvetica-69" x="566.748047"/>
     <use xlink:href="#Helvetica-6f" x="588.964844"/>
     <use xlink:href="#Helvetica-72" x="644.580078"/>
     <use xlink:href="#Helvetica-69" x="677.880859"/>
     <use xlink:href="#Helvetica-74" x="700.097656"/>
     <use xlink:href="#Helvetica-79" x="727.880859"/>
     <use xlink:href="#Helvetica-20" x="777.880859"/>
     <use xlink:href="#Helvetica-20" x="805.664062"/>
     <use xlink:href="#Helvetica-b7" x="833.447266"/>
     <use xlink:href="#Helvetica-20" x="861.230469"/>
     <use xlink:href="#Helvetica-20" x="889.013672"/>
     <use xlink:href="#Helvetica-50" x="916.796875"/>
     <use xlink:href="#Helvetica-61" x="983.496094"/>
     <use xlink:href="#Helvetica-73" x="1039.111328"/>
     <use xlink:href="#Helvetica-73" x="1089.111328"/>
     <use xlink:href="#Helvetica-69" x="1139.111328"/>
     <use xlink:href="#Helvetica-76" x="1161.328125"/>
     <use xlink:href="#Helvetica-65" x="1211.328125"/>
     <use xlink:href="#Helvetica-20" x="1266.943359"/>
     <use xlink:href="#Helvetica-70" x="1294.726562"/>
     <use xlink:href="#Helvetica-72" x="1350.341797"/>
     <use xlink:href="#Helvetica-69" x="1383.642578"/>
     <use xlink:href="#Helvetica-63" x="1405.859375"/>
     <use xlink:href="#Helvetica-69" x="1455.859375"/>
     <use xlink:href="#Helvetica-6e" x="1478.076172"/>
     <use xlink:href="#Helvetica-67" x="1533.691406"/>
     <use xlink:href="#Helvetica-20" x="1589.306641"/>
     <use xlink:href="#Helvetica-20" x="1617.089844"/>
     <use xlink:href="#Helvetica-b7" x="1644.873047"/>
     <use xlink:href="#Helvetica-20" x="1672.65625"/>
     <use xlink:href="#Helvetica-20" x="1700.439453"/>
     <use xlink:href="#Helvetica-50" x="1728.222656"/>
     <use xlink:href="#Helvetica-61" x="1794.921875"/>
     <use xlink:href="#Helvetica-72" x="1850.537109"/>
     <use xlink:href="#Helvetica-74" x="1883.837891"/>
     <use xlink:href="#Helvetica-69" x="1911.621094"/>
     <use xlink:href="#Helvetica-61" x="1933.837891"/>
     <use xlink:href="#Helvetica-6c" x="1989.453125"/>
     <use xlink:href="#Helvetica-20" x="2011.669922"/>
     <use xlink:href="#Helvetica-66" x="2039.453125"/>
     <use xlink:href="#Helvetica-69" x="2067.236328"/>
     <use xlink:href="#Helvetica-6c" x="2089.453125"/>
     <use xlink:href="#Helvetica-6c" x="2111.669922"/>
     <use xlink:href="#Helvetica-73" x="2133.886719"/>
    </g>
   </g>
   <g id="patch_13">
    <path d="M 392.4 387.392723 
Q 392.4 400.386944 392.4 411.815917 
" style="fill: none; stroke: #4a5568; stroke-width: 1.4; stroke-linecap: round"/>
    <path d="M 394.4 407.815917 
L 392.4 411.815917 
L 390.4 407.815917 
z
" style="fill: #4a5568; stroke: #4a5568; stroke-width: 1.4; stroke-linecap: round"/>
   </g>
   <g id="text_6">
    <!-- SPSC Event Ring  →  Async logger / gateway -->
    <g style="fill: #ffffff" transform="translate(302.508984 442.761219) scale(0.09 -0.09)">
     <use xlink:href="#Helvetica-53"/>
     <use xlink:href="#Helvetica-50" x="66.699219"/>
     <use xlink:href="#Helvetica-53" x="133.398438"/>
     <use xlink:href="#Helvetica-43" x="200.097656"/>
     <use xlink:href="#Helvetica-20" x="272.314453"/>
     <use xlink:href="#Helvetica-45" x="300.097656"/>
     <use xlink:href="#Helvetica-76" x="366.796875"/>
     <use xlink:href="#Helvetica-65" x="416.796875"/>
     <use xlink:href="#Helvetica-6e" x="472.412109"/>
     <use xlink:href="#Helvetica-74" x="528.027344"/>
     <use xlink:href="#Helvetica-20" x="555.810547"/>
     <use xlink:href="#Helvetica-52" x="583.59375"/>
     <use xlink:href="#Helvetica-69" x="655.810547"/>
     <use xlink:href="#Helvetica-6e" x="678.027344"/>
     <use xlink:href="#Helvetica-67" x="733.642578"/>
     <use xlink:href="#Helvetica-20" x="789.257812"/>
     <use xlink:href="#Helvetica-20" x="817.041016"/>
     <use xlink:href="#Helvetica-2192" x="844.824219"/>
     <use xlink:href="#Helvetica-20" x="908.203125"/>
     <use xlink:href="#Helvetica-20" x="935.986328"/>
     <use xlink:href="#Helvetica-41" x="963.769531"/>
     <use xlink:href="#Helvetica-73" x="1030.46875"/>
     <use xlink:href="#Helvetica-79" x="1080.46875"/>
     <use xlink:href="#Helvetica-6e" x="1130.46875"/>
     <use xlink:href="#Helvetica-63" x="1186.083984"/>
     <use xlink:href="#Helvetica-20" x="1236.083984"/>
     <use xlink:href="#Helvetica-6c" x="1263.867188"/>
     <use xlink:href="#Helvetica-6f" x="1286.083984"/>
     <use xlink:href="#Helvetica-67" x="1341.699219"/>
     <use xlink:href="#Helvetica-67" x="1397.314453"/>
     <use xlink:href="#Helvetica-65" x="1452.929688"/>
     <use xlink:href="#Helvetica-72" x="1508.544922"/>
     <use xlink:href="#Helvetica-20" x="1541.845703"/>
     <use xlink:href="#Helvetica-2f" x="1569.628906"/>
     <use xlink:href="#Helvetica-20" x="1597.412109"/>
     <use xlink:href="#Helvetica-67" x="1625.195312"/>
     <use xlink:href="#Helvetica-61" x="1680.810547"/>
     <use xlink:href="#Helvetica-74" x="1736.425781"/>
     <use xlink:href="#Helvetica-65" x="1764.208984"/>
     <use xlink:href="#Helvetica-77" x="1819.824219"/>
     <use xlink:href="#Helvetica-61" x="1892.041016"/>
     <use xlink:href="#Helvetica-79" x="1947.65625"/>
    </g>
    <!-- Ack · Fill · CancelAck · Reject -->
    <g style="fill: #ffffff" transform="translate(333.635625 452.710719) scale(0.09 -0.09)">
     <defs>
      <path id="Helvetica-6a" d="M 975 3941 
L 413 3941 
L 413 4591 
L 975 4591 
L 975 3941 
z
M -119 -847 
Q 259 -834 336 -779 
Q 413 -725 413 -438 
L 413 3331 
L 975 3331 
L 975 -497 
Q 975 -863 856 -1044 
Q 659 -1350 109 -1350 
Q 69 -1350 23 -1347 
Q -22 -1344 -119 -1334 
L -119 -847 
z
" transform="scale(0.015625)"/>
     </defs>
     <use xlink:href="#Helvetica-41"/>
     <use xlink:href="#Helvetica-63" x="66.699219"/>
     <use xlink:href="#Helvetica-6b" x="116.699219"/>
     <use xlink:href="#Helvetica-20" x="166.699219"/>
     <use xlink:href="#Helvetica-b7" x="194.482422"/>
     <use xlink:href="#Helvetica-20" x="222.265625"/>
     <use xlink:href="#Helvetica-46" x="250.048828"/>
     <use xlink:href="#Helvetica-69" x="311.132812"/>
     <use xlink:href="#Helvetica-6c" x="333.349609"/>
     <use xlink:href="#Helvetica-6c" x="355.566406"/>
     <use xlink:href="#Helvetica-20" x="377.783203"/>
     <use xlink:href="#Helvetica-b7" x="405.566406"/>
     <use xlink:href="#Helvetica-20" x="433.349609"/>
     <use xlink:href="#Helvetica-43" x="461.132812"/>
     <use xlink:href="#Helvetica-61" x="533.349609"/>
     <use xlink:href="#Helvetica-6e" x="588.964844"/>
     <use xlink:href="#Helvetica-63" x="644.580078"/>
     <use xlink:href="#Helvetica-65" x="694.580078"/>
     <use xlink:href="#Helvetica-6c" x="750.195312"/>
     <use xlink:href="#Helvetica-41" x="772.412109"/>
     <use xlink:href="#Helvetica-63" x="839.111328"/>
     <use xlink:href="#Helvetica-6b" x="889.111328"/>
     <use xlink:href="#Helvetica-20" x="939.111328"/>
     <use xlink:href="#Helvetica-b7" x="966.894531"/>
     <use xlink:href="#Helvetica-20" x="994.677734"/>
     <use xlink:href="#Helvetica-52" x="1022.460938"/>
     <use xlink:href="#Helvetica-65" x="1094.677734"/>
     <use xlink:href="#Helvetica-6a" x="1150.292969"/>
     <use xlink:href="#Helvetica-65" x="1172.509766"/>
     <use xlink:href="#Helvetica-63" x="1228.125"/>
     <use xlink:href="#Helvetica-74" x="1278.125"/>
    </g>
   </g>
   <g id="text_7">
    <!-- Zero heap allocations and zero locks on the hot path after initialization. -->
    <g style="fill: #4a5568" transform="translate(42.218182 510.3465) scale(0.085 -0.085)">
     <defs>
      <path id="Helvetica-5a" d="M 147 516 
L 2963 4044 
L 353 4044 
L 353 4591 
L 3763 4591 
L 3763 4056 
L 931 547 
L 3763 547 
L 3763 0 
L 147 0 
L 147 516 
z
M 2059 4591 
L 2059 4591 
z
" transform="scale(0.015625)"/>
      <path id="Helvetica-7a" d="M 163 444 
L 2147 2844 
L 309 2844 
L 309 3347 
L 2903 3347 
L 2903 2888 
L 931 503 
L 2963 503 
L 2963 0 
L 163 0 
L 163 444 
z
M 1609 3428 
L 1609 3428 
z
" transform="scale(0.015625)"/>
     </defs>
     <use xlink:href="#Helvetica-5a"/>
     <use xlink:href="#Helvetica-65" x="61.083984"/>
     <use xlink:href="#Helvetica-72" x="116.699219"/>
     <use xlink:href="#Helvetica-6f" x="150"/>
     <use xlink:href="#Helvetica-20" x="205.615234"/>
     <use xlink:href="#Helvetica-68" x="233.398438"/>
     <use xlink:href="#Helvetica-65" x="289.013672"/>
     <use xlink:href="#Helvetica-61" x="344.628906"/>
     <use xlink:href="#Helvetica-70" x="400.244141"/>
     <use xlink:href="#Helvetica-20" x="455.859375"/>
     <use xlink:href="#Helvetica-61" x="483.642578"/>
     <use xlink:href="#Helvetica-6c" x="539.257812"/>
     <use xlink:href="#Helvetica-6c" x="561.474609"/>
     <use xlink:href="#Helvetica-6f" x="583.691406"/>
     <use xlink:href="#Helvetica-63" x="639.306641"/>
     <use xlink:href="#Helvetica-61" x="689.306641"/>
     <use xlink:href="#Helvetica-74" x="744.921875"/>
     <use xlink:href="#Helvetica-69" x="772.705078"/>
     <use xlink:href="#Helvetica-6f" x="794.921875"/>
     <use xlink:href="#Helvetica-6e" x="850.537109"/>
     <use xlink:href="#Helvetica-73" x="906.152344"/>
     <use xlink:href="#Helvetica-20" x="956.152344"/>
     <use xlink:href="#Helvetica-61" x="983.935547"/>
     <use xlink:href="#Helvetica-6e" x="1039.550781"/>
     <use xlink:href="#Helvetica-64" x="1095.166016"/>
     <use xlink:href="#Helvetica-20" x="1150.78125"/>
     <use xlink:href="#Helvetica-7a" x="1178.564453"/>
     <use xlink:href="#Helvetica-65" x="1228.564453"/>
     <use xlink:href="#Helvetica-72" x="1284.179688"/>
     <use xlink:href="#Helvetica-6f" x="1317.480469"/>
     <use xlink:href="#Helvetica-20" x="1373.095703"/>
     <use xlink:href="#Helvetica-6c" x="1400.878906"/>
     <use xlink:href="#Helvetica-6f" x="1423.095703"/>
     <use xlink:href="#Helvetica-63" x="1478.710938"/>
     <use xlink:href="#Helvetica-6b" x="1528.710938"/>
     <use xlink:href="#Helvetica-73" x="1578.710938"/>
     <use xlink:href="#Helvetica-20" x="1628.710938"/>
     <use xlink:href="#Helvetica-6f" x="1656.494141"/>
     <use xlink:href="#Helvetica-6e" x="1712.109375"/>
     <use xlink:href="#Helvetica-20" x="1767.724609"/>
     <use xlink:href="#Helvetica-74" x="1795.507812"/>
     <use xlink:href="#Helvetica-68" x="1823.291016"/>
     <use xlink:href="#Helvetica-65" x="1878.90625"/>
     <use xlink:href="#Helvetica-20" x="1934.521484"/>
     <use xlink:href="#Helvetica-68" x="1962.304688"/>
     <use xlink:href="#Helvetica-6f" x="2017.919922"/>
     <use xlink:href="#Helvetica-74" x="2073.535156"/>
     <use xlink:href="#Helvetica-20" x="2101.318359"/>
     <use xlink:href="#Helvetica-70" x="2129.101562"/>
     <use xlink:href="#Helvetica-61" x="2184.716797"/>
     <use xlink:href="#Helvetica-74" x="2240.332031"/>
     <use xlink:href="#Helvetica-68" x="2268.115234"/>
     <use xlink:href="#Helvetica-20" x="2323.730469"/>
     <use xlink:href="#Helvetica-61" x="2351.513672"/>
     <use xlink:href="#Helvetica-66" x="2407.128906"/>
     <use xlink:href="#Helvetica-74" x="2434.912109"/>
     <use xlink:href="#Helvetica-65" x="2462.695312"/>
     <use xlink:href="#Helvetica-72" x="2518.310547"/>
     <use xlink:href="#Helvetica-20" x="2551.611328"/>
     <use xlink:href="#Helvetica-69" x="2579.394531"/>
     <use xlink:href="#Helvetica-6e" x="2601.611328"/>
     <use xlink:href="#Helvetica-69" x="2657.226562"/>
     <use xlink:href="#Helvetica-74" x="2679.443359"/>
     <use xlink:href="#Helvetica-69" x="2707.226562"/>
     <use xlink:href="#Helvetica-61" x="2729.443359"/>
     <use xlink:href="#Helvetica-6c" x="2785.058594"/>
     <use xlink:href="#Helvetica-69" x="2807.275391"/>
     <use xlink:href="#Helvetica-7a" x="2829.492188"/>
     <use xlink:href="#Helvetica-61" x="2879.492188"/>
     <use xlink:href="#Helvetica-74" x="2935.107422"/>
     <use xlink:href="#Helvetica-69" x="2962.890625"/>
     <use xlink:href="#Helvetica-6f" x="2985.107422"/>
     <use xlink:href="#Helvetica-6e" x="3040.722656"/>
     <use xlink:href="#Helvetica-2e" x="3096.337891"/>
    </g>
   </g>
   <g id="text_8">
    <!-- System Architecture — Limit Order Book Matching Engine -->
    <g style="fill: #0b1f3a" transform="translate(212.282344 17.51625) scale(0.14 -0.14)">
     <defs>
      <path id="Helvetica-2014" d="M 753 2000 
L 5644 2000 
L 5644 1541 
L 753 1541 
L 753 2000 
z
" transform="scale(0.015625)"/>
      <path id="Helvetica-4c" d="M 488 4591 
L 1109 4591 
L 1109 547 
L 3434 547 
L 3434 0 
L 488 0 
L 488 4591 
z
" transform="scale(0.015625)"/>
     </defs>
     <use xlink:href="#Helvetica-53"/>
     <use xlink:href="#Helvetica-79" x="66.699219"/>
     <use xlink:href="#Helvetica-73" x="116.699219"/>
     <use xlink:href="#Helvetica-74" x="166.699219"/>
     <use xlink:href="#Helvetica-65" x="194.482422"/>
     <use xlink:href="#Helvetica-6d" x="250.097656"/>
     <use xlink:href="#Helvetica-20" x="333.398438"/>
     <use xlink:href="#Helvetica-41" x="361.181641"/>
     <use xlink:href="#Helvetica-72" x="427.880859"/>
     <use xlink:href="#Helvetica-63" x="461.181641"/>
     <use xlink:href="#Helvetica-68" x="511.181641"/>
     <use xlink:href="#Helvetica-69" x="566.796875"/>
     <use xlink:href="#Helvetica-74" x="589.013672"/>
     <use xlink:href="#Helvetica-65" x="616.796875"/>
     <use xlink:href="#Helvetica-63" x="672.412109"/>
     <use xlink:href="#Helvetica-74" x="722.412109"/>
     <use xlink:href="#Helvetica-75" x="750.195312"/>
     <use xlink:href="#Helvetica-72" x="805.810547"/>
     <use xlink:href="#Helvetica-65" x="839.111328"/>
     <use xlink:href="#Helvetica-20" x="894.726562"/>
     <use xlink:href="#Helvetica-2014" x="922.509766"/>
     <use xlink:href="#Helvetica-20" x="1022.509766"/>
     <use xlink:href="#Helvetica-4c" x="1050.292969"/>
     <use xlink:href="#Helvetica-69" x="1105.908203"/>
     <use xlink:href="#Helvetica-6d" x="1128.125"/>
     <use xlink:href="#Helvetica-69" x="1211.425781"/>
     <use xlink:href="#Helvetica-74" x="1233.642578"/>
     <use xlink:href="#Helvetica-20" x="1261.425781"/>
     <use xlink:href="#Helvetica-4f" x="1289.208984"/>
     <use xlink:href="#Helvetica-72" x="1366.992188"/>
     <use xlink:href="#Helvetica-64" x="1400.292969"/>
     <use xlink:href="#Helvetica-65" x="1455.908203"/>
     <use xlink:href="#Helvetica-72" x="1511.523438"/>
     <use xlink:href="#Helvetica-20" x="1544.824219"/>
     <use xlink:href="#Helvetica-42" x="1572.607422"/>
     <use xlink:href="#Helvetica-6f" x="1639.306641"/>
     <use xlink:href="#Helvetica-6f" x="1694.921875"/>
     <use xlink:href="#Helvetica-6b" x="1750.537109"/>
     <use xlink:href="#Helvetica-20" x="1800.537109"/>
     <use xlink:href="#Helvetica-4d" x="1828.320312"/>
     <use xlink:href="#Helvetica-61" x="1911.621094"/>
     <use xlink:href="#Helvetica-74" x="1967.236328"/>
     <use xlink:href="#Helvetica-63" x="1995.019531"/>
     <use xlink:href="#Helvetica-68" x="2045.019531"/>
     <use xlink:href="#Helvetica-69" x="2100.634766"/>
     <use xlink:href="#Helvetica-6e" x="2122.851562"/>
     <use xlink:href="#Helvetica-67" x="2178.466797"/>
     <use xlink:href="#Helvetica-20" x="2234.082031"/>
     <use xlink:href="#Helvetica-45" x="2261.865234"/>
     <use xlink:href="#Helvetica-6e" x="2328.564453"/>
     <use xlink:href="#Helvetica-67" x="2384.179688"/>
     <use xlink:href="#Helvetica-69" x="2439.794922"/>
     <use xlink:href="#Helvetica-6e" x="2462.011719"/>
     <use xlink:href="#Helvetica-65" x="2517.626953"/>
    </g>
   </g>
  </g>
 </g>
 <defs>
  <clipPath id="p0ff50be8fc">
   <rect x="7.2" y="25.51625" width="770.4" height="499.825"/>
  </clipPath>
 </defs>
</svg>
