<?xml version="1.0" encoding="utf-8" standalone="no"?>
<!DOCTYPE svg PUBLIC "-//W3C//DTD SVG 1.1//EN"
  "http://www.w3.org/Graphics/SVG/1.1/DTD/svg11.dtd">
<svg xmlns:xlink="http://www.w3.org/1999/xlink" width="604.696875pt" height="352.053499pt" viewBox="0 0 604.696875 352.053499" xmlns="http://www.w3.org/2000/svg" version="1.1">
 <metadata>
  <rdf:RDF xmlns:dc="http://purl.org/dc/elements/1.1/" xmlns:cc="http://creativecommons.org/ns#" xmlns:rdf="http://www.w3.org/1999/02/22-rdf-syntax-ns#">
   <cc:Work>
    <dc:type rdf:resource="http://purl.org/dc/dcmitype/StillImage"/>
    <dc:date>2026-07-12T11:34:38.006989</dc:date>
    <dc:format>image/svg+xml</dc:format>
    <dc:creator>
     <cc:Agent>
      <dc:title>Matplotlib v3.9.4, https://matplotlib.org/</dc:title>
     </cc:Agent>
    </dc:creator>
   </cc:Work>
  </rdf:RDF>
 </metadata>
 <defs>
  <style type="text/css">*{stroke-linejoin: round; stroke-linecap: butt}</style>
 </defs>
 <g id="figure_1">
  <g id="patch_1">
   <path d="M 0 352.053499 
L 604.696875 352.053499 
L 604.696875 0 
L 0 0 
z
" style="fill: #ffffff"/>
  </g>
  <g id="axes_1">
   <g id="patch_2">
    <path d="M 28.1 328.595686 
L 590.546875 328.595686 
L 590.546875 50.287848 
L 28.1 50.287848 
z
" style="fill: #f7f9fc"/>
   </g>
   <g id="matplotlib.axis_1">
    <g id="xtick_1">
     <g id="line2d_1">
      <path d="M 28.1 328.595686 
L 28.1 50.287848 
" clip-path="url(#p69794563e2)" style="fill: none; stroke: #e2e8f0; stroke-width: 0.8; stroke-linecap: square"/>
     </g>
     <g id="line2d_2">
      <defs>
       <path id="mc20217a0c5" d="M 0 0 
L 0 3.5 
" style="stroke: #4a5568; stroke-width: 0.8"/>
      </defs>
      <g>
       <use xlink:href="#mc20217a0c5" x="28.1" y="328.595686" style="fill: #4a5568; stroke: #4a5568; stroke-width: 0.8"/>
      </g>
     </g>
     <g id="text_1">
      <!-- 0.0 -->
      <g style="fill: #4a5568" transform="translate(21.15 342.769124) scale(0.1 -0.1)">
       <defs>
        <path id="Helvetica-30" d="M 1731 4475 
Q 2600 4475 2988 3759 
Q 3288 3206 3288 2244 
Q 3288 1331 3016 734 
Q 2622 -122 1728 -122 
Q 922 -122 528 578 
Q 200 1163 200 2147 
Q 200 2909 397 3456 
Q 766 4475 1731 4475 
z
M 1725 391 
Q 2163 391 2422 778 
Q 2681 1166 2681 2222 
Q 2681 2984 2493 3476 
Q 2306 3969 1766 3969 
Q 1269 3969 1039 3501 
Q 809 3034 809 2125 
Q 809 1441 956 1025 
Q 1181 391 1725 391 
z
" transform="scale(0.015625)"/>
        <path id="Helvetica-2e" d="M 547 681 
L 1200 681 
L 1200 0 
L 547 0 
L 547 681 
z
" transform="scale(0.015625)"/>
       </defs>
       <use xlink:href="#Helvetica-30"/>
       <use xlink:href="#Helvetica-2e" x="55.615234"/>
       <use xlink:href="#Helvetica-30" x="83.398438"/>
      </g>
     </g>
    </g>
    <g id="xtick_2">
     <g id="line2d_3">
      <path d="M 140.589375 328.595686 
L 140.589375 50.287848 
" clip-path="url(#p69794563e2)" style="fill: none; stroke: #e2e8f0; stroke-width: 0.8; stroke-linecap: square"/>
     </g>
     <g id="line2d_4">
      <g>
       <use xlink:href="#mc20217a0c5" x="140.589375" y="328.595686" style="fill: #4a5568; stroke: #4a5568; stroke-width: 0.8"/>
      </g>
     </g>
     <g id="text_2">
      <!-- 0.2 -->
      <g style="fill: #4a5568" transform="translate(133.639375 342.769124) scale(0.1 -0.1)">
       <defs>
        <path id="Helvetica-32" d="M 200 0 
Q 231 578 439 1006 
Q 647 1434 1250 1784 
L 1850 2131 
Q 2253 2366 2416 2531 
Q 2672 2791 2672 3125 
Q 2672 3516 2437 3745 
Q 2203 3975 1813 3975 
Q 1234 3975 1013 3538 
Q 894 3303 881 2888 
L 309 2888 
Q 319 3472 525 3841 
Q 891 4491 1816 4491 
Q 2584 4491 2939 4075 
Q 3294 3659 3294 3150 
Q 3294 2613 2916 2231 
Q 2697 2009 2131 1694 
L 1703 1456 
Q 1397 1288 1222 1134 
Q 909 863 828 531 
L 3272 531 
L 3272 0 
L 200 0 
z
" transform="scale(0.015625)"/>
       </defs>
       <use xlink:href="#Helvetica-30"/>
       <use xlink:href="#Helvetica-2e" x="55.615234"/>
       <use xlink:href="#Helvetica-32" x="83.398438"/>
      </g>
     </g>
    </g>
    <g id="xtick_3">
     <g id="line2d_5">
      <path d="M 253.07875 328.595686 
L 253.07875 50.287848 
" clip-path="url(#p69794563e2)" style="fill: none; stroke: #e2e8f0; stroke-width: 0.8; stroke-linecap: square"/>
     </g>
     <g id="line2d_6">
      <g>
       <use xlink:href="#mc20217a0c5" x="253.07875" y="328.595686" style="fill: #4a5568; stroke: #4a5568; stroke-width: 0.8"/>
      </g>
     </g>
     <g id="text_3">
      <!-- 0.4 -->
      <g style="fill: #4a5568" transform="translate(246.12875 342.769124) scale(0.1 -0.1)">
       <defs>
        <path id="Helvetica-34" d="M 2116 1584 
L 2116 3613 
L 681 1584 
L 2116 1584 
z
M 2125 0 
L 2125 1094 
L 163 1094 
L 163 1644 
L 2213 4488 
L 2688 4488 
L 2688 1584 
L 3347 1584 
L 3347 1094 
L 2688 1094 
L 2688 0 
L 2125 0 
z
" transform="scale(0.015625)"/>
       </defs>
       <use xlink:href="#Helvetica-30"/>
       <use xlink:href="#Helvetica-2e" x="55.615234"/>
       <use xlink:href="#Helvetica-34" x="83.398438"/>
      </g>
     </g>
    </g>
    <g id="xtick_4">
     <g id="line2d_7">
      <path d="M 365.568125 328.595686 
L 365.568125 50.287848 
" clip-path="url(#p69794563e2)" style="fill: none; stroke: #e2e8f0; stroke-width: 0.8; stroke-linecap: square"/>
     </g>
     <g id="line2d_8">
      <g>
       <use xlink:href="#mc20217a0c5" x="365.568125" y="328.595686" style="fill: #4a5568; stroke: #4a5568; stroke-width: 0.8"/>
      </g>
     </g>
     <g id="text_4">
      <!-- 0.6 -->
      <g style="fill: #4a5568" transform="translate(358.618125 342.769124) scale(0.1 -0.1)">
       <defs>
        <path id="Helvetica-36" d="M 1872 4494 
Q 2622 4494 2917 4105 
Q 3213 3716 3213 3303 
L 2656 3303 
Q 2606 3569 2497 3719 
Q 2294 4000 1881 4000 
Q 1409 4000 1131 3564 
Q 853 3128 822 2316 
Q 1016 2600 1309 2741 
Q 1578 2866 1909 2866 
Q 2472 2866 2890 2506 
Q 3309 2147 3309 1434 
Q 3309 825 2912 354 
Q 2516 -116 1781 -116 
Q 1153 -116 697 361 
Q 241 838 241 1966 
Q 241 2800 444 3381 
Q 834 4494 1872 4494 
z
M 1831 384 
Q 2275 384 2495 682 
Q 2716 981 2716 1388 
Q 2716 1731 2519 2042 
Q 2322 2353 1803 2353 
Q 1441 2353 1167 2112 
Q 894 1872 894 1388 
Q 894 963 1142 673 
Q 1391 384 1831 384 
z
" transform="scale(0.015625)"/>
       </defs>
       <use xlink:href="#Helvetica-30"/>
       <use xlink:href="#Helvetica-2e" x="55.615234"/>
       <use xlink:href="#Helvetica-36" x="83.398438"/>
      </g>
     </g>
    </g>
    <g id="xtick_5">
     <g id="line2d_9">
      <path d="M 478.0575 328.595686 
L 478.0575 50.287848 
" clip-path="url(#p69794563e2)" style="fill: none; stroke: #e2e8f0; stroke-width: 0.8; stroke-linecap: square"/>
     </g>
     <g id="line2d_10">
      <g>
       <use xlink:href="#mc20217a0c5" x="478.0575" y="328.595686" style="fill: #4a5568; stroke: #4a5568; stroke-width: 0.8"/>
      </g>
     </g>
     <g id="text_5">
      <!-- 0.8 -->
      <g style="fill: #4a5568" transform="translate(471.1075 342.769124) scale(0.1 -0.1)">
       <defs>
        <path id="Helvetica-38" d="M 1741 2600 
Q 2113 2600 2322 2808 
Q 2531 3016 2531 3303 
Q 2531 3553 2331 3762 
Q 2131 3972 1722 3972 
Q 1316 3972 1134 3762 
Q 953 3553 953 3272 
Q 953 2956 1187 2778 
Q 1422 2600 1741 2600 
z
M 1775 384 
Q 2166 384 2423 595 
Q 2681 806 2681 1225 
Q 2681 1659 2415 1884 
Q 2150 2109 1734 2109 
Q 1331 2109 1076 1879 
Q 822 1650 822 1244 
Q 822 894 1055 639 
Q 1288 384 1775 384 
z
M 975 2384 
Q 741 2484 609 2619 
Q 363 2869 363 3269 
Q 363 3769 725 4128 
Q 1088 4488 1753 4488 
Q 2397 4488 2762 4148 
Q 3128 3809 3128 3356 
Q 3128 2938 2916 2678 
Q 2797 2531 2547 2391 
Q 2825 2263 2984 2097 
Q 3281 1784 3281 1284 
Q 3281 694 2884 283 
Q 2488 -128 1763 -128 
Q 1109 -128 657 226 
Q 206 581 206 1256 
Q 206 1653 400 1942 
Q 594 2231 975 2384 
z
" transform="scale(0.015625)"/>
       </defs>
       <use xlink:href="#Helvetica-30"/>
       <use xlink:href="#Helvetica-2e" x="55.615234"/>
       <use xlink:href="#Helvetica-38" x="83.398438"/>
      </g>
     </g>
    </g>
    <g id="xtick_6">
     <g id="line2d_11">
      <path d="M 590.546875 328.595686 
L 590.546875 50.287848 
" clip-path="url(#p69794563e2)" style="fill: none; stroke: #e2e8f0; stroke-width: 0.8; stroke-linecap: square"/>
     </g>
     <g id="line2d_12">
      <g>
       <use xlink:href="#mc20217a0c5" x="590.546875" y="328.595686" style="fill: #4a5568; stroke: #4a5568; stroke-width: 0.8"/>
      </g>
     </g>
     <g id="text_6">
      <!-- 1.0 -->
      <g style="fill: #4a5568" transform="translate(583.596875 342.769124) scale(0.1 -0.1)">
       <defs>
        <path id="Helvetica-31" d="M 613 3169 
L 613 3600 
Q 1222 3659 1462 3798 
Q 1703 3938 1822 4456 
L 2266 4456 
L 2266 0 
L 1666 0 
L 1666 3169 
L 613 3169 
z
" transform="scale(0.015625)"/>
       </defs>
       <use xlink:href="#Helvetica-31"/>
       <use xlink:href="#Helvetica-2e" x="55.615234"/>
       <use xlink:href="#Helvetica-30" x="83.398438"/>
      </g>
     </g>
    </g>
   </g>
   <g id="matplotlib.axis_2">
    <g id="ytick_1">
     <g id="line2d_13">
      <path d="M 28.1 328.595686 
L 590.546875 328.595686 
" clip-path="url(#p69794563e2)" style="fill: none; stroke: #e2e8f0; stroke-width: 0.8; stroke-linecap: square"/>
     </g>
     <g id="line2d_14">
      <defs>
       <path id="mec2ab7e0db" d="M 0 0 
L -3.5 0 
" style="stroke: #4a5568; stroke-width: 0.8"/>
      </defs>
      <g>
       <use xlink:href="#mec2ab7e0db" x="28.1" y="328.595686" style="fill: #4a5568; stroke: #4a5568; stroke-width: 0.8"/>
      </g>
     </g>
     <g id="text_7">
      <!-- 0.0 -->
      <g style="fill: #4a5568" transform="translate(7.2 332.182405) scale(0.1 -0.1)">
       <use xlink:href="#Helvetica-30"/>
       <use xlink:href="#Helvetica-2e" x="55.615234"/>
       <use xlink:href="#Helvetica-30" x="83.398438"/>
      </g>
     </g>
    </g>
    <g id="ytick_2">
     <g id="line2d_15">
      <path d="M 28.1 272.934119 
L 590.546875 272.934119 
" clip-path="url(#p69794563e2)" style="fill: none; stroke: #e2e8f0; stroke-width: 0.8; stroke-linecap: square"/>
     </g>
     <g id="line2d_16">
      <g>
       <use xlink:href="#mec2ab7e0db" x="28.1" y="272.934119" style="fill: #4a5568; stroke: #4a5568; stroke-width: 0.8"/>
      </g>
     </g>
     <g id="text_8">
      <!-- 0.2 -->
      <g style="fill: #4a5568" transform="translate(7.2 276.520837) scale(0.1 -0.1)">
       <use xlink:href="#Helvetica-30"/>
       <use xlink:href="#Helvetica-2e" x="55.615234"/>
       <use xlink:href="#Helvetica-32" x="83.398438"/>
      </g>
     </g>
    </g>
    <g id="ytick_3">
     <g id="line2d_17">
      <path d="M 28.1 217.272551 
L 590.546875 217.272551 
" clip-path="url(#p69794563e2)" style="fill: none; stroke: #e2e8f0; stroke-width: 0.8; stroke-linecap: square"/>
     </g>
     <g id="line2d_18">
      <g>
       <use xlink:href="#mec2ab7e0db" x="28.1" y="217.272551" style="fill: #4a5568; stroke: #4a5568; stroke-width: 0.8"/>
      </g>
     </g>
     <g id="text_9">
      <!-- 0.4 -->
      <g style="fill: #4a5568" transform="translate(7.2 220.85927) scale(0.1 -0.1)">
       <use xlink:href="#Helvetica-30"/>
       <use xlink:href="#Helvetica-2e" x="55.615234"/>
       <use xlink:href="#Helvetica-34" x="83.398438"/>
      </g>
     </g>
    </g>
    <g id="ytick_4">
     <g id="line2d_19">
      <path d="M 28.1 161.610983 
L 590.546875 161.610983 
" clip-path="url(#p69794563e2)" style="fill: none; stroke: #e2e8f0; stroke-width: 0.8; stroke-linecap: square"/>
     </g>
     <g id="line2d_20">
      <g>
       <use xlink:href="#mec2ab7e0db" x="28.1" y="161.610983" style="fill: #4a5568; stroke: #4a5568; stroke-width: 0.8"/>
      </g>
     </g>
     <g id="text_10">
      <!-- 0.6 -->
      <g style="fill: #4a5568" transform="translate(7.2 165.197702) scale(0.1 -0.1)">
       <use xlink:href="#Helvetica-30"/>
       <use xlink:href="#Helvetica-2e" x="55.615234"/>
       <use xlink:href="#Helvetica-36" x="83.398438"/>
      </g>
     </g>
    </g>
    <g id="ytick_5">
     <g id="line2d_21">
      <path d="M 28.1 105.949416 
L 590.546875 105.949416 
" clip-path="url(#p69794563e2)" style="fill: none; stroke: #e2e8f0; stroke-width: 0.8; stroke-linecap: square"/>
     </g>
     <g id="line2d_22">
      <g>
       <use xlink:href="#mec2ab7e0db" x="28.1" y="105.949416" style="fill: #4a5568; stroke: #4a5568; stroke-width: 0.8"/>
      </g>
     </g>
     <g id="text_11">
      <!-- 0.8 -->
      <g style="fill: #4a5568" transform="translate(7.2 109.536134) scale(0.1 -0.1)">
       <use xlink:href="#Helvetica-30"/>
       <use xlink:href="#Helvetica-2e" x="55.615234"/>
       <use xlink:href="#Helvetica-38" x="83.398438"/>
      </g>
     </g>
    </g>
    <g id="ytick_6">
     <g id="line2d_23">
      <path d="M 28.1 50.287848 
L 590.546875 50.287848 
" clip-path="url(#p69794563e2)" style="fill: none; stroke: #e2e8f0; stroke-width: 0.8; stroke-linecap: square"/>
     </g>
     <g id="line2d_24">
      <g>
       <use xlink:href="#mec2ab7e0db" x="28.1" y="50.287848" style="fill: #4a5568; stroke: #4a5568; stroke-width: 0.8"/>
      </g>
     </g>
     <g id="text_12">
      <!-- 1.0 -->
      <g style="fill: #4a5568" transform="translate(7.2 53.874567) scale(0.1 -0.1)">
       <use xlink:href="#Helvetica-31"/>
       <use xlink:href="#Helvetica-2e" x="55.615234"/>
       <use xlink:href="#Helvetica-30" x="83.398438"/>
      </g>
     </g>
    </g>
   </g>
   <g id="patch_3">
    <path d="M 28.1 328.595686 
L 28.1 50.287848 
" style="fill: none; stroke: #4a5568; stroke-width: 0.8; stroke-linejoin: miter; stroke-linecap: square"/>
   </g>
   <g id="patch_4">
    <path d="M 28.1 328.595686 
L 590.546875 328.595686 
" style="fill: none; stroke: #4a5568; stroke-width: 0.8; stroke-linejoin: miter; stroke-linecap: square"/>
   </g>
  </g>
  <g id="axes_2">
   <g id="patch_5">
    <path d="M 448.477357 189.441767 
C 448.477357 171.168242 444.877871 153.072404 437.884895 136.189868 
C 430.89192 119.307332 420.641451 103.966421 407.720117 91.045087 
C 394.798784 78.123754 379.457873 67.873285 362.575337 60.880309 
C 345.692801 53.887334 327.596963 50.287848 309.323437 50.287848 
C 291.049912 50.287848 272.954074 53.887334 256.071538 60.880309 
C 239.189002 67.873285 223.848091 78.123754 210.926758 91.045087 
C 198.005424 103.966421 187.754955 119.307332 180.76198 136.189868 
C 173.769004 153.072404 170.169518 171.168242 170.169518 189.441767 
C 170.169518 207.715292 173.769004 225.811131 180.76198 242.693666 
C 187.754955 259.576202 198.005424 274.917113 210.926758 287.838447 
C 223.848091 300.75978 239.189002 311.010249 256.071538 318.003225 
C 272.954074 324.9962 291.049912 328.595686 309.323437 328.595686 
C 327.596963 328.595686 345.692801 324.9962 362.575337 318.003225 
C 379.457873 311.010249 394.798784 300.75978 407.720117 287.838447 
C 420.641451 274.917113 430.89192 259.576202 437.884895 242.693666 
C 444.877871 225.811131 448.477357 207.715292 448.477357 189.441767 
M 309.323437 189.441767 
C 309.323437 189.441767 309.323437 189.441767 309.323437 189.441767 
C 309.323437 189.441767 309.323437 189.441767 309.323437 189.441767 
C 309.323437 189.441767 309.323437 189.441767 309.323437 189.441767 
C 309.323437 189.441767 309.323437 189.441767 309.323437 189.441767 
C 309.323437 189.441767 309.323437 189.441767 309.323437 189.441767 
C 309.323437 189.441767 309.323437 189.441767 309.323437 189.441767 
C 309.323437 189.441767 309.323437 189.441767 309.323437 189.441767 
C 309.323437 189.441767 309.323437 189.441767 309.323437 189.441767 
C 309.323437 189.441767 309.323437 189.441767 309.323437 189.441767 
C 309.323437 189.441767 309.323437 189.441767 309.323437 189.441767 
C 309.323437 189.441767 309.323437 189.441767 309.323437 189.441767 
C 309.323437 189.441767 309.323437 189.441767 309.323437 189.441767 
C 309.323437 189.441767 309.323437 189.441767 309.323437 189.441767 
C 309.323437 189.441767 309.323437 189.441767 309.323437 189.441767 
C 309.323437 189.441767 309.323437 189.441767 309.323437 189.441767 
C 309.323437 189.441767 309.323437 189.441767 309.323437 189.441767 
z
" style="fill: #f7f9fc"/>
   </g>
   <g id="matplotlib.axis_3">
    <g id="xtick_7">
     <g id="line2d_25">
      <path d="M 309.323437 189.441767 
L 448.477357 189.441767 
" clip-path="url(#pab509af8bf)" style="fill: none; stroke: #e2e8f0; stroke-width: 0.8; stroke-linecap: square"/>
     </g>
     <g id="text_13">
      <!-- p50 -->
      <g style="fill: #4a5568" transform="translate(454.970091 186.893501) scale(0.09 -0.09)">
       <defs>
        <path id="Helvetica-70" d="M 1825 378 
Q 2219 378 2480 708 
Q 2741 1038 2741 1694 
Q 2741 2094 2625 2381 
Q 2406 2934 1825 2934 
Q 1241 2934 1025 2350 
Q 909 2038 909 1556 
Q 909 1169 1025 897 
Q 1244 378 1825 378 
z
M 369 3331 
L 916 3331 
L 916 2888 
Q 1084 3116 1284 3241 
Q 1569 3428 1953 3428 
Q 2522 3428 2919 2992 
Q 3316 2556 3316 1747 
Q 3316 653 2744 184 
Q 2381 -113 1900 -113 
Q 1522 -113 1266 53 
Q 1116 147 931 375 
L 931 -1334 
L 369 -1334 
L 369 3331 
z
" transform="scale(0.015625)"/>
        <path id="Helvetica-35" d="M 791 1141 
Q 847 659 1238 475 
Q 1438 381 1700 381 
Q 2200 381 2440 700 
Q 2681 1019 2681 1406 
Q 2681 1875 2395 2131 
Q 2109 2388 1709 2388 
Q 1419 2388 1211 2275 
Q 1003 2163 856 1963 
L 369 1991 
L 709 4400 
L 3034 4400 
L 3034 3856 
L 1131 3856 
L 941 2613 
Q 1097 2731 1238 2791 
Q 1488 2894 1816 2894 
Q 2431 2894 2859 2497 
Q 3288 2100 3288 1491 
Q 3288 856 2895 371 
Q 2503 -113 1644 -113 
Q 1097 -113 676 195 
Q 256 503 206 1141 
L 791 1141 
z
" transform="scale(0.015625)"/>
       </defs>
       <use xlink:href="#Helvetica-70"/>
       <use xlink:href="#Helvetica-35" x="55.615234"/>
       <use xlink:href="#Helvetica-30" x="111.230469"/>
      </g>
      <!-- latency -->
      <g style="fill: #4a5568" transform="translate(448.220091 196.516751) scale(0.09 -0.09)">
       <defs>
        <path id="Helvetica-6c" d="M 428 4591 
L 991 4591 
L 991 0 
L 428 0 
L 428 4591 
z
" transform="scale(0.015625)"/>
        <path id="Helvetica-61" d="M 844 891 
Q 844 647 1022 506 
Q 1200 366 1444 366 
Q 1741 366 2019 503 
Q 2488 731 2488 1250 
L 2488 1703 
Q 2384 1638 2221 1594 
Q 2059 1550 1903 1531 
L 1563 1488 
Q 1256 1447 1103 1359 
Q 844 1213 844 891 
z
M 2206 2028 
Q 2400 2053 2466 2191 
Q 2503 2266 2503 2406 
Q 2503 2694 2298 2823 
Q 2094 2953 1713 2953 
Q 1272 2953 1088 2716 
Q 984 2584 953 2325 
L 428 2325 
Q 444 2944 830 3186 
Q 1216 3428 1725 3428 
Q 2316 3428 2684 3203 
Q 3050 2978 3050 2503 
L 3050 575 
Q 3050 488 3086 434 
Q 3122 381 3238 381 
Q 3275 381 3322 386 
Q 3369 391 3422 400 
L 3422 -16 
Q 3291 -53 3222 -62 
Q 3153 -72 3034 -72 
Q 2744 -72 2613 134 
Q 2544 244 2516 444 
Q 2344 219 2022 53 
Q 1700 -113 1313 -113 
Q 847 -113 551 170 
Q 256 453 256 878 
Q 256 1344 547 1600 
Q 838 1856 1309 1916 
L 2206 2028 
z
M 1741 3428 
L 1741 3428 
z
" transform="scale(0.015625)"/>
        <path id="Helvetica-74" d="M 525 4281 
L 1094 4281 
L 1094 3347 
L 1628 3347 
L 1628 2888 
L 1094 2888 
L 1094 703 
Q 1094 528 1213 469 
Q 1278 434 1431 434 
Q 1472 434 1519 436 
Q 1566 438 1628 444 
L 1628 0 
Q 1531 -28 1426 -40 
Q 1322 -53 1200 -53 
Q 806 -53 665 148 
Q 525 350 525 672 
L 525 2888 
L 72 2888 
L 72 3347 
L 525 3347 
L 525 4281 
z
" transform="scale(0.015625)"/>
        <path id="Helvetica-65" d="M 1806 3422 
Q 2163 3422 2497 3255 
Q 2831 3088 3006 2822 
Q 3175 2569 3231 2231 
Q 3281 2000 3281 1494 
L 828 1494 
Q 844 984 1069 676 
Q 1294 369 1766 369 
Q 2206 369 2469 659 
Q 2619 828 2681 1050 
L 3234 1050 
Q 3213 866 3089 639 
Q 2966 413 2813 269 
Q 2556 19 2178 -69 
Q 1975 -119 1719 -119 
Q 1094 -119 659 336 
Q 225 791 225 1609 
Q 225 2416 662 2919 
Q 1100 3422 1806 3422 
z
M 2703 1941 
Q 2669 2306 2544 2525 
Q 2313 2931 1772 2931 
Q 1384 2931 1121 2651 
Q 859 2372 844 1941 
L 2703 1941 
z
M 1753 3428 
L 1753 3428 
z
" transform="scale(0.015625)"/>
        <path id="Helvetica-6e" d="M 413 3347 
L 947 3347 
L 947 2872 
Q 1184 3166 1450 3294 
Q 1716 3422 2041 3422 
Q 2753 3422 3003 2925 
Q 3141 2653 3141 2147 
L 3141 0 
L 2569 0 
L 2569 2109 
Q 2569 2416 2478 2603 
Q 2328 2916 1934 2916 
Q 1734 2916 1606 2875 
Q 1375 2806 1200 2600 
Q 1059 2434 1017 2257 
Q 975 2081 975 1753 
L 975 0 
L 413 0 
L 413 3347 
z
M 1734 3428 
L 1734 3428 
z
" transform="scale(0.015625)"/>
        <path id="Helvetica-63" d="M 1703 3444 
Q 2269 3444 2623 3169 
Q 2978 2894 3050 2222 
L 2503 2222 
Q 2453 2531 2275 2736 
Q 2097 2941 1703 2941 
Q 1166 2941 934 2416 
Q 784 2075 784 1575 
Q 784 1072 996 728 
Q 1209 384 1666 384 
Q 2016 384 2220 598 
Q 2425 813 2503 1184 
L 3050 1184 
Q 2956 519 2581 211 
Q 2206 -97 1622 -97 
Q 966 -97 575 383 
Q 184 863 184 1581 
Q 184 2463 612 2953 
Q 1041 3444 1703 3444 
z
M 1616 3428 
L 1616 3428 
z
" transform="scale(0.015625)"/>
        <path id="Helvetica-79" d="M 2503 3347 
L 3125 3347 
Q 3006 3025 2597 1878 
Q 2291 1016 2084 472 
Q 1597 -809 1397 -1090 
Q 1197 -1372 709 -1372 
Q 591 -1372 527 -1362 
Q 463 -1353 369 -1328 
L 369 -816 
Q 516 -856 581 -865 
Q 647 -875 697 -875 
Q 853 -875 926 -823 
Q 1000 -772 1050 -697 
Q 1066 -672 1162 -440 
Q 1259 -209 1303 -97 
L 66 3347 
L 703 3347 
L 1600 622 
L 2503 3347 
z
M 1597 3428 
L 1597 3428 
z
" transform="scale(0.015625)"/>
       </defs>
       <use xlink:href="#Helvetica-6c"/>
       <use xlink:href="#Helvetica-61" x="22.216797"/>
       <use xlink:href="#Helvetica-74" x="77.832031"/>
       <use xlink:href="#Helvetica-65" x="105.615234"/>
       <use xlink:href="#Helvetica-6e" x="161.230469"/>
       <use xlink:href="#Helvetica-63" x="216.845703"/>
       <use xlink:href="#Helvetica-79" x="266.845703"/>
      </g>
     </g>
    </g>
    <g id="xtick_8">
     <g id="line2d_26">
      <path d="M 309.323437 189.441767 
L 352.324363 57.098526 
" clip-path="url(#pab509af8bf)" style="fill: none; stroke: #e2e8f0; stroke-width: 0.8; stroke-linecap: square"/>
     </g>
     <g id="text_14">
      <!-- p99 -->
      <g style="fill: #4a5568" transform="translate(349.143336 41.235469) scale(0.09 -0.09)">
       <defs>
        <path id="Helvetica-39" d="M 850 1081 
Q 875 616 1209 438 
Q 1381 344 1597 344 
Q 2000 344 2284 680 
Q 2569 1016 2688 2044 
Q 2500 1747 2223 1626 
Q 1947 1506 1628 1506 
Q 981 1506 604 1909 
Q 228 2313 228 2947 
Q 228 3556 600 4018 
Q 972 4481 1697 4481 
Q 2675 4481 3047 3600 
Q 3253 3116 3253 2388 
Q 3253 1566 3006 931 
Q 2597 -125 1619 -125 
Q 963 -125 622 219 
Q 281 563 281 1081 
L 850 1081 
z
M 1703 2000 
Q 2038 2000 2314 2220 
Q 2591 2441 2591 2991 
Q 2591 3484 2342 3726 
Q 2094 3969 1709 3969 
Q 1297 3969 1055 3692 
Q 813 3416 813 2953 
Q 813 2516 1025 2258 
Q 1238 2000 1703 2000 
z
" transform="scale(0.015625)"/>
       </defs>
       <use xlink:href="#Helvetica-70"/>
       <use xlink:href="#Helvetica-39" x="55.615234"/>
       <use xlink:href="#Helvetica-39" x="111.230469"/>
      </g>
      <!-- latency -->
      <g style="fill: #4a5568" transform="translate(342.393336 50.858719) scale(0.09 -0.09)">
       <use xlink:href="#Helvetica-6c"/>
       <use xlink:href="#Helvetica-61" x="22.216797"/>
       <use xlink:href="#Helvetica-74" x="77.832031"/>
       <use xlink:href="#Helvetica-65" x="105.615234"/>
       <use xlink:href="#Helvetica-6e" x="161.230469"/>
       <use xlink:href="#Helvetica-63" x="216.845703"/>
       <use xlink:href="#Helvetica-79" x="266.845703"/>
      </g>
     </g>
    </g>
    <g id="xtick_9">
     <g id="line2d_27">
      <path d="M 309.323437 189.441767 
L 196.745552 107.649146 
" clip-path="url(#pab509af8bf)" style="fill: none; stroke: #e2e8f0; stroke-width: 0.8; stroke-linecap: square"/>
     </g>
     <g id="text_15">
      <!-- Throughput -->
      <g style="fill: #4a5568" transform="translate(162.40533 101.663121) scale(0.09 -0.09)">
       <defs>
        <path id="Helvetica-54" d="M 3828 4591 
L 3828 4044 
L 2281 4044 
L 2281 0 
L 1650 0 
L 1650 4044 
L 103 4044 
L 103 4591 
L 3828 4591 
z
" transform="scale(0.015625)"/>
        <path id="Helvetica-68" d="M 413 4606 
L 975 4606 
L 975 2894 
Q 1175 3147 1334 3250 
Q 1606 3428 2013 3428 
Q 2741 3428 3000 2919 
Q 3141 2641 3141 2147 
L 3141 0 
L 2563 0 
L 2563 2109 
Q 2563 2478 2469 2650 
Q 2316 2925 1894 2925 
Q 1544 2925 1259 2684 
Q 975 2444 975 1775 
L 975 0 
L 413 0 
L 413 4606 
z
" transform="scale(0.015625)"/>
        <path id="Helvetica-72" d="M 428 3347 
L 963 3347 
L 963 2769 
Q 1028 2938 1284 3180 
Q 1541 3422 1875 3422 
Q 1891 3422 1928 3419 
Q 1966 3416 2056 3406 
L 2056 2813 
Q 2006 2822 1964 2825 
Q 1922 2828 1872 2828 
Q 1447 2828 1219 2554 
Q 991 2281 991 1925 
L 991 0 
L 428 0 
L 428 3347 
z
" transform="scale(0.015625)"/>
        <path id="Helvetica-6f" d="M 1741 363 
Q 2300 363 2508 786 
Q 2716 1209 2716 1728 
Q 2716 2197 2566 2491 
Q 2328 2953 1747 2953 
Q 1231 2953 997 2559 
Q 763 2166 763 1609 
Q 763 1075 997 719 
Q 1231 363 1741 363 
z
M 1763 3444 
Q 2409 3444 2856 3012 
Q 3303 2581 3303 1744 
Q 3303 934 2909 406 
Q 2516 -122 1688 -122 
Q 997 -122 590 345 
Q 184 813 184 1600 
Q 184 2444 612 2944 
Q 1041 3444 1763 3444 
z
M 1744 3428 
L 1744 3428 
z
" transform="scale(0.015625)"/>
        <path id="Helvetica-75" d="M 975 3347 
L 975 1125 
Q 975 869 1056 706 
Q 1206 406 1616 406 
Q 2203 406 2416 931 
Q 2531 1213 2531 1703 
L 2531 3347 
L 3094 3347 
L 3094 0 
L 2563 0 
L 2569 494 
Q 2459 303 2297 172 
Q 1975 -91 1516 -91 
Q 800 -91 541 388 
Q 400 644 400 1072 
L 400 3347 
L 975 3347 
z
M 1747 3428 
L 1747 3428 
z
" transform="scale(0.015625)"/>
        <path id="Helvetica-67" d="M 1594 3406 
Q 1988 3406 2281 3213 
Q 2441 3103 2606 2894 
L 2606 3316 
L 3125 3316 
L 3125 272 
Q 3125 -366 2938 -734 
Q 2588 -1416 1616 -1416 
Q 1075 -1416 706 -1173 
Q 338 -931 294 -416 
L 866 -416 
Q 906 -641 1028 -763 
Q 1219 -950 1628 -950 
Q 2275 -950 2475 -494 
Q 2594 -225 2584 466 
Q 2416 209 2178 84 
Q 1941 -41 1550 -41 
Q 1006 -41 598 345 
Q 191 731 191 1622 
Q 191 2463 602 2934 
Q 1013 3406 1594 3406 
z
M 2606 1688 
Q 2606 2309 2350 2609 
Q 2094 2909 1697 2909 
Q 1103 2909 884 2353 
Q 769 2056 769 1575 
Q 769 1009 998 714 
Q 1228 419 1616 419 
Q 2222 419 2469 966 
Q 2606 1275 2606 1688 
z
M 1659 3428 
L 1659 3428 
z
" transform="scale(0.015625)"/>
       </defs>
       <use xlink:href="#Helvetica-54"/>
       <use xlink:href="#Helvetica-68" x="61.083984"/>
       <use xlink:href="#Helvetica-72" x="116.699219"/>
       <use xlink:href="#Helvetica-6f" x="150"/>
       <use xlink:href="#Helvetica-75" x="205.615234"/>
       <use xlink:href="#Helvetica-67" x="261.230469"/>
       <use xlink:href="#Helvetica-68" x="316.845703"/>
       <use xlink:href="#Helvetica-70" x="372.460938"/>
       <use xlink:href="#Helvetica-75" x="428.076172"/>
       <use xlink:href="#Helvetica-74" x="483.691406"/>
      </g>
     </g>
    </g>
    <g id="xtick_10">
     <g id="line2d_28">
      <path d="M 309.323437 189.441767 
L 196.745552 271.234389 
" clip-path="url(#pab509af8bf)" style="fill: none; stroke: #e2e8f0; stroke-width: 0.8; stroke-linecap: square"/>
     </g>
     <g id="text_16">
      <!-- Zero -->
      <g style="fill: #4a5568" transform="translate(176.167595 276.941835) scale(0.09 -0.09)">
       <defs>
        <path id="Helvetica-5a" d="M 147 516 
L 2963 4044 
L 353 4044 
L 353 4591 
L 3763 4591 
L 3763 4056 
L 931 547 
L 3763 547 
L 3763 0 
L 147 0 
L 147 516 
z
M 2059 4591 
L 2059 4591 
z
" transform="scale(0.015625)"/>
       </defs>
       <use xlink:href="#Helvetica-5a"/>
       <use xlink:href="#Helvetica-65" x="61.083984"/>
       <use xlink:href="#Helvetica-72" x="116.699219"/>
       <use xlink:href="#Helvetica-6f" x="150"/>
      </g>
      <!-- alloc -->
      <g style="fill: #4a5568" transform="translate(176.164783 286.565085) scale(0.09 -0.09)">
       <use xlink:href="#Helvetica-61"/>
       <use xlink:href="#Helvetica-6c" x="55.615234"/>
       <use xlink:href="#Helvetica-6c" x="77.832031"/>
       <use xlink:href="#Helvetica-6f" x="100.048828"/>
       <use xlink:href="#Helvetica-63" x="155.664062"/>
      </g>
     </g>
    </g>
    <g id="xtick_11">
     <g id="line2d_29">
      <path d="M 309.323437 189.441767 
L 352.324363 321.785009 
" clip-path="url(#pab509af8bf)" style="fill: none; stroke: #e2e8f0; stroke-width: 0.8; stroke-linecap: square"/>
     </g>
     <g id="text_17">
      <!-- Zero -->
      <g style="fill: #4a5568" transform="translate(347.398882 332.578253) scale(0.09 -0.09)">
       <use xlink:href="#Helvetica-5a"/>
       <use xlink:href="#Helvetica-65" x="61.083984"/>
       <use xlink:href="#Helvetica-72" x="116.699219"/>
       <use xlink:href="#Helvetica-6f" x="150"/>
      </g>
      <!-- locks -->
      <g style="fill: #4a5568" transform="translate(346.398336 342.201503) scale(0.09 -0.09)">
       <defs>
        <path id="Helvetica-6b" d="M 400 4591 
L 941 4591 
L 941 1925 
L 2384 3347 
L 3103 3347 
L 1822 2094 
L 3175 0 
L 2456 0 
L 1413 1688 
L 941 1256 
L 941 0 
L 400 0 
L 400 4591 
z
" transform="scale(0.015625)"/>
        <path id="Helvetica-73" d="M 747 1050 
Q 772 769 888 619 
Q 1100 347 1625 347 
Q 1938 347 2175 483 
Q 2413 619 2413 903 
Q 2413 1119 2222 1231 
Q 2100 1300 1741 1391 
L 1294 1503 
Q 866 1609 663 1741 
Q 300 1969 300 2372 
Q 300 2847 642 3140 
Q 984 3434 1563 3434 
Q 2319 3434 2653 2991 
Q 2863 2709 2856 2384 
L 2325 2384 
Q 2309 2575 2191 2731 
Q 1997 2953 1519 2953 
Q 1200 2953 1036 2831 
Q 872 2709 872 2509 
Q 872 2291 1088 2159 
Q 1213 2081 1456 2022 
L 1828 1931 
Q 2434 1784 2641 1647 
Q 2969 1431 2969 969 
Q 2969 522 2630 197 
Q 2291 -128 1597 -128 
Q 850 -128 539 211 
Q 228 550 206 1050 
L 747 1050 
z
M 1578 3428 
L 1578 3428 
z
" transform="scale(0.015625)"/>
       </defs>
       <use xlink:href="#Helvetica-6c"/>
       <use xlink:href="#Helvetica-6f" x="22.216797"/>
       <use xlink:href="#Helvetica-63" x="77.832031"/>
       <use xlink:href="#Helvetica-6b" x="127.832031"/>
       <use xlink:href="#Helvetica-73" x="177.832031"/>
      </g>
     </g>
    </g>
   </g>
   <g id="matplotlib.axis_4">
    <g id="ytick_7">
     <g id="line2d_30">
      <path d="M 378.900397 189.441767 
C 378.900397 180.305004 377.100654 171.257085 373.604166 162.815817 
C 370.107679 154.374549 364.982444 146.704094 358.521777 140.243427 
C 352.061111 133.78276 344.390655 128.657526 335.949387 125.161038 
C 327.508119 121.664551 318.4602 119.864808 309.323437 119.864808 
C 300.186675 119.864808 291.138756 121.664551 282.697488 125.161038 
C 274.25622 128.657526 266.585764 133.78276 260.125098 140.243427 
C 253.664431 146.704094 248.539196 154.374549 245.042709 162.815817 
C 241.546221 171.257085 239.746478 180.305004 239.746478 189.441767 
C 239.746478 198.57853 241.546221 207.626449 245.042709 216.067717 
C 248.539196 224.508985 253.664431 232.17944 260.125098 238.640107 
C 266.585764 245.100774 274.25622 250.226008 282.697488 253.722496 
C 291.138756 257.218984 300.186675 259.018727 309.323437 259.018727 
C 318.4602 259.018727 327.508119 257.218984 335.949387 253.722496 
C 344.390655 250.226008 352.061111 245.100774 358.521777 238.640107 
C 364.982444 232.17944 370.107679 224.508985 373.604166 216.067717 
C 377.100654 207.626449 378.900397 198.57853 378.900397 189.441767 
" clip-path="url(#pab509af8bf)" style="fill: none; stroke: #e2e8f0; stroke-width: 0.8; stroke-linecap: square"/>
     </g>
     <g id="text_18">
      <!-- 50 -->
      <g style="fill: #4a5568" transform="translate(373.604166 161.148317) scale(0.08 -0.08)">
       <use xlink:href="#Helvetica-35"/>
       <use xlink:href="#Helvetica-30" x="55.615234"/>
      </g>
     </g>
    </g>
    <g id="ytick_8">
     <g id="line2d_31">
      <path d="M 413.688877 189.441767 
C 413.688877 175.736623 410.989262 162.164745 405.744531 149.502843 
C 400.499799 136.840941 392.811948 125.335257 383.120947 115.644257 
C 373.429947 105.953257 361.924264 98.265405 349.262362 93.020674 
C 336.60046 87.775942 323.028581 85.076328 309.323437 85.076328 
C 295.618294 85.076328 282.046415 87.775942 269.384513 93.020674 
C 256.722611 98.265405 245.216928 105.953257 235.525928 115.644257 
C 225.834927 125.335257 218.147076 136.840941 212.902344 149.502843 
C 207.657613 162.164745 204.957998 175.736623 204.957998 189.441767 
C 204.957998 203.146911 207.657613 216.71879 212.902344 229.380692 
C 218.147076 242.042594 225.834927 253.548277 235.525928 263.239277 
C 245.216928 272.930277 256.722611 280.618129 269.384513 285.86286 
C 282.046415 291.107592 295.618294 293.807206 309.323437 293.807206 
C 323.028581 293.807206 336.60046 291.107592 349.262362 285.86286 
C 361.924264 280.618129 373.429947 272.930277 383.120947 263.239277 
C 392.811948 253.548277 400.499799 242.042594 405.744531 229.380692 
C 410.989262 216.71879 413.688877 203.146911 413.688877 189.441767 
" clip-path="url(#pab509af8bf)" style="fill: none; stroke: #e2e8f0; stroke-width: 0.8; stroke-linecap: square"/>
     </g>
     <g id="text_19">
      <!-- 75 -->
      <g style="fill: #4a5568" transform="translate(405.744531 147.835343) scale(0.08 -0.08)">
       <defs>
        <path id="Helvetica-37" d="M 3347 4400 
L 3347 3909 
Q 3131 3700 2773 3181 
Q 2416 2663 2141 2063 
Q 1869 1478 1728 997 
Q 1638 688 1494 0 
L 872 0 
Q 1084 1281 1809 2550 
Q 2238 3294 2709 3834 
L 234 3834 
L 234 4400 
L 3347 4400 
z
" transform="scale(0.015625)"/>
       </defs>
       <use xlink:href="#Helvetica-37"/>
       <use xlink:href="#Helvetica-35" x="55.615234"/>
      </g>
     </g>
    </g>
    <g id="ytick_9">
     <g id="line2d_32">
      <path d="M 448.477357 189.441767 
C 448.477357 171.168242 444.877871 153.072404 437.884895 136.189868 
C 430.89192 119.307332 420.641451 103.966421 407.720117 91.045087 
C 394.798784 78.123754 379.457873 67.873285 362.575337 60.880309 
C 345.692801 53.887334 327.596963 50.287848 309.323437 50.287848 
C 291.049912 50.287848 272.954074 53.887334 256.071538 60.880309 
C 239.189002 67.873285 223.848091 78.123754 210.926758 91.045087 
C 198.005424 103.966421 187.754955 119.307332 180.76198 136.189868 
C 173.769004 153.072404 170.169518 171.168242 170.169518 189.441767 
C 170.169518 207.715292 173.769004 225.811131 180.76198 242.693666 
C 187.754955 259.576202 198.005424 274.917113 210.926758 287.838447 
C 223.848091 300.75978 239.189002 311.010249 256.071538 318.003225 
C 272.954074 324.9962 291.049912 328.595686 309.323437 328.595686 
C 327.596963 328.595686 345.692801 324.9962 362.575337 318.003225 
C 379.457873 311.010249 394.798784 300.75978 407.720117 287.838447 
C 420.641451 274.917113 430.89192 259.576202 437.884895 242.693666 
C 444.877871 225.811131 448.477357 207.715292 448.477357 189.441767 
" clip-path="url(#pab509af8bf)" style="fill: none; stroke: #e2e8f0; stroke-width: 0.8; stroke-linecap: square"/>
     </g>
     <g id="text_20">
      <!-- 100 -->
      <g style="fill: #4a5568" transform="translate(437.884895 134.522368) scale(0.08 -0.08)">
       <use xlink:href="#Helvetica-31"/>
       <use xlink:href="#Helvetica-30" x="55.615234"/>
       <use xlink:href="#Helvetica-30" x="111.230469"/>
      </g>
     </g>
    </g>
   </g>
   <g id="patch_6">
    <path d="M 448.477357 189.441767 
L 345.874224 76.950012 
L 196.745552 107.649146 
L 196.745552 271.234389 
L 352.324363 321.785009 
z
" clip-path="url(#pab509af8bf)" style="fill: #1f4e79; opacity: 0.25; stroke: #1f4e79; stroke-linejoin: miter"/>
   </g>
   <g id="line2d_33">
    <path d="M 448.477357 189.441767 
L 345.874224 76.950012 
L 196.745552 107.649146 
L 196.745552 271.234389 
L 352.324363 321.785009 
L 448.477357 189.441767 
" clip-path="url(#pab509af8bf)" style="fill: none; stroke: #1f4e79; stroke-width: 2; stroke-linecap: square"/>
   </g>
   <g id="patch_7">
    <path d="M 448.477357 189.441767 
C 448.477357 171.168242 444.877871 153.072404 437.884895 136.189868 
C 430.89192 119.307332 420.641451 103.966421 407.720117 91.045087 
C 394.798784 78.123754 379.457873 67.873285 362.575337 60.880309 
C 345.692801 53.887334 327.596963 50.287848 309.323437 50.287848 
C 291.049912 50.287848 272.954074 53.887334 256.071538 60.880309 
C 239.189002 67.873285 223.848091 78.123754 210.926758 91.045087 
C 198.005424 103.966421 187.754955 119.307332 180.76198 136.189868 
C 173.769004 153.072404 170.169518 171.168242 170.169518 189.441767 
C 170.169518 207.715292 173.769004 225.811131 180.76198 242.693666 
C 187.754955 259.576202 198.005424 274.917113 210.926758 287.838447 
C 223.848091 300.75978 239.189002 311.010249 256.071538 318.003225 
C 272.954074 324.9962 291.049912 328.595686 309.323437 328.595686 
C 327.596963 328.595686 345.692801 324.9962 362.575337 318.003225 
C 379.457873 311.010249 394.798784 300.75978 407.720117 287.838447 
C 420.641451 274.917113 430.89192 259.576202 437.884895 242.693666 
C 444.877871 225.811131 448.477357 207.715292 448.477357 189.441767 
" style="fill: none; stroke: #4a5568; stroke-width: 0.8; stroke-linejoin: miter; stroke-linecap: square"/>
   </g>
   <g id="text_21">
    <!-- Design Target Compliance Scorecard -->
    <g style="fill: #0b1f3a" transform="translate(200.947109 16.779375) scale(0.13 -0.13)">
     <defs>
      <path id="Helvetica-44" d="M 2250 531 
Q 2566 531 2769 597 
Q 3131 719 3363 1066 
Q 3547 1344 3628 1778 
Q 3675 2038 3675 2259 
Q 3675 3113 3336 3584 
Q 2997 4056 2244 4056 
L 1141 4056 
L 1141 531 
L 2250 531 
z
M 516 4591 
L 2375 4591 
Q 3322 4591 3844 3919 
Q 4309 3313 4309 2366 
Q 4309 1634 4034 1044 
Q 3550 0 2369 0 
L 516 0 
L 516 4591 
z
" transform="scale(0.015625)"/>
      <path id="Helvetica-69" d="M 413 3331 
L 984 3331 
L 984 0 
L 413 0 
L 413 3331 
z
M 413 4591 
L 984 4591 
L 984 3953 
L 413 3953 
L 413 4591 
z
" transform="scale(0.015625)"/>
      <path id="Helvetica-20" transform="scale(0.015625)"/>
      <path id="Helvetica-43" d="M 2422 4716 
Q 3294 4716 3775 4256 
Q 4256 3797 4309 3213 
L 3703 3213 
Q 3600 3656 3292 3915 
Q 2984 4175 2428 4175 
Q 1750 4175 1333 3698 
Q 916 3222 916 2238 
Q 916 1431 1292 929 
Q 1669 428 2416 428 
Q 3103 428 3463 956 
Q 3653 1234 3747 1688 
L 4353 1688 
Q 4272 963 3816 472 
Q 3269 -119 2341 -119 
Q 1541 -119 997 366 
Q 281 1006 281 2344 
Q 281 3359 819 4009 
Q 1400 4716 2422 4716 
z
M 2297 4716 
L 2297 4716 
z
" transform="scale(0.015625)"/>
      <path id="Helvetica-6d" d="M 413 3347 
L 969 3347 
L 969 2872 
Q 1169 3119 1331 3231 
Q 1609 3422 1963 3422 
Q 2363 3422 2606 3225 
Q 2744 3113 2856 2894 
Q 3044 3163 3297 3292 
Q 3550 3422 3866 3422 
Q 4541 3422 4784 2934 
Q 4916 2672 4916 2228 
L 4916 0 
L 4331 0 
L 4331 2325 
Q 4331 2659 4164 2784 
Q 3997 2909 3756 2909 
Q 3425 2909 3186 2687 
Q 2947 2466 2947 1947 
L 2947 0 
L 2375 0 
L 2375 2184 
Q 2375 2525 2294 2681 
Q 2166 2916 1816 2916 
Q 1497 2916 1236 2669 
Q 975 2422 975 1775 
L 975 0 
L 413 0 
L 413 3347 
z
" transform="scale(0.015625)"/>
      <path id="Helvetica-53" d="M 894 1481 
Q 916 1091 1078 847 
Q 1388 391 2169 391 
Q 2519 391 2806 491 
Q 3363 684 3363 1184 
Q 3363 1559 3128 1719 
Q 2891 1875 2384 1991 
L 1763 2131 
Q 1153 2269 900 2434 
Q 463 2722 463 3294 
Q 463 3913 891 4309 
Q 1319 4706 2103 4706 
Q 2825 4706 3329 4357 
Q 3834 4009 3834 3244 
L 3250 3244 
Q 3203 3613 3050 3809 
Q 2766 4169 2084 4169 
Q 1534 4169 1293 3937 
Q 1053 3706 1053 3400 
Q 1053 3063 1334 2906 
Q 1519 2806 2169 2656 
L 2813 2509 
Q 3278 2403 3531 2219 
Q 3969 1897 3969 1284 
Q 3969 522 3414 194 
Q 2859 -134 2125 -134 
Q 1269 -134 784 303 
Q 300 738 309 1481 
L 894 1481 
z
M 2150 4716 
L 2150 4716 
z
" transform="scale(0.015625)"/>
      <path id="Helvetica-64" d="M 769 1634 
Q 769 1097 997 734 
Q 1225 372 1728 372 
Q 2119 372 2370 708 
Q 2622 1044 2622 1672 
Q 2622 2306 2362 2611 
Q 2103 2916 1722 2916 
Q 1297 2916 1033 2591 
Q 769 2266 769 1634 
z
M 1616 3406 
Q 2000 3406 2259 3244 
Q 2409 3150 2600 2916 
L 2600 4606 
L 3141 4606 
L 3141 0 
L 2634 0 
L 2634 466 
Q 2438 156 2169 18 
Q 1900 -119 1553 -119 
Q 994 -119 584 351 
Q 175 822 175 1603 
Q 175 2334 548 2870 
Q 922 3406 1616 3406 
z
" transform="scale(0.015625)"/>
     </defs>
     <use xlink:href="#Helvetica-44"/>
     <use xlink:href="#Helvetica-65" x="72.216797"/>
     <use xlink:href="#Helvetica-73" x="127.832031"/>
     <use xlink:href="#Helvetica-69" x="177.832031"/>
     <use xlink:href="#Helvetica-67" x="200.048828"/>
     <use xlink:href="#Helvetica-6e" x="255.664062"/>
     <use xlink:href="#Helvetica-20" x="311.279297"/>
     <use xlink:href="#Helvetica-54" x="339.0625"/>
     <use xlink:href="#Helvetica-61" x="400.146484"/>
     <use xlink:href="#Helvetica-72" x="455.761719"/>
     <use xlink:href="#Helvetica-67" x="489.0625"/>
     <use xlink:href="#Helvetica-65" x="544.677734"/>
     <use xlink:href="#Helvetica-74" x="600.292969"/>
     <use xlink:href="#Helvetica-20" x="628.076172"/>
     <use xlink:href="#Helvetica-43" x="655.859375"/>
     <use xlink:href="#Helvetica-6f" x="728.076172"/>
     <use xlink:href="#Helvetica-6d" x="783.691406"/>
     <use xlink:href="#Helvetica-70" x="866.992188"/>
     <use xlink:href="#Helvetica-6c" x="922.607422"/>
     <use xlink:href="#Helvetica-69" x="944.824219"/>
     <use xlink:href="#Helvetica-61" x="967.041016"/>
     <use xlink:href="#Helvetica-6e" x="1022.65625"/>
     <use xlink:href="#Helvetica-63" x="1078.271484"/>
     <use xlink:href="#Helvetica-65" x="1128.271484"/>
     <use xlink:href="#Helvetica-20" x="1183.886719"/>
     <use xlink:href="#Helvetica-53" x="1211.669922"/>
     <use xlink:href="#Helvetica-63" x="1278.369141"/>
     <use xlink:href="#Helvetica-6f" x="1328.369141"/>
     <use xlink:href="#Helvetica-72" x="1383.984375"/>
     <use xlink:href="#Helvetica-65" x="1417.285156"/>
     <use xlink:href="#Helvetica-63" x="1472.900391"/>
     <use xlink:href="#Helvetica-61" x="1522.900391"/>
     <use xlink:href="#Helvetica-72" x="1578.515625"/>
     <use xlink:href="#Helvetica-64" x="1611.816406"/>
    </g>
   </g>
  </g>
 </g>
 <defs>
  <clipPath id="p69794563e2">
   <rect x="28.1" y="50.287848" width="562.446875" height="278.307838"/>
  </clipPath>
  <clipPath id="pab509af8bf">
   <path d="M 448.477357 189.441767 
C 448.477357 171.168242 444.877871 153.072404 437.884895 136.189868 
C 430.89192 119.307332 420.641451 103.966421 407.720117 91.045087 
C 394.798784 78.123754 379.457873 67.873285 362.575337 60.880309 
C 345.692801 53.887334 327.596963 50.287848 309.323437 50.287848 
C 291.049912 50.287848 272.954074 53.887334 256.071538 60.880309 
C 239.189002 67.873285 223.848091 78.123754 210.926758 91.045087 
C 198.005424 103.966421 187.754955 119.307332 180.76198 136.189868 
C 173.769004 153.072404 170.169518 171.168242 170.169518 189.441767 
C 170.169518 207.715292 173.769004 225.811131 180.76198 242.693666 
C 187.754955 259.576202 198.005424 274.917113 210.926758 287.838447 
C 223.848091 300.75978 239.189002 311.010249 256.071538 318.003225 
C 272.954074 324.9962 291.049912 328.595686 309.323437 328.595686 
C 327.596963 328.595686 345.692801 324.9962 362.575337 318.003225 
C 379.457873 311.010249 394.798784 300.75978 407.720117 287.838447 
C 420.641451 274.917113 430.89192 259.576202 437.884895 242.693666 
C 444.877871 225.811131 448.477357 207.715292 448.477357 189.441767 
M 309.323437 189.441767 
C 309.323437 189.441767 309.323437 189.441767 309.323437 189.441767 
C 309.323437 189.441767 309.323437 189.441767 309.323437 189.441767 
C 309.323437 189.441767 309.323437 189.441767 309.323437 189.441767 
C 309.323437 189.441767 309.323437 189.441767 309.323437 189.441767 
C 309.323437 189.441767 309.323437 189.441767 309.323437 189.441767 
C 309.323437 189.441767 309.323437 189.441767 309.323437 189.441767 
C 309.323437 189.441767 309.323437 189.441767 309.323437 189.441767 
C 309.323437 189.441767 309.323437 189.441767 309.323437 189.441767 
C 309.323437 189.441767 309.323437 189.441767 309.323437 189.441767 
C 309.323437 189.441767 309.323437 189.441767 309.323437 189.441767 
C 309.323437 189.441767 309.323437 189.441767 309.323437 189.441767 
C 309.323437 189.441767 309.323437 189.441767 309.323437 189.441767 
C 309.323437 189.441767 309.323437 189.441767 309.323437 189.441767 
C 309.323437 189.441767 309.323437 189.441767 309.323437 189.441767 
C 309.323437 189.441767 309.323437 189.441767 309.323437 189.441767 
C 309.323437 189.441767 309.323437 189.441767 309.323437 189.441767 
z
"/>
  </clipPath>
 </defs>
</svg>
