<?xml version="1.0" encoding="utf-8" standalone="no"?>
<!DOCTYPE svg PUBLIC "-//W3C//DTD SVG 1.1//EN"
  "http://www.w3.org/Graphics/SVG/1.1/DTD/svg11.dtd">
<svg xmlns:xlink="http://www.w3.org/1999/xlink" width="640.726562pt" height="366.749062pt" viewBox="0 0 640.726562 366.749062" xmlns="http://www.w3.org/2000/svg" version="1.1">
 <metadata>
  <rdf:RDF xmlns:dc="http://purl.org/dc/elements/1.1/" xmlns:cc="http://creativecommons.org/ns#" xmlns:rdf="http://www.w3.org/1999/02/22-rdf-syntax-ns#">
   <cc:Work>
    <dc:type rdf:resource="http://purl.org/dc/dcmitype/StillImage"/>
    <dc:date>2026-07-12T11:34:36.008714</dc:date>
    <dc:format>image/svg+xml</dc:format>
    <dc:creator>
     <cc:Agent>
      <dc:title>Matplotlib v3.9.4, https://matplotlib.org/</dc:title>
     </cc:Agent>
    </dc:creator>
   </cc:Work>
  </rdf:RDF>
 </metadata>
 <defs>
  <style type="text/css">*{stroke-linejoin: round; stroke-linecap: butt}</style>
 </defs>
 <g id="figure_1">
  <g id="patch_1">
   <path d="M 0 366.749062 
L 640.726562 366.749062 
L 640.726562 0 
L 0 0 
z
" style="fill: #ffffff"/>
  </g>
  <g id="axes_1">
   <g id="patch_2">
    <path d="M 47.095313 343.29125 
L 633.526562 343.29125 
L 633.526562 29.51625 
L 47.095313 29.51625 
z
" style="fill: #f7f9fc"/>
   </g>
   <g id="matplotlib.axis_1">
    <g id="xtick_1">
     <g id="line2d_1">
      <path d="M 142.859338 343.29125 
L 142.859338 29.51625 
" clip-path="url(#p7c1b874c15)" style="fill: none; stroke: #e2e8f0; stroke-width: 0.8; stroke-linecap: square"/>
     </g>
     <g id="line2d_2">
      <defs>
       <path id="mbc75ad1d47" d="M 0 0 
L 0 3.5 
" style="stroke: #4a5568; stroke-width: 0.8"/>
      </defs>
      <g>
       <use xlink:href="#mbc75ad1d47" x="142.859338" y="343.29125" style="fill: #4a5568; stroke: #4a5568; stroke-width: 0.8"/>
      </g>
     </g>
     <g id="text_1">
      <!-- p50 -->
      <g style="fill: #4a5568" transform="translate(134.517932 357.464687) scale(0.1 -0.1)">
       <defs>
        <path id="Helvetica-70" d="M 1825 378 
Q 2219 378 2480 708 
Q 2741 1038 2741 1694 
Q 2741 2094 2625 2381 
Q 2406 2934 1825 2934 
Q 1241 2934 1025 2350 
Q 909 2038 909 1556 
Q 909 1169 1025 897 
Q 1244 378 1825 378 
z
M 369 3331 
L 916 3331 
L 916 2888 
Q 1084 3116 1284 3241 
Q 1569 3428 1953 3428 
Q 2522 3428 2919 2992 
Q 3316 2556 3316 1747 
Q 3316 653 2744 184 
Q 2381 -113 1900 -113 
Q 1522 -113 1266 53 
Q 1116 147 931 375 
L 931 -1334 
L 369 -1334 
L 369 3331 
z
" transform="scale(0.015625)"/>
        <path id="Helvetica-35" d="M 791 1141 
Q 847 659 1238 475 
Q 1438 381 1700 381 
Q 2200 381 2440 700 
Q 2681 1019 2681 1406 
Q 2681 1875 2395 2131 
Q 2109 2388 1709 2388 
Q 1419 2388 1211 2275 
Q 1003 2163 856 1963 
L 369 1991 
L 709 4400 
L 3034 4400 
L 3034 3856 
L 1131 3856 
L 941 2613 
Q 1097 2731 1238 2791 
Q 1488 2894 1816 2894 
Q 2431 2894 2859 2497 
Q 3288 2100 3288 1491 
Q 3288 856 2895 371 
Q 2503 -113 1644 -113 
Q 1097 -113 676 195 
Q 256 503 206 1141 
L 791 1141 
z
" transform="scale(0.015625)"/>
        <path id="Helvetica-30" d="M 1731 4475 
Q 2600 4475 2988 3759 
Q 3288 3206 3288 2244 
Q 3288 1331 3016 734 
Q 2622 -122 1728 -122 
Q 922 -122 528 578 
Q 200 1163 200 2147 
Q 200 2909 397 3456 
Q 766 4475 1731 4475 
z
M 1725 391 
Q 2163 391 2422 778 
Q 2681 1166 2681 2222 
Q 2681 2984 2493 3476 
Q 2306 3969 1766 3969 
Q 1269 3969 1039 3501 
Q 809 3034 809 2125 
Q 809 1441 956 1025 
Q 1181 391 1725 391 
z
" transform="scale(0.015625)"/>
       </defs>
       <use xlink:href="#Helvetica-70"/>
       <use xlink:href="#Helvetica-35" x="55.615234"/>
       <use xlink:href="#Helvetica-30" x="111.230469"/>
      </g>
     </g>
    </g>
    <g id="xtick_2">
     <g id="line2d_3">
      <path d="M 340.310938 343.29125 
L 340.310938 29.51625 
" clip-path="url(#p7c1b874c15)" style="fill: none; stroke: #e2e8f0; stroke-width: 0.8; stroke-linecap: square"/>
     </g>
     <g id="line2d_4">
      <g>
       <use xlink:href="#mbc75ad1d47" x="340.310938" y="343.29125" style="fill: #4a5568; stroke: #4a5568; stroke-width: 0.8"/>
      </g>
     </g>
     <g id="text_2">
      <!-- p99 -->
      <g style="fill: #4a5568" transform="translate(331.969531 357.464687) scale(0.1 -0.1)">
       <defs>
        <path id="Helvetica-39" d="M 850 1081 
Q 875 616 1209 438 
Q 1381 344 1597 344 
Q 2000 344 2284 680 
Q 2569 1016 2688 2044 
Q 2500 1747 2223 1626 
Q 1947 1506 1628 1506 
Q 981 1506 604 1909 
Q 228 2313 228 2947 
Q 228 3556 600 4018 
Q 972 4481 1697 4481 
Q 2675 4481 3047 3600 
Q 3253 3116 3253 2388 
Q 3253 1566 3006 931 
Q 2597 -125 1619 -125 
Q 963 -125 622 219 
Q 281 563 281 1081 
L 850 1081 
z
M 1703 2000 
Q 2038 2000 2314 2220 
Q 2591 2441 2591 2991 
Q 2591 3484 2342 3726 
Q 2094 3969 1709 3969 
Q 1297 3969 1055 3692 
Q 813 3416 813 2953 
Q 813 2516 1025 2258 
Q 1238 2000 1703 2000 
z
" transform="scale(0.015625)"/>
       </defs>
       <use xlink:href="#Helvetica-70"/>
       <use xlink:href="#Helvetica-39" x="55.615234"/>
       <use xlink:href="#Helvetica-39" x="111.230469"/>
      </g>
     </g>
    </g>
    <g id="xtick_3">
     <g id="line2d_5">
      <path d="M 537.762537 343.29125 
L 537.762537 29.51625 
" clip-path="url(#p7c1b874c15)" style="fill: none; stroke: #e2e8f0; stroke-width: 0.8; stroke-linecap: square"/>
     </g>
     <g id="line2d_6">
      <g>
       <use xlink:href="#mbc75ad1d47" x="537.762537" y="343.29125" style="fill: #4a5568; stroke: #4a5568; stroke-width: 0.8"/>
      </g>
     </g>
     <g id="text_3">
      <!-- p999 -->
      <g style="fill: #4a5568" transform="translate(526.640662 357.464687) scale(0.1 -0.1)">
       <use xlink:href="#Helvetica-70"/>
       <use xlink:href="#Helvetica-39" x="55.615234"/>
       <use xlink:href="#Helvetica-39" x="111.230469"/>
       <use xlink:href="#Helvetica-39" x="166.845703"/>
      </g>
     </g>
    </g>
   </g>
   <g id="matplotlib.axis_2">
    <g id="ytick_1">
     <g id="line2d_7">
      <path d="M 47.095313 343.29125 
L 633.526562 343.29125 
" clip-path="url(#p7c1b874c15)" style="fill: none; stroke: #e2e8f0; stroke-width: 0.8; stroke-linecap: square"/>
     </g>
     <g id="line2d_8">
      <defs>
       <path id="m9793054376" d="M 0 0 
L -3.5 0 
" style="stroke: #4a5568; stroke-width: 0.8"/>
      </defs>
      <g>
       <use xlink:href="#m9793054376" x="47.095313" y="343.29125" style="fill: #4a5568; stroke: #4a5568; stroke-width: 0.8"/>
      </g>
     </g>
     <g id="text_4">
      <!-- 0.0 -->
      <g style="fill: #4a5568" transform="translate(26.195313 346.877969) scale(0.1 -0.1)">
       <defs>
        <path id="Helvetica-2e" d="M 547 681 
L 1200 681 
L 1200 0 
L 547 0 
L 547 681 
z
" transform="scale(0.015625)"/>
       </defs>
       <use xlink:href="#Helvetica-30"/>
       <use xlink:href="#Helvetica-2e" x="55.615234"/>
       <use xlink:href="#Helvetica-30" x="83.398438"/>
      </g>
     </g>
    </g>
    <g id="ytick_2">
     <g id="line2d_9">
      <path d="M 47.095313 307.43125 
L 633.526562 307.43125 
" clip-path="url(#p7c1b874c15)" style="fill: none; stroke: #e2e8f0; stroke-width: 0.8; stroke-linecap: square"/>
     </g>
     <g id="line2d_10">
      <g>
       <use xlink:href="#m9793054376" x="47.095313" y="307.43125" style="fill: #4a5568; stroke: #4a5568; stroke-width: 0.8"/>
      </g>
     </g>
     <g id="text_5">
      <!-- 2.5 -->
      <g style="fill: #4a5568" transform="translate(26.195313 311.017969) scale(0.1 -0.1)">
       <defs>
        <path id="Helvetica-32" d="M 200 0 
Q 231 578 439 1006 
Q 647 1434 1250 1784 
L 1850 2131 
Q 2253 2366 2416 2531 
Q 2672 2791 2672 3125 
Q 2672 3516 2437 3745 
Q 2203 3975 1813 3975 
Q 1234 3975 1013 3538 
Q 894 3303 881 2888 
L 309 2888 
Q 319 3472 525 3841 
Q 891 4491 1816 4491 
Q 2584 4491 2939 4075 
Q 3294 3659 3294 3150 
Q 3294 2613 2916 2231 
Q 2697 2009 2131 1694 
L 1703 1456 
Q 1397 1288 1222 1134 
Q 909 863 828 531 
L 3272 531 
L 3272 0 
L 200 0 
z
" transform="scale(0.015625)"/>
       </defs>
       <use xlink:href="#Helvetica-32"/>
       <use xlink:href="#Helvetica-2e" x="55.615234"/>
       <use xlink:href="#Helvetica-35" x="83.398438"/>
      </g>
     </g>
    </g>
    <g id="ytick_3">
     <g id="line2d_11">
      <path d="M 47.095313 271.57125 
L 633.526562 271.57125 
" clip-path="url(#p7c1b874c15)" style="fill: none; stroke: #e2e8f0; stroke-width: 0.8; stroke-linecap: square"/>
     </g>
     <g id="line2d_12">
      <g>
       <use xlink:href="#m9793054376" x="47.095313" y="271.57125" style="fill: #4a5568; stroke: #4a5568; stroke-width: 0.8"/>
      </g>
     </g>
     <g id="text_6">
      <!-- 5.0 -->
      <g style="fill: #4a5568" transform="translate(26.195313 275.157969) scale(0.1 -0.1)">
       <use xlink:href="#Helvetica-35"/>
       <use xlink:href="#Helvetica-2e" x="55.615234"/>
       <use xlink:href="#Helvetica-30" x="83.398438"/>
      </g>
     </g>
    </g>
    <g id="ytick_4">
     <g id="line2d_13">
      <path d="M 47.095313 235.71125 
L 633.526562 235.71125 
" clip-path="url(#p7c1b874c15)" style="fill: none; stroke: #e2e8f0; stroke-width: 0.8; stroke-linecap: square"/>
     </g>
     <g id="line2d_14">
      <g>
       <use xlink:href="#m9793054376" x="47.095313" y="235.71125" style="fill: #4a5568; stroke: #4a5568; stroke-width: 0.8"/>
      </g>
     </g>
     <g id="text_7">
      <!-- 7.5 -->
      <g style="fill: #4a5568" transform="translate(26.195313 239.297969) scale(0.1 -0.1)">
       <defs>
        <path id="Helvetica-37" d="M 3347 4400 
L 3347 3909 
Q 3131 3700 2773 3181 
Q 2416 2663 2141 2063 
Q 1869 1478 1728 997 
Q 1638 688 1494 0 
L 872 0 
Q 1084 1281 1809 2550 
Q 2238 3294 2709 3834 
L 234 3834 
L 234 4400 
L 3347 4400 
z
" transform="scale(0.015625)"/>
       </defs>
       <use xlink:href="#Helvetica-37"/>
       <use xlink:href="#Helvetica-2e" x="55.615234"/>
       <use xlink:href="#Helvetica-35" x="83.398438"/>
      </g>
     </g>
    </g>
    <g id="ytick_5">
     <g id="line2d_15">
      <path d="M 47.095313 199.85125 
L 633.526562 199.85125 
" clip-path="url(#p7c1b874c15)" style="fill: none; stroke: #e2e8f0; stroke-width: 0.8; stroke-linecap: square"/>
     </g>
     <g id="line2d_16">
      <g>
       <use xlink:href="#m9793054376" x="47.095313" y="199.85125" style="fill: #4a5568; stroke: #4a5568; stroke-width: 0.8"/>
      </g>
     </g>
     <g id="text_8">
      <!-- 10.0 -->
      <g style="fill: #4a5568" transform="translate(20.634375 203.437969) scale(0.1 -0.1)">
       <defs>
        <path id="Helvetica-31" d="M 613 3169 
L 613 3600 
Q 1222 3659 1462 3798 
Q 1703 3938 1822 4456 
L 2266 4456 
L 2266 0 
L 1666 0 
L 1666 3169 
L 613 3169 
z
" transform="scale(0.015625)"/>
       </defs>
       <use xlink:href="#Helvetica-31"/>
       <use xlink:href="#Helvetica-30" x="55.615234"/>
       <use xlink:href="#Helvetica-2e" x="111.230469"/>
       <use xlink:href="#Helvetica-30" x="139.013672"/>
      </g>
     </g>
    </g>
    <g id="ytick_6">
     <g id="line2d_17">
      <path d="M 47.095313 163.99125 
L 633.526562 163.99125 
" clip-path="url(#p7c1b874c15)" style="fill: none; stroke: #e2e8f0; stroke-width: 0.8; stroke-linecap: square"/>
     </g>
     <g id="line2d_18">
      <g>
       <use xlink:href="#m9793054376" x="47.095313" y="163.99125" style="fill: #4a5568; stroke: #4a5568; stroke-width: 0.8"/>
      </g>
     </g>
     <g id="text_9">
      <!-- 12.5 -->
      <g style="fill: #4a5568" transform="translate(20.634375 167.577969) scale(0.1 -0.1)">
       <use xlink:href="#Helvetica-31"/>
       <use xlink:href="#Helvetica-32" x="55.615234"/>
       <use xlink:href="#Helvetica-2e" x="111.230469"/>
       <use xlink:href="#Helvetica-35" x="139.013672"/>
      </g>
     </g>
    </g>
    <g id="ytick_7">
     <g id="line2d_19">
      <path d="M 47.095313 128.13125 
L 633.526562 128.13125 
" clip-path="url(#p7c1b874c15)" style="fill: none; stroke: #e2e8f0; stroke-width: 0.8; stroke-linecap: square"/>
     </g>
     <g id="line2d_20">
      <g>
       <use xlink:href="#m9793054376" x="47.095313" y="128.13125" style="fill: #4a5568; stroke: #4a5568; stroke-width: 0.8"/>
      </g>
     </g>
     <g id="text_10">
      <!-- 15.0 -->
      <g style="fill: #4a5568" transform="translate(20.634375 131.717969) scale(0.1 -0.1)">
       <use xlink:href="#Helvetica-31"/>
       <use xlink:href="#Helvetica-35" x="55.615234"/>
       <use xlink:href="#Helvetica-2e" x="111.230469"/>
       <use xlink:href="#Helvetica-30" x="139.013672"/>
      </g>
     </g>
    </g>
    <g id="ytick_8">
     <g id="line2d_21">
      <path d="M 47.095313 92.27125 
L 633.526562 92.27125 
" clip-path="url(#p7c1b874c15)" style="fill: none; stroke: #e2e8f0; stroke-width: 0.8; stroke-linecap: square"/>
     </g>
     <g id="line2d_22">
      <g>
       <use xlink:href="#m9793054376" x="47.095313" y="92.27125" style="fill: #4a5568; stroke: #4a5568; stroke-width: 0.8"/>
      </g>
     </g>
     <g id="text_11">
      <!-- 17.5 -->
      <g style="fill: #4a5568" transform="translate(20.634375 95.857969) scale(0.1 -0.1)">
       <use xlink:href="#Helvetica-31"/>
       <use xlink:href="#Helvetica-37" x="55.615234"/>
       <use xlink:href="#Helvetica-2e" x="111.230469"/>
       <use xlink:href="#Helvetica-35" x="139.013672"/>
      </g>
     </g>
    </g>
    <g id="ytick_9">
     <g id="line2d_23">
      <path d="M 47.095313 56.41125 
L 633.526562 56.41125 
" clip-path="url(#p7c1b874c15)" style="fill: none; stroke: #e2e8f0; stroke-width: 0.8; stroke-linecap: square"/>
     </g>
     <g id="line2d_24">
      <g>
       <use xlink:href="#m9793054376" x="47.095313" y="56.41125" style="fill: #4a5568; stroke: #4a5568; stroke-width: 0.8"/>
      </g>
     </g>
     <g id="text_12">
      <!-- 20.0 -->
      <g style="fill: #4a5568" transform="translate(20.634375 59.997969) scale(0.1 -0.1)">
       <use xlink:href="#Helvetica-32"/>
       <use xlink:href="#Helvetica-30" x="55.615234"/>
       <use xlink:href="#Helvetica-2e" x="111.230469"/>
       <use xlink:href="#Helvetica-30" x="139.013672"/>
      </g>
     </g>
    </g>
    <g id="text_13">
     <!-- Latency (μs) -->
     <g style="fill: #0b1f3a" transform="translate(14.490625 214.187344) rotate(-90) scale(0.1 -0.1)">
      <defs>
       <path id="Helvetica-4c" d="M 488 4591 
L 1109 4591 
L 1109 547 
L 3434 547 
L 3434 0 
L 488 0 
L 488 4591 
z
" transform="scale(0.015625)"/>
       <path id="Helvetica-61" d="M 844 891 
Q 844 647 1022 506 
Q 1200 366 1444 366 
Q 1741 366 2019 503 
Q 2488 731 2488 1250 
L 2488 1703 
Q 2384 1638 2221 1594 
Q 2059 1550 1903 1531 
L 1563 1488 
Q 1256 1447 1103 1359 
Q 844 1213 844 891 
z
M 2206 2028 
Q 2400 2053 2466 2191 
Q 2503 2266 2503 2406 
Q 2503 2694 2298 2823 
Q 2094 2953 1713 2953 
Q 1272 2953 1088 2716 
Q 984 2584 953 2325 
L 428 2325 
Q 444 2944 830 3186 
Q 1216 3428 1725 3428 
Q 2316 3428 2684 3203 
Q 3050 2978 3050 2503 
L 3050 575 
Q 3050 488 3086 434 
Q 3122 381 3238 381 
Q 3275 381 3322 386 
Q 3369 391 3422 400 
L 3422 -16 
Q 3291 -53 3222 -62 
Q 3153 -72 3034 -72 
Q 2744 -72 2613 134 
Q 2544 244 2516 444 
Q 2344 219 2022 53 
Q 1700 -113 1313 -113 
Q 847 -113 551 170 
Q 256 453 256 878 
Q 256 1344 547 1600 
Q 838 1856 1309 1916 
L 2206 2028 
z
M 1741 3428 
L 1741 3428 
z
" transform="scale(0.015625)"/>
       <path id="Helvetica-74" d="M 525 4281 
L 1094 4281 
L 1094 3347 
L 1628 3347 
L 1628 2888 
L 1094 2888 
L 1094 703 
Q 1094 528 1213 469 
Q 1278 434 1431 434 
Q 1472 434 1519 436 
Q 1566 438 1628 444 
L 1628 0 
Q 1531 -28 1426 -40 
Q 1322 -53 1200 -53 
Q 806 -53 665 148 
Q 525 350 525 672 
L 525 2888 
L 72 2888 
L 72 3347 
L 525 3347 
L 525 4281 
z
" transform="scale(0.015625)"/>
       <path id="Helvetica-65" d="M 1806 3422 
Q 2163 3422 2497 3255 
Q 2831 3088 3006 2822 
Q 3175 2569 3231 2231 
Q 3281 2000 3281 1494 
L 828 1494 
Q 844 984 1069 676 
Q 1294 369 1766 369 
Q 2206 369 2469 659 
Q 2619 828 2681 1050 
L 3234 1050 
Q 3213 866 3089 639 
Q 2966 413 2813 269 
Q 2556 19 2178 -69 
Q 1975 -119 1719 -119 
Q 1094 -119 659 336 
Q 225 791 225 1609 
Q 225 2416 662 2919 
Q 1100 3422 1806 3422 
z
M 2703 1941 
Q 2669 2306 2544 2525 
Q 2313 2931 1772 2931 
Q 1384 2931 1121 2651 
Q 859 2372 844 1941 
L 2703 1941 
z
M 1753 3428 
L 1753 3428 
z
" transform="scale(0.015625)"/>
       <path id="Helvetica-6e" d="M 413 3347 
L 947 3347 
L 947 2872 
Q 1184 3166 1450 3294 
Q 1716 3422 2041 3422 
Q 2753 3422 3003 2925 
Q 3141 2653 3141 2147 
L 3141 0 
L 2569 0 
L 2569 2109 
Q 2569 2416 2478 2603 
Q 2328 2916 1934 2916 
Q 1734 2916 1606 2875 
Q 1375 2806 1200 2600 
Q 1059 2434 1017 2257 
Q 975 2081 975 1753 
L 975 0 
L 413 0 
L 413 3347 
z
M 1734 3428 
L 1734 3428 
z
" transform="scale(0.015625)"/>
       <path id="Helvetica-63" d="M 1703 3444 
Q 2269 3444 2623 3169 
Q 2978 2894 3050 2222 
L 2503 2222 
Q 2453 2531 2275 2736 
Q 2097 2941 1703 2941 
Q 1166 2941 934 2416 
Q 784 2075 784 1575 
Q 784 1072 996 728 
Q 1209 384 1666 384 
Q 2016 384 2220 598 
Q 2425 813 2503 1184 
L 3050 1184 
Q 2956 519 2581 211 
Q 2206 -97 1622 -97 
Q 966 -97 575 383 
Q 184 863 184 1581 
Q 184 2463 612 2953 
Q 1041 3444 1703 3444 
z
M 1616 3428 
L 1616 3428 
z
" transform="scale(0.015625)"/>
       <path id="Helvetica-79" d="M 2503 3347 
L 3125 3347 
Q 3006 3025 2597 1878 
Q 2291 1016 2084 472 
Q 1597 -809 1397 -1090 
Q 1197 -1372 709 -1372 
Q 591 -1372 527 -1362 
Q 463 -1353 369 -1328 
L 369 -816 
Q 516 -856 581 -865 
Q 647 -875 697 -875 
Q 853 -875 926 -823 
Q 1000 -772 1050 -697 
Q 1066 -672 1162 -440 
Q 1259 -209 1303 -97 
L 66 3347 
L 703 3347 
L 1600 622 
L 2503 3347 
z
M 1597 3428 
L 1597 3428 
z
" transform="scale(0.015625)"/>
       <path id="Helvetica-20" transform="scale(0.015625)"/>
       <path id="Helvetica-28" d="M 1894 4666 
Q 1403 3713 1256 3263 
Q 1034 2578 1034 1681 
Q 1034 775 1288 25 
Q 1444 -438 1903 -1306 
L 1525 -1306 
Q 1069 -594 959 -397 
Q 850 -200 722 138 
Q 547 600 478 1125 
Q 444 1397 444 1644 
Q 444 2569 734 3291 
Q 919 3750 1503 4666 
L 1894 4666 
z
" transform="scale(0.015625)"/>
       <path id="Helvetica-3bc" d="M 575 3328 
L 1153 3328 
L 1153 1369 
Q 1147 934 1325 691 
Q 1497 434 1953 434 
Q 2419 434 2591 697 
Q 2759 941 2759 1369 
L 2759 3328 
L 3334 3328 
L 3334 806 
Q 3316 434 3547 434 
Q 3634 434 3725 453 
L 3725 0 
Q 3641 -56 3372 -63 
Q 3109 -44 2994 63 
Q 2872 166 2803 384 
Q 2503 -50 1966 -63 
Q 1503 -63 1166 359 
L 1153 359 
L 1153 -1253 
L 575 -1253 
L 575 3328 
z
" transform="scale(0.015625)"/>
       <path id="Helvetica-73" d="M 747 1050 
Q 772 769 888 619 
Q 1100 347 1625 347 
Q 1938 347 2175 483 
Q 2413 619 2413 903 
Q 2413 1119 2222 1231 
Q 2100 1300 1741 1391 
L 1294 1503 
Q 866 1609 663 1741 
Q 300 1969 300 2372 
Q 300 2847 642 3140 
Q 984 3434 1563 3434 
Q 2319 3434 2653 2991 
Q 2863 2709 2856 2384 
L 2325 2384 
Q 2309 2575 2191 2731 
Q 1997 2953 1519 2953 
Q 1200 2953 1036 2831 
Q 872 2709 872 2509 
Q 872 2291 1088 2159 
Q 1213 2081 1456 2022 
L 1828 1931 
Q 2434 1784 2641 1647 
Q 2969 1431 2969 969 
Q 2969 522 2630 197 
Q 2291 -128 1597 -128 
Q 850 -128 539 211 
Q 228 550 206 1050 
L 747 1050 
z
M 1578 3428 
L 1578 3428 
z
" transform="scale(0.015625)"/>
       <path id="Helvetica-29" d="M 222 -1306 
Q 719 -338 863 106 
Q 1081 778 1081 1681 
Q 1081 2584 828 3334 
Q 672 3797 213 4666 
L 591 4666 
Q 1072 3897 1173 3717 
Q 1275 3538 1394 3222 
Q 1544 2831 1608 2450 
Q 1672 2069 1672 1716 
Q 1672 791 1378 66 
Q 1194 -400 613 -1306 
L 222 -1306 
z
" transform="scale(0.015625)"/>
      </defs>
      <use xlink:href="#Helvetica-4c"/>
      <use xlink:href="#Helvetica-61" x="55.615234"/>
      <use xlink:href="#Helvetica-74" x="111.230469"/>
      <use xlink:href="#Helvetica-65" x="139.013672"/>
      <use xlink:href="#Helvetica-6e" x="194.628906"/>
      <use xlink:href="#Helvetica-63" x="250.244141"/>
      <use xlink:href="#Helvetica-79" x="300.244141"/>
      <use xlink:href="#Helvetica-20" x="350.244141"/>
      <use xlink:href="#Helvetica-28" x="378.027344"/>
      <use xlink:href="#Helvetica-3bc" x="411.328125"/>
      <use xlink:href="#Helvetica-73" x="472.412109"/>
      <use xlink:href="#Helvetica-29" x="522.412109"/>
     </g>
    </g>
   </g>
   <g id="patch_3">
    <path d="M 73.751278 343.29125 
L 142.859338 343.29125 
L 142.859338 341.49825 
L 73.751278 341.49825 
z
" clip-path="url(#p7c1b874c15)" style="fill: #1f4e79; stroke: #0b1f3a; stroke-width: 0.6; stroke-linejoin: miter"/>
   </g>
   <g id="patch_4">
    <path d="M 271.202878 343.29125 
L 340.310938 343.29125 
L 340.310938 318.90645 
L 271.202878 318.90645 
z
" clip-path="url(#p7c1b874c15)" style="fill: #1f4e79; stroke: #0b1f3a; stroke-width: 0.6; stroke-linejoin: miter"/>
   </g>
   <g id="patch_5">
    <path d="M 468.654477 343.29125 
L 537.762537 343.29125 
L 537.762537 92.27125 
L 468.654477 92.27125 
z
" clip-path="url(#p7c1b874c15)" style="fill: #1f4e79; stroke: #0b1f3a; stroke-width: 0.6; stroke-linejoin: miter"/>
   </g>
   <g id="patch_6">
    <path d="M 142.859338 343.29125 
L 211.967398 343.29125 
L 211.967398 336.11925 
L 142.859338 336.11925 
z
" clip-path="url(#p7c1b874c15)" style="fill: #c4a35a; opacity: 0.9; stroke: #0b1f3a; stroke-width: 0.6; stroke-linejoin: miter"/>
   </g>
   <g id="patch_7">
    <path d="M 340.310938 343.29125 
L 409.418997 343.29125 
L 409.418997 314.60325 
L 340.310938 314.60325 
z
" clip-path="url(#p7c1b874c15)" style="fill: #c4a35a; opacity: 0.9; stroke: #0b1f3a; stroke-width: 0.6; stroke-linejoin: miter"/>
   </g>
   <g id="patch_8">
    <path d="M 47.095313 343.29125 
L 47.095313 29.51625 
" style="fill: none; stroke: #4a5568; stroke-width: 0.8; stroke-linejoin: miter; stroke-linecap: square"/>
   </g>
   <g id="patch_9">
    <path d="M 47.095313 343.29125 
L 633.526562 343.29125 
" style="fill: none; stroke: #4a5568; stroke-width: 0.8; stroke-linejoin: miter; stroke-linecap: square"/>
   </g>
   <g id="text_14">
    <!-- 125 ns -->
    <g style="fill: #1f4e79" transform="translate(94.795465 335.49825) scale(0.09 -0.09)">
     <use xlink:href="#Helvetica-31"/>
     <use xlink:href="#Helvetica-32" x="55.615234"/>
     <use xlink:href="#Helvetica-35" x="111.230469"/>
     <use xlink:href="#Helvetica-20" x="166.845703"/>
     <use xlink:href="#Helvetica-6e" x="194.628906"/>
     <use xlink:href="#Helvetica-73" x="250.244141"/>
    </g>
   </g>
   <g id="text_15">
    <!-- ≤ 0.5 μs -->
    <g style="fill: #c4a35a" transform="translate(161.189462 330.11925) scale(0.09 -0.09)">
     <defs>
      <path id="Helvetica-2264" d="M 3541 0 
L 281 0 
L 281 503 
L 3541 503 
L 3541 0 
z
M 3541 3325 
L 3541 2763 
L 947 1963 
L 3541 1153 
L 3541 591 
L 281 1694 
L 281 2222 
L 3541 3325 
z
" transform="scale(0.015625)"/>
     </defs>
     <use xlink:href="#Helvetica-2264"/>
     <use xlink:href="#Helvetica-20" x="54.882812"/>
     <use xlink:href="#Helvetica-30" x="82.666016"/>
     <use xlink:href="#Helvetica-2e" x="138.28125"/>
     <use xlink:href="#Helvetica-35" x="166.064453"/>
     <use xlink:href="#Helvetica-20" x="221.679688"/>
     <use xlink:href="#Helvetica-3bc" x="249.462891"/>
     <use xlink:href="#Helvetica-73" x="310.546875"/>
    </g>
   </g>
   <g id="text_16">
    <!-- 1.70 μs -->
    <g style="fill: #1f4e79" transform="translate(290.750814 312.90645) scale(0.09 -0.09)">
     <use xlink:href="#Helvetica-31"/>
     <use xlink:href="#Helvetica-2e" x="55.615234"/>
     <use xlink:href="#Helvetica-37" x="83.398438"/>
     <use xlink:href="#Helvetica-30" x="139.013672"/>
     <use xlink:href="#Helvetica-20" x="194.628906"/>
     <use xlink:href="#Helvetica-3bc" x="222.412109"/>
     <use xlink:href="#Helvetica-73" x="283.496094"/>
    </g>
   </g>
   <g id="text_17">
    <!-- ≤ 2.0 μs -->
    <g style="fill: #c4a35a" transform="translate(358.641061 308.60325) scale(0.09 -0.09)">
     <use xlink:href="#Helvetica-2264"/>
     <use xlink:href="#Helvetica-20" x="54.882812"/>
     <use xlink:href="#Helvetica-32" x="82.666016"/>
     <use xlink:href="#Helvetica-2e" x="138.28125"/>
     <use xlink:href="#Helvetica-30" x="166.064453"/>
     <use xlink:href="#Helvetica-20" x="221.679688"/>
     <use xlink:href="#Helvetica-3bc" x="249.462891"/>
     <use xlink:href="#Helvetica-73" x="310.546875"/>
    </g>
   </g>
   <g id="text_18">
    <!-- 17.50 μs -->
    <g style="fill: #1f4e79" transform="translate(485.699991 86.27125) scale(0.09 -0.09)">
     <use xlink:href="#Helvetica-31"/>
     <use xlink:href="#Helvetica-37" x="55.615234"/>
     <use xlink:href="#Helvetica-2e" x="111.230469"/>
     <use xlink:href="#Helvetica-35" x="139.013672"/>
     <use xlink:href="#Helvetica-30" x="194.628906"/>
     <use xlink:href="#Helvetica-20" x="250.244141"/>
     <use xlink:href="#Helvetica-3bc" x="278.027344"/>
     <use xlink:href="#Helvetica-73" x="339.111328"/>
    </g>
   </g>
   <g id="text_19">
    <!-- Operation Latency vs Design Targets -->
    <g style="fill: #0b1f3a" transform="translate(224.760625 17.51625) scale(0.14 -0.14)">
     <defs>
      <path id="Helvetica-4f" d="M 2469 4716 
Q 3684 4716 4269 3934 
Q 4725 3325 4725 2375 
Q 4725 1347 4203 666 
Q 3591 -134 2456 -134 
Q 1397 -134 791 566 
Q 250 1241 250 2272 
Q 250 3203 713 3866 
Q 1306 4716 2469 4716 
z
M 2531 422 
Q 3353 422 3720 1011 
Q 4088 1600 4088 2366 
Q 4088 3175 3664 3669 
Q 3241 4163 2506 4163 
Q 1794 4163 1344 3673 
Q 894 3184 894 2231 
Q 894 1469 1280 945 
Q 1666 422 2531 422 
z
M 2488 4716 
L 2488 4716 
z
" transform="scale(0.015625)"/>
      <path id="Helvetica-72" d="M 428 3347 
L 963 3347 
L 963 2769 
Q 1028 2938 1284 3180 
Q 1541 3422 1875 3422 
Q 1891 3422 1928 3419 
Q 1966 3416 2056 3406 
L 2056 2813 
Q 2006 2822 1964 2825 
Q 1922 2828 1872 2828 
Q 1447 2828 1219 2554 
Q 991 2281 991 1925 
L 991 0 
L 428 0 
L 428 3347 
z
" transform="scale(0.015625)"/>
      <path id="Helvetica-69" d="M 413 3331 
L 984 3331 
L 984 0 
L 413 0 
L 413 3331 
z
M 413 4591 
L 984 4591 
L 984 3953 
L 413 3953 
L 413 4591 
z
" transform="scale(0.015625)"/>
      <path id="Helvetica-6f" d="M 1741 363 
Q 2300 363 2508 786 
Q 2716 1209 2716 1728 
Q 2716 2197 2566 2491 
Q 2328 2953 1747 2953 
Q 1231 2953 997 2559 
Q 763 2166 763 1609 
Q 763 1075 997 719 
Q 1231 363 1741 363 
z
M 1763 3444 
Q 2409 3444 2856 3012 
Q 3303 2581 3303 1744 
Q 3303 934 2909 406 
Q 2516 -122 1688 -122 
Q 997 -122 590 345 
Q 184 813 184 1600 
Q 184 2444 612 2944 
Q 1041 3444 1763 3444 
z
M 1744 3428 
L 1744 3428 
z
" transform="scale(0.015625)"/>
      <path id="Helvetica-76" d="M 688 3347 
L 1581 622 
L 2516 3347 
L 3131 3347 
L 1869 0 
L 1269 0 
L 34 3347 
L 688 3347 
z
" transform="scale(0.015625)"/>
      <path id="Helvetica-44" d="M 2250 531 
Q 2566 531 2769 597 
Q 3131 719 3363 1066 
Q 3547 1344 3628 1778 
Q 3675 2038 3675 2259 
Q 3675 3113 3336 3584 
Q 2997 4056 2244 4056 
L 1141 4056 
L 1141 531 
L 2250 531 
z
M 516 4591 
L 2375 4591 
Q 3322 4591 3844 3919 
Q 4309 3313 4309 2366 
Q 4309 1634 4034 1044 
Q 3550 0 2369 0 
L 516 0 
L 516 4591 
z
" transform="scale(0.015625)"/>
      <path id="Helvetica-67" d="M 1594 3406 
Q 1988 3406 2281 3213 
Q 2441 3103 2606 2894 
L 2606 3316 
L 3125 3316 
L 3125 272 
Q 3125 -366 2938 -734 
Q 2588 -1416 1616 -1416 
Q 1075 -1416 706 -1173 
Q 338 -931 294 -416 
L 866 -416 
Q 906 -641 1028 -763 
Q 1219 -950 1628 -950 
Q 2275 -950 2475 -494 
Q 2594 -225 2584 466 
Q 2416 209 2178 84 
Q 1941 -41 1550 -41 
Q 1006 -41 598 345 
Q 191 731 191 1622 
Q 191 2463 602 2934 
Q 1013 3406 1594 3406 
z
M 2606 1688 
Q 2606 2309 2350 2609 
Q 2094 2909 1697 2909 
Q 1103 2909 884 2353 
Q 769 2056 769 1575 
Q 769 1009 998 714 
Q 1228 419 1616 419 
Q 2222 419 2469 966 
Q 2606 1275 2606 1688 
z
M 1659 3428 
L 1659 3428 
z
" transform="scale(0.015625)"/>
      <path id="Helvetica-54" d="M 3828 4591 
L 3828 4044 
L 2281 4044 
L 2281 0 
L 1650 0 
L 1650 4044 
L 103 4044 
L 103 4591 
L 3828 4591 
z
" transform="scale(0.015625)"/>
     </defs>
     <use xlink:href="#Helvetica-4f"/>
     <use xlink:href="#Helvetica-70" x="77.783203"/>
     <use xlink:href="#Helvetica-65" x="133.398438"/>
     <use xlink:href="#Helvetica-72" x="189.013672"/>
     <use xlink:href="#Helvetica-61" x="222.314453"/>
     <use xlink:href="#Helvetica-74" x="277.929688"/>
     <use xlink:href="#Helvetica-69" x="305.712891"/>
     <use xlink:href="#Helvetica-6f" x="327.929688"/>
     <use xlink:href="#Helvetica-6e" x="383.544922"/>
     <use xlink:href="#Helvetica-20" x="439.160156"/>
     <use xlink:href="#Helvetica-4c" x="466.943359"/>
     <use xlink:href="#Helvetica-61" x="522.558594"/>
     <use xlink:href="#Helvetica-74" x="578.173828"/>
     <use xlink:href="#Helvetica-65" x="605.957031"/>
     <use xlink:href="#Helvetica-6e" x="661.572266"/>
     <use xlink:href="#Helvetica-63" x="717.1875"/>
     <use xlink:href="#Helvetica-79" x="767.1875"/>
     <use xlink:href="#Helvetica-20" x="817.1875"/>
     <use xlink:href="#Helvetica-76" x="844.970703"/>
     <use xlink:href="#Helvetica-73" x="894.970703"/>
     <use xlink:href="#Helvetica-20" x="944.970703"/>
     <use xlink:href="#Helvetica-44" x="972.753906"/>
     <use xlink:href="#Helvetica-65" x="1044.970703"/>
     <use xlink:href="#Helvetica-73" x="1100.585938"/>
     <use xlink:href="#Helvetica-69" x="1150.585938"/>
     <use xlink:href="#Helvetica-67" x="1172.802734"/>
     <use xlink:href="#Helvetica-6e" x="1228.417969"/>
     <use xlink:href="#Helvetica-20" x="1284.033203"/>
     <use xlink:href="#Helvetica-54" x="1311.816406"/>
     <use xlink:href="#Helvetica-61" x="1372.900391"/>
     <use xlink:href="#Helvetica-72" x="1428.515625"/>
     <use xlink:href="#Helvetica-67" x="1461.816406"/>
     <use xlink:href="#Helvetica-65" x="1517.431641"/>
     <use xlink:href="#Helvetica-74" x="1573.046875"/>
     <use xlink:href="#Helvetica-73" x="1600.830078"/>
    </g>
   </g>
   <g id="legend_1">
    <g id="patch_10">
     <path d="M 540.83125 66.311562 
L 628.526562 66.311562 
L 628.526562 34.51625 
L 540.83125 34.51625 
z
" style="fill: #f7f9fc; opacity: 0.8; stroke: #cbd5e0; stroke-linejoin: miter"/>
    </g>
    <g id="patch_11">
     <path d="M 544.83125 45.713125 
L 564.83125 45.713125 
L 564.83125 38.713125 
L 544.83125 38.713125 
z
" style="fill: #1f4e79; stroke: #0b1f3a; stroke-width: 0.6; stroke-linejoin: miter"/>
    </g>
    <g id="text_20">
     <!-- This engine -->
     <g style="fill: #0b1f3a" transform="translate(572.83125 45.713125) scale(0.1 -0.1)">
      <defs>
       <path id="Helvetica-68" d="M 413 4606 
L 975 4606 
L 975 2894 
Q 1175 3147 1334 3250 
Q 1606 3428 2013 3428 
Q 2741 3428 3000 2919 
Q 3141 2641 3141 2147 
L 3141 0 
L 2563 0 
L 2563 2109 
Q 2563 2478 2469 2650 
Q 2316 2925 1894 2925 
Q 1544 2925 1259 2684 
Q 975 2444 975 1775 
L 975 0 
L 413 0 
L 413 4606 
z
" transform="scale(0.015625)"/>
      </defs>
      <use xlink:href="#Helvetica-54"/>
      <use xlink:href="#Helvetica-68" x="61.083984"/>
      <use xlink:href="#Helvetica-69" x="116.699219"/>
      <use xlink:href="#Helvetica-73" x="138.916016"/>
      <use xlink:href="#Helvetica-20" x="188.916016"/>
      <use xlink:href="#Helvetica-65" x="216.699219"/>
      <use xlink:href="#Helvetica-6e" x="272.314453"/>
      <use xlink:href="#Helvetica-67" x="327.929688"/>
      <use xlink:href="#Helvetica-69" x="383.544922"/>
      <use xlink:href="#Helvetica-6e" x="405.761719"/>
      <use xlink:href="#Helvetica-65" x="461.376953"/>
     </g>
    </g>
    <g id="patch_12">
     <path d="M 544.83125 60.099063 
L 564.83125 60.099063 
L 564.83125 53.099063 
L 544.83125 53.099063 
z
" style="fill: #c4a35a; opacity: 0.9; stroke: #0b1f3a; stroke-width: 0.6; stroke-linejoin: miter"/>
    </g>
    <g id="text_21">
     <!-- Target -->
     <g style="fill: #0b1f3a" transform="translate(572.83125 60.099063) scale(0.1 -0.1)">
      <use xlink:href="#Helvetica-54"/>
      <use xlink:href="#Helvetica-61" x="61.083984"/>
      <use xlink:href="#Helvetica-72" x="116.699219"/>
      <use xlink:href="#Helvetica-67" x="150"/>
      <use xlink:href="#Helvetica-65" x="205.615234"/>
      <use xlink:href="#Helvetica-74" x="261.230469"/>
     </g>
    </g>
   </g>
  </g>
 </g>
 <defs>
  <clipPath id="p7c1b874c15">
   <rect x="47.095313" y="29.51625" width="586.43125" height="313.775"/>
  </clipPath>
 </defs>
</svg>
