<?xml version="1.0" encoding="utf-8" standalone="no"?>
<!DOCTYPE svg PUBLIC "-//W3C//DTD SVG 1.1//EN"
  "http://www.w3.org/Graphics/SVG/1.1/DTD/svg11.dtd">
<svg xmlns:xlink="http://www.w3.org/1999/xlink" width="640.909375pt" height="330.104374pt" viewBox="0 0 640.909375 330.104374" xmlns="http://www.w3.org/2000/svg" version="1.1">
 <metadata>
  <rdf:RDF xmlns:dc="http://purl.org/dc/elements/1.1/" xmlns:cc="http://creativecommons.org/ns#" xmlns:rdf="http://www.w3.org/1999/02/22-rdf-syntax-ns#">
   <cc:Work>
    <dc:type rdf:resource="http://purl.org/dc/dcmitype/StillImage"/>
    <dc:date>2026-07-12T11:34:36.848150</dc:date>
    <dc:format>image/svg+xml</dc:format>
    <dc:creator>
     <cc:Agent>
      <dc:title>Matplotlib v3.9.4, https://matplotlib.org/</dc:title>
     </cc:Agent>
    </dc:creator>
   </cc:Work>
  </rdf:RDF>
 </metadata>
 <defs>
  <style type="text/css">*{stroke-linejoin: round; stroke-linecap: butt}</style>
 </defs>
 <g id="figure_1">
  <g id="patch_1">
   <path d="M 0 330.104374 
L 640.909375 330.104374 
L 640.909375 0 
L 0 0 
z
" style="fill: #ffffff"/>
  </g>
  <g id="axes_1">
   <g id="patch_2">
    <path d="M 61.446875 253.08234 
L 633.709375 253.08234 
L 633.709375 28.779375 
L 61.446875 28.779375 
z
" style="fill: #f7f9fc"/>
   </g>
   <g id="matplotlib.axis_1">
    <g id="xtick_1">
     <g id="line2d_1">
      <path d="M 61.446875 253.08234 
L 61.446875 28.779375 
" clip-path="url(#p2a3e606f57)" style="fill: none; stroke: #e2e8f0; stroke-width: 0.8; stroke-linecap: square"/>
     </g>
     <g id="line2d_2">
      <defs>
       <path id="mfcd5a357a1" d="M 0 0 
L 0 3.5 
" style="stroke: #4a5568; stroke-width: 0.8"/>
      </defs>
      <g>
       <use xlink:href="#mfcd5a357a1" x="61.446875" y="253.08234" style="fill: #4a5568; stroke: #4a5568; stroke-width: 0.8"/>
      </g>
     </g>
     <g id="text_1">
      <!-- 0 -->
      <g style="fill: #4a5568" transform="translate(58.666406 267.255777) scale(0.1 -0.1)">
       <defs>
        <path id="Helvetica-30" d="M 1731 4475 
Q 2600 4475 2988 3759 
Q 3288 3206 3288 2244 
Q 3288 1331 3016 734 
Q 2622 -122 1728 -122 
Q 922 -122 528 578 
Q 200 1163 200 2147 
Q 200 2909 397 3456 
Q 766 4475 1731 4475 
z
M 1725 391 
Q 2163 391 2422 778 
Q 2681 1166 2681 2222 
Q 2681 2984 2493 3476 
Q 2306 3969 1766 3969 
Q 1269 3969 1039 3501 
Q 809 3034 809 2125 
Q 809 1441 956 1025 
Q 1181 391 1725 391 
z
" transform="scale(0.015625)"/>
       </defs>
       <use xlink:href="#Helvetica-30"/>
      </g>
     </g>
    </g>
    <g id="xtick_2">
     <g id="line2d_3">
      <path d="M 146.226505 253.08234 
L 146.226505 28.779375 
" clip-path="url(#p2a3e606f57)" style="fill: none; stroke: #e2e8f0; stroke-width: 0.8; stroke-linecap: square"/>
     </g>
     <g id="line2d_4">
      <g>
       <use xlink:href="#mfcd5a357a1" x="146.226505" y="253.08234" style="fill: #4a5568; stroke: #4a5568; stroke-width: 0.8"/>
      </g>
     </g>
     <g id="text_2">
      <!-- 20 -->
      <g style="fill: #4a5568" transform="translate(140.665567 267.255777) scale(0.1 -0.1)">
       <defs>
        <path id="Helvetica-32" d="M 200 0 
Q 231 578 439 1006 
Q 647 1434 1250 1784 
L 1850 2131 
Q 2253 2366 2416 2531 
Q 2672 2791 2672 3125 
Q 2672 3516 2437 3745 
Q 2203 3975 1813 3975 
Q 1234 3975 1013 3538 
Q 894 3303 881 2888 
L 309 2888 
Q 319 3472 525 3841 
Q 891 4491 1816 4491 
Q 2584 4491 2939 4075 
Q 3294 3659 3294 3150 
Q 3294 2613 2916 2231 
Q 2697 2009 2131 1694 
L 1703 1456 
Q 1397 1288 1222 1134 
Q 909 863 828 531 
L 3272 531 
L 3272 0 
L 200 0 
z
" transform="scale(0.015625)"/>
       </defs>
       <use xlink:href="#Helvetica-32"/>
       <use xlink:href="#Helvetica-30" x="55.615234"/>
      </g>
     </g>
    </g>
    <g id="xtick_3">
     <g id="line2d_5">
      <path d="M 231.006134 253.08234 
L 231.006134 28.779375 
" clip-path="url(#p2a3e606f57)" style="fill: none; stroke: #e2e8f0; stroke-width: 0.8; stroke-linecap: square"/>
     </g>
     <g id="line2d_6">
      <g>
       <use xlink:href="#mfcd5a357a1" x="231.006134" y="253.08234" style="fill: #4a5568; stroke: #4a5568; stroke-width: 0.8"/>
      </g>
     </g>
     <g id="text_3">
      <!-- 40 -->
      <g style="fill: #4a5568" transform="translate(225.445197 267.255777) scale(0.1 -0.1)">
       <defs>
        <path id="Helvetica-34" d="M 2116 1584 
L 2116 3613 
L 681 1584 
L 2116 1584 
z
M 2125 0 
L 2125 1094 
L 163 1094 
L 163 1644 
L 2213 4488 
L 2688 4488 
L 2688 1584 
L 3347 1584 
L 3347 1094 
L 2688 1094 
L 2688 0 
L 2125 0 
z
" transform="scale(0.015625)"/>
       </defs>
       <use xlink:href="#Helvetica-34"/>
       <use xlink:href="#Helvetica-30" x="55.615234"/>
      </g>
     </g>
    </g>
    <g id="xtick_4">
     <g id="line2d_7">
      <path d="M 315.785764 253.08234 
L 315.785764 28.779375 
" clip-path="url(#p2a3e606f57)" style="fill: none; stroke: #e2e8f0; stroke-width: 0.8; stroke-linecap: square"/>
     </g>
     <g id="line2d_8">
      <g>
       <use xlink:href="#mfcd5a357a1" x="315.785764" y="253.08234" style="fill: #4a5568; stroke: #4a5568; stroke-width: 0.8"/>
      </g>
     </g>
     <g id="text_4">
      <!-- 60 -->
      <g style="fill: #4a5568" transform="translate(310.224826 267.255777) scale(0.1 -0.1)">
       <defs>
        <path id="Helvetica-36" d="M 1872 4494 
Q 2622 4494 2917 4105 
Q 3213 3716 3213 3303 
L 2656 3303 
Q 2606 3569 2497 3719 
Q 2294 4000 1881 4000 
Q 1409 4000 1131 3564 
Q 853 3128 822 2316 
Q 1016 2600 1309 2741 
Q 1578 2866 1909 2866 
Q 2472 2866 2890 2506 
Q 3309 2147 3309 1434 
Q 3309 825 2912 354 
Q 2516 -116 1781 -116 
Q 1153 -116 697 361 
Q 241 838 241 1966 
Q 241 2800 444 3381 
Q 834 4494 1872 4494 
z
M 1831 384 
Q 2275 384 2495 682 
Q 2716 981 2716 1388 
Q 2716 1731 2519 2042 
Q 2322 2353 1803 2353 
Q 1441 2353 1167 2112 
Q 894 1872 894 1388 
Q 894 963 1142 673 
Q 1391 384 1831 384 
z
" transform="scale(0.015625)"/>
       </defs>
       <use xlink:href="#Helvetica-36"/>
       <use xlink:href="#Helvetica-30" x="55.615234"/>
      </g>
     </g>
    </g>
    <g id="xtick_5">
     <g id="line2d_9">
      <path d="M 400.565394 253.08234 
L 400.565394 28.779375 
" clip-path="url(#p2a3e606f57)" style="fill: none; stroke: #e2e8f0; stroke-width: 0.8; stroke-linecap: square"/>
     </g>
     <g id="line2d_10">
      <g>
       <use xlink:href="#mfcd5a357a1" x="400.565394" y="253.08234" style="fill: #4a5568; stroke: #4a5568; stroke-width: 0.8"/>
      </g>
     </g>
     <g id="text_5">
      <!-- 80 -->
      <g style="fill: #4a5568" transform="translate(395.004456 267.255777) scale(0.1 -0.1)">
       <defs>
        <path id="Helvetica-38" d="M 1741 2600 
Q 2113 2600 2322 2808 
Q 2531 3016 2531 3303 
Q 2531 3553 2331 3762 
Q 2131 3972 1722 3972 
Q 1316 3972 1134 3762 
Q 953 3553 953 3272 
Q 953 2956 1187 2778 
Q 1422 2600 1741 2600 
z
M 1775 384 
Q 2166 384 2423 595 
Q 2681 806 2681 1225 
Q 2681 1659 2415 1884 
Q 2150 2109 1734 2109 
Q 1331 2109 1076 1879 
Q 822 1650 822 1244 
Q 822 894 1055 639 
Q 1288 384 1775 384 
z
M 975 2384 
Q 741 2484 609 2619 
Q 363 2869 363 3269 
Q 363 3769 725 4128 
Q 1088 4488 1753 4488 
Q 2397 4488 2762 4148 
Q 3128 3809 3128 3356 
Q 3128 2938 2916 2678 
Q 2797 2531 2547 2391 
Q 2825 2263 2984 2097 
Q 3281 1784 3281 1284 
Q 3281 694 2884 283 
Q 2488 -128 1763 -128 
Q 1109 -128 657 226 
Q 206 581 206 1256 
Q 206 1653 400 1942 
Q 594 2231 975 2384 
z
" transform="scale(0.015625)"/>
       </defs>
       <use xlink:href="#Helvetica-38"/>
       <use xlink:href="#Helvetica-30" x="55.615234"/>
      </g>
     </g>
    </g>
    <g id="xtick_6">
     <g id="line2d_11">
      <path d="M 485.345023 253.08234 
L 485.345023 28.779375 
" clip-path="url(#p2a3e606f57)" style="fill: none; stroke: #e2e8f0; stroke-width: 0.8; stroke-linecap: square"/>
     </g>
     <g id="line2d_12">
      <g>
       <use xlink:href="#mfcd5a357a1" x="485.345023" y="253.08234" style="fill: #4a5568; stroke: #4a5568; stroke-width: 0.8"/>
      </g>
     </g>
     <g id="text_6">
      <!-- 100 -->
      <g style="fill: #4a5568" transform="translate(477.003617 267.255777) scale(0.1 -0.1)">
       <defs>
        <path id="Helvetica-31" d="M 613 3169 
L 613 3600 
Q 1222 3659 1462 3798 
Q 1703 3938 1822 4456 
L 2266 4456 
L 2266 0 
L 1666 0 
L 1666 3169 
L 613 3169 
z
" transform="scale(0.015625)"/>
       </defs>
       <use xlink:href="#Helvetica-31"/>
       <use xlink:href="#Helvetica-30" x="55.615234"/>
       <use xlink:href="#Helvetica-30" x="111.230469"/>
      </g>
     </g>
    </g>
    <g id="xtick_7">
     <g id="line2d_13">
      <path d="M 570.124653 253.08234 
L 570.124653 28.779375 
" clip-path="url(#p2a3e606f57)" style="fill: none; stroke: #e2e8f0; stroke-width: 0.8; stroke-linecap: square"/>
     </g>
     <g id="line2d_14">
      <g>
       <use xlink:href="#mfcd5a357a1" x="570.124653" y="253.08234" style="fill: #4a5568; stroke: #4a5568; stroke-width: 0.8"/>
      </g>
     </g>
     <g id="text_7">
      <!-- 120 -->
      <g style="fill: #4a5568" transform="translate(561.783247 267.255777) scale(0.1 -0.1)">
       <use xlink:href="#Helvetica-31"/>
       <use xlink:href="#Helvetica-32" x="55.615234"/>
       <use xlink:href="#Helvetica-30" x="111.230469"/>
      </g>
     </g>
    </g>
    <g id="text_8">
     <!-- Nanoseconds (illustrative mid-path budget) -->
     <g style="fill: #0b1f3a" transform="translate(252.535937 280.630777) scale(0.1 -0.1)">
      <defs>
       <path id="Helvetica-4e" d="M 488 4591 
L 1222 4591 
L 3541 872 
L 3541 4591 
L 4131 4591 
L 4131 0 
L 3434 0 
L 1081 3716 
L 1081 0 
L 488 0 
L 488 4591 
z
M 2269 4591 
L 2269 4591 
z
" transform="scale(0.015625)"/>
       <path id="Helvetica-61" d="M 844 891 
Q 844 647 1022 506 
Q 1200 366 1444 366 
Q 1741 366 2019 503 
Q 2488 731 2488 1250 
L 2488 1703 
Q 2384 1638 2221 1594 
Q 2059 1550 1903 1531 
L 1563 1488 
Q 1256 1447 1103 1359 
Q 844 1213 844 891 
z
M 2206 2028 
Q 2400 2053 2466 2191 
Q 2503 2266 2503 2406 
Q 2503 2694 2298 2823 
Q 2094 2953 1713 2953 
Q 1272 2953 1088 2716 
Q 984 2584 953 2325 
L 428 2325 
Q 444 2944 830 3186 
Q 1216 3428 1725 3428 
Q 2316 3428 2684 3203 
Q 3050 2978 3050 2503 
L 3050 575 
Q 3050 488 3086 434 
Q 3122 381 3238 381 
Q 3275 381 3322 386 
Q 3369 391 3422 400 
L 3422 -16 
Q 3291 -53 3222 -62 
Q 3153 -72 3034 -72 
Q 2744 -72 2613 134 
Q 2544 244 2516 444 
Q 2344 219 2022 53 
Q 1700 -113 1313 -113 
Q 847 -113 551 170 
Q 256 453 256 878 
Q 256 1344 547 1600 
Q 838 1856 1309 1916 
L 2206 2028 
z
M 1741 3428 
L 1741 3428 
z
" transform="scale(0.015625)"/>
       <path id="Helvetica-6e" d="M 413 3347 
L 947 3347 
L 947 2872 
Q 1184 3166 1450 3294 
Q 1716 3422 2041 3422 
Q 2753 3422 3003 2925 
Q 3141 2653 3141 2147 
L 3141 0 
L 2569 0 
L 2569 2109 
Q 2569 2416 2478 2603 
Q 2328 2916 1934 2916 
Q 1734 2916 1606 2875 
Q 1375 2806 1200 2600 
Q 1059 2434 1017 2257 
Q 975 2081 975 1753 
L 975 0 
L 413 0 
L 413 3347 
z
M 1734 3428 
L 1734 3428 
z
" transform="scale(0.015625)"/>
       <path id="Helvetica-6f" d="M 1741 363 
Q 2300 363 2508 786 
Q 2716 1209 2716 1728 
Q 2716 2197 2566 2491 
Q 2328 2953 1747 2953 
Q 1231 2953 997 2559 
Q 763 2166 763 1609 
Q 763 1075 997 719 
Q 1231 363 1741 363 
z
M 1763 3444 
Q 2409 3444 2856 3012 
Q 3303 2581 3303 1744 
Q 3303 934 2909 406 
Q 2516 -122 1688 -122 
Q 997 -122 590 345 
Q 184 813 184 1600 
Q 184 2444 612 2944 
Q 1041 3444 1763 3444 
z
M 1744 3428 
L 1744 3428 
z
" transform="scale(0.015625)"/>
       <path id="Helvetica-73" d="M 747 1050 
Q 772 769 888 619 
Q 1100 347 1625 347 
Q 1938 347 2175 483 
Q 2413 619 2413 903 
Q 2413 1119 2222 1231 
Q 2100 1300 1741 1391 
L 1294 1503 
Q 866 1609 663 1741 
Q 300 1969 300 2372 
Q 300 2847 642 3140 
Q 984 3434 1563 3434 
Q 2319 3434 2653 2991 
Q 2863 2709 2856 2384 
L 2325 2384 
Q 2309 2575 2191 2731 
Q 1997 2953 1519 2953 
Q 1200 2953 1036 2831 
Q 872 2709 872 2509 
Q 872 2291 1088 2159 
Q 1213 2081 1456 2022 
L 1828 1931 
Q 2434 1784 2641 1647 
Q 2969 1431 2969 969 
Q 2969 522 2630 197 
Q 2291 -128 1597 -128 
Q 850 -128 539 211 
Q 228 550 206 1050 
L 747 1050 
z
M 1578 3428 
L 1578 3428 
z
" transform="scale(0.015625)"/>
       <path id="Helvetica-65" d="M 1806 3422 
Q 2163 3422 2497 3255 
Q 2831 3088 3006 2822 
Q 3175 2569 3231 2231 
Q 3281 2000 3281 1494 
L 828 1494 
Q 844 984 1069 676 
Q 1294 369 1766 369 
Q 2206 369 2469 659 
Q 2619 828 2681 1050 
L 3234 1050 
Q 3213 866 3089 639 
Q 2966 413 2813 269 
Q 2556 19 2178 -69 
Q 1975 -119 1719 -119 
Q 1094 -119 659 336 
Q 225 791 225 1609 
Q 225 2416 662 2919 
Q 1100 3422 1806 3422 
z
M 2703 1941 
Q 2669 2306 2544 2525 
Q 2313 2931 1772 2931 
Q 1384 2931 1121 2651 
Q 859 2372 844 1941 
L 2703 1941 
z
M 1753 3428 
L 1753 3428 
z
" transform="scale(0.015625)"/>
       <path id="Helvetica-63" d="M 1703 3444 
Q 2269 3444 2623 3169 
Q 2978 2894 3050 2222 
L 2503 2222 
Q 2453 2531 2275 2736 
Q 2097 2941 1703 2941 
Q 1166 2941 934 2416 
Q 784 2075 784 1575 
Q 784 1072 996 728 
Q 1209 384 1666 384 
Q 2016 384 2220 598 
Q 2425 813 2503 1184 
L 3050 1184 
Q 2956 519 2581 211 
Q 2206 -97 1622 -97 
Q 966 -97 575 383 
Q 184 863 184 1581 
Q 184 2463 612 2953 
Q 1041 3444 1703 3444 
z
M 1616 3428 
L 1616 3428 
z
" transform="scale(0.015625)"/>
       <path id="Helvetica-64" d="M 769 1634 
Q 769 1097 997 734 
Q 1225 372 1728 372 
Q 2119 372 2370 708 
Q 2622 1044 2622 1672 
Q 2622 2306 2362 2611 
Q 2103 2916 1722 2916 
Q 1297 2916 1033 2591 
Q 769 2266 769 1634 
z
M 1616 3406 
Q 2000 3406 2259 3244 
Q 2409 3150 2600 2916 
L 2600 4606 
L 3141 4606 
L 3141 0 
L 2634 0 
L 2634 466 
Q 2438 156 2169 18 
Q 1900 -119 1553 -119 
Q 994 -119 584 351 
Q 175 822 175 1603 
Q 175 2334 548 2870 
Q 922 3406 1616 3406 
z
" transform="scale(0.015625)"/>
       <path id="Helvetica-20" transform="scale(0.015625)"/>
       <path id="Helvetica-28" d="M 1894 4666 
Q 1403 3713 1256 3263 
Q 1034 2578 1034 1681 
Q 1034 775 1288 25 
Q 1444 -438 1903 -1306 
L 1525 -1306 
Q 1069 -594 959 -397 
Q 850 -200 722 138 
Q 547 600 478 1125 
Q 444 1397 444 1644 
Q 444 2569 734 3291 
Q 919 3750 1503 4666 
L 1894 4666 
z
" transform="scale(0.015625)"/>
       <path id="Helvetica-69" d="M 413 3331 
L 984 3331 
L 984 0 
L 413 0 
L 413 3331 
z
M 413 4591 
L 984 4591 
L 984 3953 
L 413 3953 
L 413 4591 
z
" transform="scale(0.015625)"/>
       <path id="Helvetica-6c" d="M 428 4591 
L 991 4591 
L 991 0 
L 428 0 
L 428 4591 
z
" transform="scale(0.015625)"/>
       <path id="Helvetica-75" d="M 975 3347 
L 975 1125 
Q 975 869 1056 706 
Q 1206 406 1616 406 
Q 2203 406 2416 931 
Q 2531 1213 2531 1703 
L 2531 3347 
L 3094 3347 
L 3094 0 
L 2563 0 
L 2569 494 
Q 2459 303 2297 172 
Q 1975 -91 1516 -91 
Q 800 -91 541 388 
Q 400 644 400 1072 
L 400 3347 
L 975 3347 
z
M 1747 3428 
L 1747 3428 
z
" transform="scale(0.015625)"/>
       <path id="Helvetica-74" d="M 525 4281 
L 1094 4281 
L 1094 3347 
L 1628 3347 
L 1628 2888 
L 1094 2888 
L 1094 703 
Q 1094 528 1213 469 
Q 1278 434 1431 434 
Q 1472 434 1519 436 
Q 1566 438 1628 444 
L 1628 0 
Q 1531 -28 1426 -40 
Q 1322 -53 1200 -53 
Q 806 -53 665 148 
Q 525 350 525 672 
L 525 2888 
L 72 2888 
L 72 3347 
L 525 3347 
L 525 4281 
z
" transform="scale(0.015625)"/>
       <path id="Helvetica-72" d="M 428 3347 
L 963 3347 
L 963 2769 
Q 1028 2938 1284 3180 
Q 1541 3422 1875 3422 
Q 1891 3422 1928 3419 
Q 1966 3416 2056 3406 
L 2056 2813 
Q 2006 2822 1964 2825 
Q 1922 2828 1872 2828 
Q 1447 2828 1219 2554 
Q 991 2281 991 1925 
L 991 0 
L 428 0 
L 428 3347 
z
" transform="scale(0.015625)"/>
       <path id="Helvetica-76" d="M 688 3347 
L 1581 622 
L 2516 3347 
L 3131 3347 
L 1869 0 
L 1269 0 
L 34 3347 
L 688 3347 
z
" transform="scale(0.015625)"/>
       <path id="Helvetica-6d" d="M 413 3347 
L 969 3347 
L 969 2872 
Q 1169 3119 1331 3231 
Q 1609 3422 1963 3422 
Q 2363 3422 2606 3225 
Q 2744 3113 2856 2894 
Q 3044 3163 3297 3292 
Q 3550 3422 3866 3422 
Q 4541 3422 4784 2934 
Q 4916 2672 4916 2228 
L 4916 0 
L 4331 0 
L 4331 2325 
Q 4331 2659 4164 2784 
Q 3997 2909 3756 2909 
Q 3425 2909 3186 2687 
Q 2947 2466 2947 1947 
L 2947 0 
L 2375 0 
L 2375 2184 
Q 2375 2525 2294 2681 
Q 2166 2916 1816 2916 
Q 1497 2916 1236 2669 
Q 975 2422 975 1775 
L 975 0 
L 413 0 
L 413 3347 
z
" transform="scale(0.015625)"/>
       <path id="Helvetica-2d" d="M 266 2072 
L 1834 2072 
L 1834 1494 
L 266 1494 
L 266 2072 
z
" transform="scale(0.015625)"/>
       <path id="Helvetica-70" d="M 1825 378 
Q 2219 378 2480 708 
Q 2741 1038 2741 1694 
Q 2741 2094 2625 2381 
Q 2406 2934 1825 2934 
Q 1241 2934 1025 2350 
Q 909 2038 909 1556 
Q 909 1169 1025 897 
Q 1244 378 1825 378 
z
M 369 3331 
L 916 3331 
L 916 2888 
Q 1084 3116 1284 3241 
Q 1569 3428 1953 3428 
Q 2522 3428 2919 2992 
Q 3316 2556 3316 1747 
Q 3316 653 2744 184 
Q 2381 -113 1900 -113 
Q 1522 -113 1266 53 
Q 1116 147 931 375 
L 931 -1334 
L 369 -1334 
L 369 3331 
z
" transform="scale(0.015625)"/>
       <path id="Helvetica-68" d="M 413 4606 
L 975 4606 
L 975 2894 
Q 1175 3147 1334 3250 
Q 1606 3428 2013 3428 
Q 2741 3428 3000 2919 
Q 3141 2641 3141 2147 
L 3141 0 
L 2563 0 
L 2563 2109 
Q 2563 2478 2469 2650 
Q 2316 2925 1894 2925 
Q 1544 2925 1259 2684 
Q 975 2444 975 1775 
L 975 0 
L 413 0 
L 413 4606 
z
" transform="scale(0.015625)"/>
       <path id="Helvetica-62" d="M 369 4606 
L 916 4606 
L 916 2941 
Q 1100 3181 1356 3307 
Q 1613 3434 1913 3434 
Q 2538 3434 2927 3004 
Q 3316 2575 3316 1738 
Q 3316 944 2931 419 
Q 2547 -106 1866 -106 
Q 1484 -106 1222 78 
Q 1066 188 888 428 
L 888 0 
L 369 0 
L 369 4606 
z
M 1831 391 
Q 2288 391 2514 753 
Q 2741 1116 2741 1709 
Q 2741 2238 2514 2584 
Q 2288 2931 1847 2931 
Q 1463 2931 1173 2647 
Q 884 2363 884 1709 
Q 884 1238 1003 944 
Q 1225 391 1831 391 
z
" transform="scale(0.015625)"/>
       <path id="Helvetica-67" d="M 1594 3406 
Q 1988 3406 2281 3213 
Q 2441 3103 2606 2894 
L 2606 3316 
L 3125 3316 
L 3125 272 
Q 3125 -366 2938 -734 
Q 2588 -1416 1616 -1416 
Q 1075 -1416 706 -1173 
Q 338 -931 294 -416 
L 866 -416 
Q 906 -641 1028 -763 
Q 1219 -950 1628 -950 
Q 2275 -950 2475 -494 
Q 2594 -225 2584 466 
Q 2416 209 2178 84 
Q 1941 -41 1550 -41 
Q 1006 -41 598 345 
Q 191 731 191 1622 
Q 191 2463 602 2934 
Q 1013 3406 1594 3406 
z
M 2606 1688 
Q 2606 2309 2350 2609 
Q 2094 2909 1697 2909 
Q 1103 2909 884 2353 
Q 769 2056 769 1575 
Q 769 1009 998 714 
Q 1228 419 1616 419 
Q 2222 419 2469 966 
Q 2606 1275 2606 1688 
z
M 1659 3428 
L 1659 3428 
z
" transform="scale(0.015625)"/>
       <path id="Helvetica-29" d="M 222 -1306 
Q 719 -338 863 106 
Q 1081 778 1081 1681 
Q 1081 2584 828 3334 
Q 672 3797 213 4666 
L 591 4666 
Q 1072 3897 1173 3717 
Q 1275 3538 1394 3222 
Q 1544 2831 1608 2450 
Q 1672 2069 1672 1716 
Q 1672 791 1378 66 
Q 1194 -400 613 -1306 
L 222 -1306 
z
" transform="scale(0.015625)"/>
      </defs>
      <use xlink:href="#Helvetica-4e"/>
      <use xlink:href="#Helvetica-61" x="72.216797"/>
      <use xlink:href="#Helvetica-6e" x="127.832031"/>
      <use xlink:href="#Helvetica-6f" x="183.447266"/>
      <use xlink:href="#Helvetica-73" x="239.0625"/>
      <use xlink:href="#Helvetica-65" x="289.0625"/>
      <use xlink:href="#Helvetica-63" x="344.677734"/>
      <use xlink:href="#Helvetica-6f" x="394.677734"/>
      <use xlink:href="#Helvetica-6e" x="450.292969"/>
      <use xlink:href="#Helvetica-64" x="505.908203"/>
      <use xlink:href="#Helvetica-73" x="561.523438"/>
      <use xlink:href="#Helvetica-20" x="611.523438"/>
      <use xlink:href="#Helvetica-28" x="639.306641"/>
      <use xlink:href="#Helvetica-69" x="672.607422"/>
      <use xlink:href="#Helvetica-6c" x="694.824219"/>
      <use xlink:href="#Helvetica-6c" x="717.041016"/>
      <use xlink:href="#Helvetica-75" x="739.257812"/>
      <use xlink:href="#Helvetica-73" x="794.873047"/>
      <use xlink:href="#Helvetica-74" x="844.873047"/>
      <use xlink:href="#Helvetica-72" x="872.65625"/>
      <use xlink:href="#Helvetica-61" x="905.957031"/>
      <use xlink:href="#Helvetica-74" x="961.572266"/>
      <use xlink:href="#Helvetica-69" x="989.355469"/>
      <use xlink:href="#Helvetica-76" x="1011.572266"/>
      <use xlink:href="#Helvetica-65" x="1061.572266"/>
      <use xlink:href="#Helvetica-20" x="1117.1875"/>
      <use xlink:href="#Helvetica-6d" x="1144.970703"/>
      <use xlink:href="#Helvetica-69" x="1228.271484"/>
      <use xlink:href="#Helvetica-64" x="1250.488281"/>
      <use xlink:href="#Helvetica-2d" x="1306.103516"/>
      <use xlink:href="#Helvetica-70" x="1339.404297"/>
      <use xlink:href="#Helvetica-61" x="1395.019531"/>
      <use xlink:href="#Helvetica-74" x="1450.634766"/>
      <use xlink:href="#Helvetica-68" x="1478.417969"/>
      <use xlink:href="#Helvetica-20" x="1534.033203"/>
      <use xlink:href="#Helvetica-62" x="1561.816406"/>
      <use xlink:href="#Helvetica-75" x="1617.431641"/>
      <use xlink:href="#Helvetica-64" x="1673.046875"/>
      <use xlink:href="#Helvetica-67" x="1728.662109"/>
      <use xlink:href="#Helvetica-65" x="1784.277344"/>
      <use xlink:href="#Helvetica-74" x="1839.892578"/>
      <use xlink:href="#Helvetica-29" x="1867.675781"/>
     </g>
    </g>
   </g>
   <g id="matplotlib.axis_2">
    <g id="ytick_1">
     <g id="line2d_15">
      <path d="M 61.446875 140.930857 
L 633.709375 140.930857 
" clip-path="url(#p2a3e606f57)" style="fill: none; stroke: #e2e8f0; stroke-width: 0.8; stroke-linecap: square"/>
     </g>
     <g id="line2d_16">
      <defs>
       <path id="mc16f82e9e8" d="M 0 0 
L -3.5 0 
" style="stroke: #4a5568; stroke-width: 0.8"/>
      </defs>
      <g>
       <use xlink:href="#mc16f82e9e8" x="61.446875" y="140.930857" style="fill: #4a5568; stroke: #4a5568; stroke-width: 0.8"/>
      </g>
     </g>
     <g id="text_9">
      <!-- Insert path -->
      <g style="fill: #4a5568" transform="translate(7.2 144.529295) scale(0.1 -0.1)">
       <defs>
        <path id="Helvetica-49" d="M 628 4591 
L 1256 4591 
L 1256 0 
L 628 0 
L 628 4591 
z
" transform="scale(0.015625)"/>
       </defs>
       <use xlink:href="#Helvetica-49"/>
       <use xlink:href="#Helvetica-6e" x="27.783203"/>
       <use xlink:href="#Helvetica-73" x="83.398438"/>
       <use xlink:href="#Helvetica-65" x="133.398438"/>
       <use xlink:href="#Helvetica-72" x="189.013672"/>
       <use xlink:href="#Helvetica-74" x="222.314453"/>
       <use xlink:href="#Helvetica-20" x="250.097656"/>
       <use xlink:href="#Helvetica-70" x="277.880859"/>
       <use xlink:href="#Helvetica-61" x="333.496094"/>
       <use xlink:href="#Helvetica-74" x="389.111328"/>
       <use xlink:href="#Helvetica-68" x="416.894531"/>
      </g>
     </g>
    </g>
   </g>
   <g id="patch_3">
    <path d="M 61.446875 242.886751 
L 125.031597 242.886751 
L 125.031597 38.974964 
L 61.446875 38.974964 
z
" clip-path="url(#p2a3e606f57)" style="fill: #0d7377; stroke: #ffffff; stroke-linejoin: miter"/>
   </g>
   <g id="patch_4">
    <path d="M 125.031597 242.886751 
L 273.395949 242.886751 
L 273.395949 38.974964 
L 125.031597 38.974964 
z
" clip-path="url(#p2a3e606f57)" style="fill: #1f4e79; stroke: #ffffff; stroke-linejoin: miter"/>
   </g>
   <g id="patch_5">
    <path d="M 273.395949 242.886751 
L 358.175579 242.886751 
L 358.175579 38.974964 
L 273.395949 38.974964 
z
" clip-path="url(#p2a3e606f57)" style="fill: #2c7a7b; stroke: #ffffff; stroke-linejoin: miter"/>
   </g>
   <g id="patch_6">
    <path d="M 358.175579 242.886751 
L 464.150116 242.886751 
L 464.150116 38.974964 
L 358.175579 38.974964 
z
" clip-path="url(#p2a3e606f57)" style="fill: #c4a35a; stroke: #ffffff; stroke-linejoin: miter"/>
   </g>
   <g id="patch_7">
    <path d="M 464.150116 242.886751 
L 591.31956 242.886751 
L 591.31956 38.974964 
L 464.150116 38.974964 
z
" clip-path="url(#p2a3e606f57)" style="fill: #805ad5; stroke: #ffffff; stroke-linejoin: miter"/>
   </g>
   <g id="patch_8">
    <path d="M 61.446875 253.08234 
L 61.446875 28.779375 
" style="fill: none; stroke: #4a5568; stroke-width: 0.8; stroke-linejoin: miter; stroke-linecap: square"/>
   </g>
   <g id="patch_9">
    <path d="M 61.446875 253.08234 
L 633.709375 253.08234 
" style="fill: none; stroke: #4a5568; stroke-width: 0.8; stroke-linejoin: miter; stroke-linecap: square"/>
   </g>
   <g id="text_10">
    <!-- 15 -->
    <g style="fill: #ffffff" transform="translate(88.234392 143.220936) scale(0.09 -0.09)">
     <defs>
      <path id="Helvetica-35" d="M 791 1141 
Q 847 659 1238 475 
Q 1438 381 1700 381 
Q 2200 381 2440 700 
Q 2681 1019 2681 1406 
Q 2681 1875 2395 2131 
Q 2109 2388 1709 2388 
Q 1419 2388 1211 2275 
Q 1003 2163 856 1963 
L 369 1991 
L 709 4400 
L 3034 4400 
L 3034 3856 
L 1131 3856 
L 941 2613 
Q 1097 2731 1238 2791 
Q 1488 2894 1816 2894 
Q 2431 2894 2859 2497 
Q 3288 2100 3288 1491 
Q 3288 856 2895 371 
Q 2503 -113 1644 -113 
Q 1097 -113 676 195 
Q 256 503 206 1141 
L 791 1141 
z
" transform="scale(0.015625)"/>
     </defs>
     <use xlink:href="#Helvetica-31"/>
     <use xlink:href="#Helvetica-35" x="55.615234"/>
    </g>
   </g>
   <g id="text_11">
    <!-- 35 -->
    <g style="fill: #ffffff" transform="translate(194.208929 143.220936) scale(0.09 -0.09)">
     <defs>
      <path id="Helvetica-33" d="M 1663 -122 
Q 869 -122 511 314 
Q 153 750 153 1375 
L 741 1375 
Q 778 941 903 744 
Q 1122 391 1694 391 
Q 2138 391 2406 628 
Q 2675 866 2675 1241 
Q 2675 1703 2392 1887 
Q 2109 2072 1606 2072 
Q 1550 2072 1492 2070 
Q 1434 2069 1375 2066 
L 1375 2563 
Q 1463 2553 1522 2550 
Q 1581 2547 1650 2547 
Q 1966 2547 2169 2647 
Q 2525 2822 2525 3272 
Q 2525 3606 2287 3787 
Q 2050 3969 1734 3969 
Q 1172 3969 956 3594 
Q 838 3388 822 3006 
L 266 3006 
Q 266 3506 466 3856 
Q 809 4481 1675 4481 
Q 2359 4481 2734 4176 
Q 3109 3872 3109 3294 
Q 3109 2881 2888 2625 
Q 2750 2466 2531 2375 
Q 2884 2278 3082 2001 
Q 3281 1725 3281 1325 
Q 3281 684 2859 281 
Q 2438 -122 1663 -122 
z
" transform="scale(0.015625)"/>
     </defs>
     <use xlink:href="#Helvetica-33"/>
     <use xlink:href="#Helvetica-35" x="55.615234"/>
    </g>
   </g>
   <g id="text_12">
    <!-- 20 -->
    <g style="fill: #ffffff" transform="translate(310.78092 143.220936) scale(0.09 -0.09)">
     <use xlink:href="#Helvetica-32"/>
     <use xlink:href="#Helvetica-30" x="55.615234"/>
    </g>
   </g>
   <g id="text_13">
    <!-- 25 -->
    <g style="fill: #ffffff" transform="translate(406.158003 143.220936) scale(0.09 -0.09)">
     <use xlink:href="#Helvetica-32"/>
     <use xlink:href="#Helvetica-35" x="55.615234"/>
    </g>
   </g>
   <g id="text_14">
    <!-- 30 -->
    <g style="fill: #ffffff" transform="translate(522.729994 143.220936) scale(0.09 -0.09)">
     <use xlink:href="#Helvetica-33"/>
     <use xlink:href="#Helvetica-30" x="55.615234"/>
    </g>
   </g>
   <g id="text_15">
    <!-- Hot-Path Latency Budget — Non-Crossing Limit Insert -->
    <g style="fill: #0b1f3a" transform="translate(191.517188 16.779375) scale(0.13 -0.13)">
     <defs>
      <path id="Helvetica-48" d="M 503 4591 
L 1131 4591 
L 1131 2694 
L 3519 2694 
L 3519 4591 
L 4147 4591 
L 4147 0 
L 3519 0 
L 3519 2147 
L 1131 2147 
L 1131 0 
L 503 0 
L 503 4591 
z
" transform="scale(0.015625)"/>
      <path id="Helvetica-50" d="M 547 4591 
L 2613 4591 
Q 3225 4591 3600 4245 
Q 3975 3900 3975 3275 
Q 3975 2738 3640 2339 
Q 3306 1941 2613 1941 
L 1169 1941 
L 1169 0 
L 547 0 
L 547 4591 
z
M 3347 3272 
Q 3347 3778 2972 3959 
Q 2766 4056 2406 4056 
L 1169 4056 
L 1169 2466 
L 2406 2466 
Q 2825 2466 3086 2644 
Q 3347 2822 3347 3272 
z
" transform="scale(0.015625)"/>
      <path id="Helvetica-4c" d="M 488 4591 
L 1109 4591 
L 1109 547 
L 3434 547 
L 3434 0 
L 488 0 
L 488 4591 
z
" transform="scale(0.015625)"/>
      <path id="Helvetica-79" d="M 2503 3347 
L 3125 3347 
Q 3006 3025 2597 1878 
Q 2291 1016 2084 472 
Q 1597 -809 1397 -1090 
Q 1197 -1372 709 -1372 
Q 591 -1372 527 -1362 
Q 463 -1353 369 -1328 
L 369 -816 
Q 516 -856 581 -865 
Q 647 -875 697 -875 
Q 853 -875 926 -823 
Q 1000 -772 1050 -697 
Q 1066 -672 1162 -440 
Q 1259 -209 1303 -97 
L 66 3347 
L 703 3347 
L 1600 622 
L 2503 3347 
z
M 1597 3428 
L 1597 3428 
z
" transform="scale(0.015625)"/>
      <path id="Helvetica-42" d="M 2213 2650 
Q 2606 2650 2825 2759 
Q 3169 2931 3169 3378 
Q 3169 3828 2803 3984 
Q 2597 4072 2191 4072 
L 1081 4072 
L 1081 2650 
L 2213 2650 
z
M 2422 531 
Q 2994 531 3238 863 
Q 3391 1072 3391 1369 
Q 3391 1869 2944 2050 
Q 2706 2147 2316 2147 
L 1081 2147 
L 1081 531 
L 2422 531 
z
M 472 4591 
L 2444 4591 
Q 3250 4591 3591 4109 
Q 3791 3825 3791 3453 
Q 3791 3019 3544 2741 
Q 3416 2594 3175 2472 
Q 3528 2338 3703 2169 
Q 4013 1869 4013 1341 
Q 4013 897 3734 538 
Q 3319 0 2413 0 
L 472 0 
L 472 4591 
z
" transform="scale(0.015625)"/>
      <path id="Helvetica-2014" d="M 753 2000 
L 5644 2000 
L 5644 1541 
L 753 1541 
L 753 2000 
z
" transform="scale(0.015625)"/>
      <path id="Helvetica-43" d="M 2422 4716 
Q 3294 4716 3775 4256 
Q 4256 3797 4309 3213 
L 3703 3213 
Q 3600 3656 3292 3915 
Q 2984 4175 2428 4175 
Q 1750 4175 1333 3698 
Q 916 3222 916 2238 
Q 916 1431 1292 929 
Q 1669 428 2416 428 
Q 3103 428 3463 956 
Q 3653 1234 3747 1688 
L 4353 1688 
Q 4272 963 3816 472 
Q 3269 -119 2341 -119 
Q 1541 -119 997 366 
Q 281 1006 281 2344 
Q 281 3359 819 4009 
Q 1400 4716 2422 4716 
z
M 2297 4716 
L 2297 4716 
z
" transform="scale(0.015625)"/>
     </defs>
     <use xlink:href="#Helvetica-48"/>
     <use xlink:href="#Helvetica-6f" x="72.216797"/>
     <use xlink:href="#Helvetica-74" x="127.832031"/>
     <use xlink:href="#Helvetica-2d" x="155.615234"/>
     <use xlink:href="#Helvetica-50" x="188.916016"/>
     <use xlink:href="#Helvetica-61" x="255.615234"/>
     <use xlink:href="#Helvetica-74" x="311.230469"/>
     <use xlink:href="#Helvetica-68" x="339.013672"/>
     <use xlink:href="#Helvetica-20" x="394.628906"/>
     <use xlink:href="#Helvetica-4c" x="422.412109"/>
     <use xlink:href="#Helvetica-61" x="478.027344"/>
     <use xlink:href="#Helvetica-74" x="533.642578"/>
     <use xlink:href="#Helvetica-65" x="561.425781"/>
     <use xlink:href="#Helvetica-6e" x="617.041016"/>
     <use xlink:href="#Helvetica-63" x="672.65625"/>
     <use xlink:href="#Helvetica-79" x="722.65625"/>
     <use xlink:href="#Helvetica-20" x="772.65625"/>
     <use xlink:href="#Helvetica-42" x="800.439453"/>
     <use xlink:href="#Helvetica-75" x="867.138672"/>
     <use xlink:href="#Helvetica-64" x="922.753906"/>
     <use xlink:href="#Helvetica-67" x="978.369141"/>
     <use xlink:href="#Helvetica-65" x="1033.984375"/>
     <use xlink:href="#Helvetica-74" x="1089.599609"/>
     <use xlink:href="#Helvetica-20" x="1117.382812"/>
     <use xlink:href="#Helvetica-2014" x="1145.166016"/>
     <use xlink:href="#Helvetica-20" x="1245.166016"/>
     <use xlink:href="#Helvetica-4e" x="1272.949219"/>
     <use xlink:href="#Helvetica-6f" x="1345.166016"/>
     <use xlink:href="#Helvetica-6e" x="1400.78125"/>
     <use xlink:href="#Helvetica-2d" x="1456.396484"/>
     <use xlink:href="#Helvetica-43" x="1489.697266"/>
     <use xlink:href="#Helvetica-72" x="1561.914062"/>
     <use xlink:href="#Helvetica-6f" x="1595.214844"/>
     <use xlink:href="#Helvetica-73" x="1650.830078"/>
     <use xlink:href="#Helvetica-73" x="1700.830078"/>
     <use xlink:href="#Helvetica-69" x="1750.830078"/>
     <use xlink:href="#Helvetica-6e" x="1773.046875"/>
     <use xlink:href="#Helvetica-67" x="1828.662109"/>
     <use xlink:href="#Helvetica-20" x="1884.277344"/>
     <use xlink:href="#Helvetica-4c" x="1912.060547"/>
     <use xlink:href="#Helvetica-69" x="1967.675781"/>
     <use xlink:href="#Helvetica-6d" x="1989.892578"/>
     <use xlink:href="#Helvetica-69" x="2073.193359"/>
     <use xlink:href="#Helvetica-74" x="2095.410156"/>
     <use xlink:href="#Helvetica-20" x="2123.193359"/>
     <use xlink:href="#Helvetica-49" x="2150.976562"/>
     <use xlink:href="#Helvetica-6e" x="2178.759766"/>
     <use xlink:href="#Helvetica-73" x="2234.375"/>
     <use xlink:href="#Helvetica-65" x="2284.375"/>
     <use xlink:href="#Helvetica-72" x="2339.990234"/>
     <use xlink:href="#Helvetica-74" x="2373.291016"/>
    </g>
   </g>
   <g id="legend_1">
    <g id="patch_10">
     <path d="M 146.024375 306.489374 
L 162.024375 306.489374 
L 162.024375 300.889374 
L 146.024375 300.889374 
z
" style="fill: #0d7377; stroke: #ffffff; stroke-linejoin: miter"/>
    </g>
    <g id="text_16">
     <!-- Validate &amp; allocate (~15 ns) -->
     <g style="fill: #0b1f3a" transform="translate(168.424375 306.489374) scale(0.08 -0.08)">
      <defs>
       <path id="Helvetica-56" d="M 850 4591 
L 2169 681 
L 3472 4591 
L 4169 4591 
L 2494 0 
L 1834 0 
L 163 4591 
L 850 4591 
z
" transform="scale(0.015625)"/>
       <path id="Helvetica-26" d="M 1828 2806 
Q 2125 3016 2238 3147 
Q 2422 3359 2422 3619 
Q 2422 3822 2287 3969 
Q 2153 4116 1925 4116 
Q 1578 4116 1444 3884 
Q 1375 3766 1375 3625 
Q 1375 3434 1479 3259 
Q 1584 3084 1828 2806 
z
M 1684 388 
Q 2031 388 2281 547 
Q 2531 706 2666 903 
L 1628 2169 
Q 1188 1875 1053 1719 
Q 847 1484 847 1147 
Q 847 781 1114 584 
Q 1381 388 1684 388 
z
M 1316 2553 
Q 1025 2888 926 3116 
Q 828 3344 828 3556 
Q 828 4000 1128 4292 
Q 1428 4584 1931 4584 
Q 2409 4584 2678 4312 
Q 2947 4041 2947 3663 
Q 2947 3222 2669 2891 
Q 2506 2697 2125 2444 
L 2963 1444 
Q 3047 1694 3080 1817 
Q 3113 1941 3147 2163 
L 3681 2163 
Q 3628 1722 3468 1317 
Q 3309 913 3309 991 
L 4125 0 
L 3400 0 
L 2969 525 
Q 2713 247 2500 119 
Q 2128 -106 1644 -106 
Q 928 -106 603 280 
Q 278 666 278 1150 
Q 278 1672 594 2022 
Q 788 2234 1316 2553 
z
" transform="scale(0.015625)"/>
       <path id="Helvetica-7e" d="M 1028 2163 
Q 1119 2163 1219 2147 
Q 1397 2122 1563 2056 
L 2256 1784 
Q 2416 1722 2519 1691 
Q 2684 1644 2809 1644 
Q 3038 1644 3197 1823 
Q 3356 2003 3413 2266 
L 3775 2266 
Q 3697 1822 3467 1456 
Q 3238 1091 2772 1091 
Q 2631 1091 2438 1147 
Q 2325 1181 2103 1266 
L 1466 1509 
Q 1347 1556 1220 1581 
Q 1094 1606 1013 1606 
Q 750 1606 600 1403 
Q 513 1284 422 1000 
L 56 1000 
Q 109 1259 171 1442 
Q 234 1625 391 1856 
Q 522 2013 673 2088 
Q 825 2163 1028 2163 
z
" transform="scale(0.015625)"/>
      </defs>
      <use xlink:href="#Helvetica-56"/>
      <use xlink:href="#Helvetica-61" x="66.699219"/>
      <use xlink:href="#Helvetica-6c" x="122.314453"/>
      <use xlink:href="#Helvetica-69" x="144.53125"/>
      <use xlink:href="#Helvetica-64" x="166.748047"/>
      <use xlink:href="#Helvetica-61" x="222.363281"/>
      <use xlink:href="#Helvetica-74" x="277.978516"/>
      <use xlink:href="#Helvetica-65" x="305.761719"/>
      <use xlink:href="#Helvetica-20" x="361.376953"/>
      <use xlink:href="#Helvetica-26" x="389.160156"/>
      <use xlink:href="#Helvetica-20" x="455.859375"/>
      <use xlink:href="#Helvetica-61" x="483.642578"/>
      <use xlink:href="#Helvetica-6c" x="539.257812"/>
      <use xlink:href="#Helvetica-6c" x="561.474609"/>
      <use xlink:href="#Helvetica-6f" x="583.691406"/>
      <use xlink:href="#Helvetica-63" x="639.306641"/>
      <use xlink:href="#Helvetica-61" x="689.306641"/>
      <use xlink:href="#Helvetica-74" x="744.921875"/>
      <use xlink:href="#Helvetica-65" x="772.705078"/>
      <use xlink:href="#Helvetica-20" x="828.320312"/>
      <use xlink:href="#Helvetica-28" x="856.103516"/>
      <use xlink:href="#Helvetica-7e" x="889.404297"/>
      <use xlink:href="#Helvetica-31" x="947.802734"/>
      <use xlink:href="#Helvetica-35" x="1003.417969"/>
      <use xlink:href="#Helvetica-20" x="1059.033203"/>
      <use xlink:href="#Helvetica-6e" x="1086.816406"/>
      <use xlink:href="#Helvetica-73" x="1142.431641"/>
      <use xlink:href="#Helvetica-29" x="1192.431641"/>
     </g>
    </g>
    <g id="patch_11">
     <path d="M 146.024375 317.954374 
L 162.024375 317.954374 
L 162.024375 312.354374 
L 146.024375 312.354374 
z
" style="fill: #1f4e79; stroke: #ffffff; stroke-linejoin: miter"/>
    </g>
    <g id="text_17">
     <!-- ID index insert (~35 ns) -->
     <g style="fill: #0b1f3a" transform="translate(168.424375 317.954374) scale(0.08 -0.08)">
      <defs>
       <path id="Helvetica-44" d="M 2250 531 
Q 2566 531 2769 597 
Q 3131 719 3363 1066 
Q 3547 1344 3628 1778 
Q 3675 2038 3675 2259 
Q 3675 3113 3336 3584 
Q 2997 4056 2244 4056 
L 1141 4056 
L 1141 531 
L 2250 531 
z
M 516 4591 
L 2375 4591 
Q 3322 4591 3844 3919 
Q 4309 3313 4309 2366 
Q 4309 1634 4034 1044 
Q 3550 0 2369 0 
L 516 0 
L 516 4591 
z
" transform="scale(0.015625)"/>
       <path id="Helvetica-78" d="M 94 3347 
L 822 3347 
L 1591 2169 
L 2369 3347 
L 3053 3331 
L 1925 1716 
L 3103 0 
L 2384 0 
L 1553 1256 
L 747 0 
L 34 0 
L 1213 1716 
L 94 3347 
z
" transform="scale(0.015625)"/>
      </defs>
      <use xlink:href="#Helvetica-49"/>
      <use xlink:href="#Helvetica-44" x="27.783203"/>
      <use xlink:href="#Helvetica-20" x="100"/>
      <use xlink:href="#Helvetica-69" x="127.783203"/>
      <use xlink:href="#Helvetica-6e" x="150"/>
      <use xlink:href="#Helvetica-64" x="205.615234"/>
      <use xlink:href="#Helvetica-65" x="261.230469"/>
      <use xlink:href="#Helvetica-78" x="316.845703"/>
      <use xlink:href="#Helvetica-20" x="366.845703"/>
      <use xlink:href="#Helvetica-69" x="394.628906"/>
      <use xlink:href="#Helvetica-6e" x="416.845703"/>
      <use xlink:href="#Helvetica-73" x="472.460938"/>
      <use xlink:href="#Helvetica-65" x="522.460938"/>
      <use xlink:href="#Helvetica-72" x="578.076172"/>
      <use xlink:href="#Helvetica-74" x="611.376953"/>
      <use xlink:href="#Helvetica-20" x="639.160156"/>
      <use xlink:href="#Helvetica-28" x="666.943359"/>
      <use xlink:href="#Helvetica-7e" x="700.244141"/>
      <use xlink:href="#Helvetica-33" x="758.642578"/>
      <use xlink:href="#Helvetica-35" x="814.257812"/>
      <use xlink:href="#Helvetica-20" x="869.873047"/>
      <use xlink:href="#Helvetica-6e" x="897.65625"/>
      <use xlink:href="#Helvetica-73" x="953.271484"/>
      <use xlink:href="#Helvetica-29" x="1003.271484"/>
     </g>
    </g>
    <g id="patch_12">
     <path d="M 282.478125 306.489374 
L 298.478125 306.489374 
L 298.478125 300.889374 
L 282.478125 300.889374 
z
" style="fill: #2c7a7b; stroke: #ffffff; stroke-linejoin: miter"/>
    </g>
    <g id="text_18">
     <!-- Level append (~20 ns) -->
     <g style="fill: #0b1f3a" transform="translate(304.878125 306.489374) scale(0.08 -0.08)">
      <use xlink:href="#Helvetica-4c"/>
      <use xlink:href="#Helvetica-65" x="55.615234"/>
      <use xlink:href="#Helvetica-76" x="111.230469"/>
      <use xlink:href="#Helvetica-65" x="161.230469"/>
      <use xlink:href="#Helvetica-6c" x="216.845703"/>
      <use xlink:href="#Helvetica-20" x="239.0625"/>
      <use xlink:href="#Helvetica-61" x="266.845703"/>
      <use xlink:href="#Helvetica-70" x="322.460938"/>
      <use xlink:href="#Helvetica-70" x="378.076172"/>
      <use xlink:href="#Helvetica-65" x="433.691406"/>
      <use xlink:href="#Helvetica-6e" x="489.306641"/>
      <use xlink:href="#Helvetica-64" x="544.921875"/>
      <use xlink:href="#Helvetica-20" x="600.537109"/>
      <use xlink:href="#Helvetica-28" x="628.320312"/>
      <use xlink:href="#Helvetica-7e" x="661.621094"/>
      <use xlink:href="#Helvetica-32" x="720.019531"/>
      <use xlink:href="#Helvetica-30" x="775.634766"/>
      <use xlink:href="#Helvetica-20" x="831.25"/>
      <use xlink:href="#Helvetica-6e" x="859.033203"/>
      <use xlink:href="#Helvetica-73" x="914.648438"/>
      <use xlink:href="#Helvetica-29" x="964.648438"/>
     </g>
    </g>
    <g id="patch_13">
     <path d="M 282.478125 317.989374 
L 298.478125 317.989374 
L 298.478125 312.389374 
L 282.478125 312.389374 
z
" style="fill: #c4a35a; stroke: #ffffff; stroke-linejoin: miter"/>
    </g>
    <g id="text_19">
     <!-- Match (empty opp.) (~25 ns) -->
     <g style="fill: #0b1f3a" transform="translate(304.878125 317.989374) scale(0.08 -0.08)">
      <defs>
       <path id="Helvetica-4d" d="M 472 4591 
L 1363 4591 
L 2681 709 
L 3991 4591 
L 4872 4591 
L 4872 0 
L 4281 0 
L 4281 2709 
Q 4281 2850 4287 3175 
Q 4294 3500 4294 3872 
L 2984 0 
L 2369 0 
L 1050 3872 
L 1050 3731 
Q 1050 3563 1058 3217 
Q 1066 2872 1066 2709 
L 1066 0 
L 472 0 
L 472 4591 
z
" transform="scale(0.015625)"/>
       <path id="Helvetica-2e" d="M 547 681 
L 1200 681 
L 1200 0 
L 547 0 
L 547 681 
z
" transform="scale(0.015625)"/>
      </defs>
      <use xlink:href="#Helvetica-4d"/>
      <use xlink:href="#Helvetica-61" x="83.300781"/>
      <use xlink:href="#Helvetica-74" x="138.916016"/>
      <use xlink:href="#Helvetica-63" x="166.699219"/>
      <use xlink:href="#Helvetica-68" x="216.699219"/>
      <use xlink:href="#Helvetica-20" x="272.314453"/>
      <use xlink:href="#Helvetica-28" x="300.097656"/>
      <use xlink:href="#Helvetica-65" x="333.398438"/>
      <use xlink:href="#Helvetica-6d" x="389.013672"/>
      <use xlink:href="#Helvetica-70" x="472.314453"/>
      <use xlink:href="#Helvetica-74" x="527.929688"/>
      <use xlink:href="#Helvetica-79" x="555.712891"/>
      <use xlink:href="#Helvetica-20" x="605.712891"/>
      <use xlink:href="#Helvetica-6f" x="633.496094"/>
      <use xlink:href="#Helvetica-70" x="689.111328"/>
      <use xlink:href="#Helvetica-70" x="744.726562"/>
      <use xlink:href="#Helvetica-2e" x="800.341797"/>
      <use xlink:href="#Helvetica-29" x="828.125"/>
      <use xlink:href="#Helvetica-20" x="861.425781"/>
      <use xlink:href="#Helvetica-28" x="889.208984"/>
      <use xlink:href="#Helvetica-7e" x="922.509766"/>
      <use xlink:href="#Helvetica-32" x="980.908203"/>
      <use xlink:href="#Helvetica-35" x="1036.523438"/>
      <use xlink:href="#Helvetica-20" x="1092.138672"/>
      <use xlink:href="#Helvetica-6e" x="1119.921875"/>
      <use xlink:href="#Helvetica-73" x="1175.537109"/>
      <use xlink:href="#Helvetica-29" x="1225.537109"/>
     </g>
    </g>
    <g id="patch_14">
     <path d="M 421.578125 306.489374 
L 437.578125 306.489374 
L 437.578125 300.889374 
L 421.578125 300.889374 
z
" style="fill: #805ad5; stroke: #ffffff; stroke-linejoin: miter"/>
    </g>
    <g id="text_20">
     <!-- Emit event (optional) (~30 ns) -->
     <g style="fill: #0b1f3a" transform="translate(443.978125 306.489374) scale(0.08 -0.08)">
      <defs>
       <path id="Helvetica-45" d="M 547 4591 
L 3894 4591 
L 3894 4028 
L 1153 4028 
L 1153 2634 
L 3688 2634 
L 3688 2103 
L 1153 2103 
L 1153 547 
L 3941 547 
L 3941 0 
L 547 0 
L 547 4591 
z
M 2244 4591 
L 2244 4591 
z
" transform="scale(0.015625)"/>
      </defs>
      <use xlink:href="#Helvetica-45"/>
      <use xlink:href="#Helvetica-6d" x="66.699219"/>
      <use xlink:href="#Helvetica-69" x="150"/>
      <use xlink:href="#Helvetica-74" x="172.216797"/>
      <use xlink:href="#Helvetica-20" x="200"/>
      <use xlink:href="#Helvetica-65" x="227.783203"/>
      <use xlink:href="#Helvetica-76" x="283.398438"/>
      <use xlink:href="#Helvetica-65" x="333.398438"/>
      <use xlink:href="#Helvetica-6e" x="389.013672"/>
      <use xlink:href="#Helvetica-74" x="444.628906"/>
      <use xlink:href="#Helvetica-20" x="472.412109"/>
      <use xlink:href="#Helvetica-28" x="500.195312"/>
      <use xlink:href="#Helvetica-6f" x="533.496094"/>
      <use xlink:href="#Helvetica-70" x="589.111328"/>
      <use xlink:href="#Helvetica-74" x="644.726562"/>
      <use xlink:href="#Helvetica-69" x="672.509766"/>
      <use xlink:href="#Helvetica-6f" x="694.726562"/>
      <use xlink:href="#Helvetica-6e" x="750.341797"/>
      <use xlink:href="#Helvetica-61" x="805.957031"/>
      <use xlink:href="#Helvetica-6c" x="861.572266"/>
      <use xlink:href="#Helvetica-29" x="883.789062"/>
      <use xlink:href="#Helvetica-20" x="917.089844"/>
      <use xlink:href="#Helvetica-28" x="944.873047"/>
      <use xlink:href="#Helvetica-7e" x="978.173828"/>
      <use xlink:href="#Helvetica-33" x="1036.572266"/>
      <use xlink:href="#Helvetica-30" x="1092.1875"/>
      <use xlink:href="#Helvetica-20" x="1147.802734"/>
      <use xlink:href="#Helvetica-6e" x="1175.585938"/>
      <use xlink:href="#Helvetica-73" x="1231.201172"/>
      <use xlink:href="#Helvetica-29" x="1281.201172"/>
     </g>
    </g>
   </g>
  </g>
 </g>
 <defs>
  <clipPath id="p2a3e606f57">
   <rect x="61.446875" y="28.779375" width="572.2625" height="224.302965"/>
  </clipPath>
 </defs>
</svg>
