<?xml version="1.0" encoding="utf-8" standalone="no"?>
<!DOCTYPE svg PUBLIC "-//W3C//DTD SVG 1.1//EN"
  "http://www.w3.org/Graphics/SVG/1.1/DTD/svg11.dtd">
<svg xmlns:xlink="http://www.w3.org/1999/xlink" width="640.407812pt" height="365.91875pt" viewBox="0 0 640.407812 365.91875" xmlns="http://www.w3.org/2000/svg" version="1.1">
 <metadata>
  <rdf:RDF xmlns:dc="http://purl.org/dc/elements/1.1/" xmlns:cc="http://creativecommons.org/ns#" xmlns:rdf="http://www.w3.org/1999/02/22-rdf-syntax-ns#">
   <cc:Work>
    <dc:type rdf:resource="http://purl.org/dc/dcmitype/StillImage"/>
    <dc:date>2026-07-12T11:34:36.659409</dc:date>
    <dc:format>image/svg+xml</dc:format>
    <dc:creator>
     <cc:Agent>
      <dc:title>Matplotlib v3.9.4, https://matplotlib.org/</dc:title>
     </cc:Agent>
    </dc:creator>
   </cc:Work>
  </rdf:RDF>
 </metadata>
 <defs>
  <style type="text/css">*{stroke-linejoin: round; stroke-linecap: butt}</style>
 </defs>
 <g id="figure_1">
  <g id="patch_1">
   <path d="M -0 365.91875 
L 640.407812 365.91875 
L 640.407812 0 
L -0 0 
z
" style="fill: #ffffff"/>
  </g>
  <g id="axes_1">
   <g id="patch_2">
    <path d="M 49.701563 328.957813 
L 633.207812 328.957813 
L 633.207812 28.677813 
L 49.701563 28.677813 
z
" style="fill: #f7f9fc"/>
   </g>
   <g id="matplotlib.axis_1">
    <g id="xtick_1">
     <g id="line2d_1">
      <path d="M 146.588356 328.957813 
L 146.588356 28.677813 
" clip-path="url(#p014543b727)" style="fill: none; stroke: #e2e8f0; stroke-width: 0.8; stroke-linecap: square"/>
     </g>
     <g id="line2d_2">
      <defs>
       <path id="m025c5ac42b" d="M 0 0 
L 0 3.5 
" style="stroke: #4a5568; stroke-width: 0.8"/>
      </defs>
      <g>
       <use xlink:href="#m025c5ac42b" x="146.588356" y="328.957813" style="fill: #4a5568; stroke: #4a5568; stroke-width: 0.8"/>
      </g>
     </g>
     <g id="text_1">
      <!-- $\mathdefault{10^{2}}$ -->
      <g style="fill: #4a5568" transform="translate(138.888356 343.13125) scale(0.1 -0.1)">
       <defs>
        <path id="Helvetica-31" d="M 613 3169 
L 613 3600 
Q 1222 3659 1462 3798 
Q 1703 3938 1822 4456 
L 2266 4456 
L 2266 0 
L 1666 0 
L 1666 3169 
L 613 3169 
z
" transform="scale(0.015625)"/>
        <path id="Helvetica-30" d="M 1731 4475 
Q 2600 4475 2988 3759 
Q 3288 3206 3288 2244 
Q 3288 1331 3016 734 
Q 2622 -122 1728 -122 
Q 922 -122 528 578 
Q 200 1163 200 2147 
Q 200 2909 397 3456 
Q 766 4475 1731 4475 
z
M 1725 391 
Q 2163 391 2422 778 
Q 2681 1166 2681 2222 
Q 2681 2984 2493 3476 
Q 2306 3969 1766 3969 
Q 1269 3969 1039 3501 
Q 809 3034 809 2125 
Q 809 1441 956 1025 
Q 1181 391 1725 391 
z
" transform="scale(0.015625)"/>
        <path id="Helvetica-32" d="M 200 0 
Q 231 578 439 1006 
Q 647 1434 1250 1784 
L 1850 2131 
Q 2253 2366 2416 2531 
Q 2672 2791 2672 3125 
Q 2672 3516 2437 3745 
Q 2203 3975 1813 3975 
Q 1234 3975 1013 3538 
Q 894 3303 881 2888 
L 309 2888 
Q 319 3472 525 3841 
Q 891 4491 1816 4491 
Q 2584 4491 2939 4075 
Q 3294 3659 3294 3150 
Q 3294 2613 2916 2231 
Q 2697 2009 2131 1694 
L 1703 1456 
Q 1397 1288 1222 1134 
Q 909 863 828 531 
L 3272 531 
L 3272 0 
L 200 0 
z
" transform="scale(0.015625)"/>
       </defs>
       <use xlink:href="#Helvetica-31" transform="translate(0 0.271875)"/>
       <use xlink:href="#Helvetica-30" transform="translate(55.615234 0.271875)"/>
       <use xlink:href="#Helvetica-32" transform="translate(112.145664 36.879688) scale(0.7)"/>
      </g>
     </g>
    </g>
    <g id="xtick_2">
     <g id="line2d_3">
      <path d="M 323.408432 328.957813 
L 323.408432 28.677813 
" clip-path="url(#p014543b727)" style="fill: none; stroke: #e2e8f0; stroke-width: 0.8; stroke-linecap: square"/>
     </g>
     <g id="line2d_4">
      <g>
       <use xlink:href="#m025c5ac42b" x="323.408432" y="328.957813" style="fill: #4a5568; stroke: #4a5568; stroke-width: 0.8"/>
      </g>
     </g>
     <g id="text_2">
      <!-- $\mathdefault{10^{3}}$ -->
      <g style="fill: #4a5568" transform="translate(315.708432 343.13125) scale(0.1 -0.1)">
       <defs>
        <path id="Helvetica-33" d="M 1663 -122 
Q 869 -122 511 314 
Q 153 750 153 1375 
L 741 1375 
Q 778 941 903 744 
Q 1122 391 1694 391 
Q 2138 391 2406 628 
Q 2675 866 2675 1241 
Q 2675 1703 2392 1887 
Q 2109 2072 1606 2072 
Q 1550 2072 1492 2070 
Q 1434 2069 1375 2066 
L 1375 2563 
Q 1463 2553 1522 2550 
Q 1581 2547 1650 2547 
Q 1966 2547 2169 2647 
Q 2525 2822 2525 3272 
Q 2525 3606 2287 3787 
Q 2050 3969 1734 3969 
Q 1172 3969 956 3594 
Q 838 3388 822 3006 
L 266 3006 
Q 266 3506 466 3856 
Q 809 4481 1675 4481 
Q 2359 4481 2734 4176 
Q 3109 3872 3109 3294 
Q 3109 2881 2888 2625 
Q 2750 2466 2531 2375 
Q 2884 2278 3082 2001 
Q 3281 1725 3281 1325 
Q 3281 684 2859 281 
Q 2438 -122 1663 -122 
z
" transform="scale(0.015625)"/>
       </defs>
       <use xlink:href="#Helvetica-31" transform="translate(0 0.38125)"/>
       <use xlink:href="#Helvetica-30" transform="translate(55.615234 0.38125)"/>
       <use xlink:href="#Helvetica-33" transform="translate(112.145664 36.989063) scale(0.7)"/>
      </g>
     </g>
    </g>
    <g id="xtick_3">
     <g id="line2d_5">
      <path d="M 500.228508 328.957813 
L 500.228508 28.677813 
" clip-path="url(#p014543b727)" style="fill: none; stroke: #e2e8f0; stroke-width: 0.8; stroke-linecap: square"/>
     </g>
     <g id="line2d_6">
      <g>
       <use xlink:href="#m025c5ac42b" x="500.228508" y="328.957813" style="fill: #4a5568; stroke: #4a5568; stroke-width: 0.8"/>
      </g>
     </g>
     <g id="text_3">
      <!-- $\mathdefault{10^{4}}$ -->
      <g style="fill: #4a5568" transform="translate(492.528508 343.13125) scale(0.1 -0.1)">
       <defs>
        <path id="Helvetica-34" d="M 2116 1584 
L 2116 3613 
L 681 1584 
L 2116 1584 
z
M 2125 0 
L 2125 1094 
L 163 1094 
L 163 1644 
L 2213 4488 
L 2688 4488 
L 2688 1584 
L 3347 1584 
L 3347 1094 
L 2688 1094 
L 2688 0 
L 2125 0 
z
" transform="scale(0.015625)"/>
       </defs>
       <use xlink:href="#Helvetica-31" transform="translate(0 0.304688)"/>
       <use xlink:href="#Helvetica-30" transform="translate(55.615234 0.304688)"/>
       <use xlink:href="#Helvetica-34" transform="translate(112.145664 36.9125) scale(0.7)"/>
      </g>
     </g>
    </g>
    <g id="xtick_4">
     <g id="line2d_7">
      <defs>
       <path id="m9691c95709" d="M 0 0 
L 0 2 
" style="stroke: #4a5568; stroke-width: 0.6"/>
      </defs>
      <g>
       <use xlink:href="#m9691c95709" x="54.132897" y="328.957813" style="fill: #4a5568; stroke: #4a5568; stroke-width: 0.6"/>
      </g>
     </g>
    </g>
    <g id="xtick_5">
     <g id="line2d_8">
      <g>
       <use xlink:href="#m9691c95709" x="76.224574" y="328.957813" style="fill: #4a5568; stroke: #4a5568; stroke-width: 0.6"/>
      </g>
     </g>
    </g>
    <g id="xtick_6">
     <g id="line2d_9">
      <g>
       <use xlink:href="#m9691c95709" x="93.36021" y="328.957813" style="fill: #4a5568; stroke: #4a5568; stroke-width: 0.6"/>
      </g>
     </g>
    </g>
    <g id="xtick_7">
     <g id="line2d_10">
      <g>
       <use xlink:href="#m9691c95709" x="107.361044" y="328.957813" style="fill: #4a5568; stroke: #4a5568; stroke-width: 0.6"/>
      </g>
     </g>
    </g>
    <g id="xtick_8">
     <g id="line2d_11">
      <g>
       <use xlink:href="#m9691c95709" x="119.19858" y="328.957813" style="fill: #4a5568; stroke: #4a5568; stroke-width: 0.6"/>
      </g>
     </g>
    </g>
    <g id="xtick_9">
     <g id="line2d_12">
      <g>
       <use xlink:href="#m9691c95709" x="129.452721" y="328.957813" style="fill: #4a5568; stroke: #4a5568; stroke-width: 0.6"/>
      </g>
     </g>
    </g>
    <g id="xtick_10">
     <g id="line2d_13">
      <g>
       <use xlink:href="#m9691c95709" x="138.497513" y="328.957813" style="fill: #4a5568; stroke: #4a5568; stroke-width: 0.6"/>
      </g>
     </g>
    </g>
    <g id="xtick_11">
     <g id="line2d_14">
      <g>
       <use xlink:href="#m9691c95709" x="199.816503" y="328.957813" style="fill: #4a5568; stroke: #4a5568; stroke-width: 0.6"/>
      </g>
     </g>
    </g>
    <g id="xtick_12">
     <g id="line2d_15">
      <g>
       <use xlink:href="#m9691c95709" x="230.952973" y="328.957813" style="fill: #4a5568; stroke: #4a5568; stroke-width: 0.6"/>
      </g>
     </g>
    </g>
    <g id="xtick_13">
     <g id="line2d_16">
      <g>
       <use xlink:href="#m9691c95709" x="253.04465" y="328.957813" style="fill: #4a5568; stroke: #4a5568; stroke-width: 0.6"/>
      </g>
     </g>
    </g>
    <g id="xtick_14">
     <g id="line2d_17">
      <g>
       <use xlink:href="#m9691c95709" x="270.180285" y="328.957813" style="fill: #4a5568; stroke: #4a5568; stroke-width: 0.6"/>
      </g>
     </g>
    </g>
    <g id="xtick_15">
     <g id="line2d_18">
      <g>
       <use xlink:href="#m9691c95709" x="284.181119" y="328.957813" style="fill: #4a5568; stroke: #4a5568; stroke-width: 0.6"/>
      </g>
     </g>
    </g>
    <g id="xtick_16">
     <g id="line2d_19">
      <g>
       <use xlink:href="#m9691c95709" x="296.018656" y="328.957813" style="fill: #4a5568; stroke: #4a5568; stroke-width: 0.6"/>
      </g>
     </g>
    </g>
    <g id="xtick_17">
     <g id="line2d_20">
      <g>
       <use xlink:href="#m9691c95709" x="306.272796" y="328.957813" style="fill: #4a5568; stroke: #4a5568; stroke-width: 0.6"/>
      </g>
     </g>
    </g>
    <g id="xtick_18">
     <g id="line2d_21">
      <g>
       <use xlink:href="#m9691c95709" x="315.317589" y="328.957813" style="fill: #4a5568; stroke: #4a5568; stroke-width: 0.6"/>
      </g>
     </g>
    </g>
    <g id="xtick_19">
     <g id="line2d_22">
      <g>
       <use xlink:href="#m9691c95709" x="376.636579" y="328.957813" style="fill: #4a5568; stroke: #4a5568; stroke-width: 0.6"/>
      </g>
     </g>
    </g>
    <g id="xtick_20">
     <g id="line2d_23">
      <g>
       <use xlink:href="#m9691c95709" x="407.773049" y="328.957813" style="fill: #4a5568; stroke: #4a5568; stroke-width: 0.6"/>
      </g>
     </g>
    </g>
    <g id="xtick_21">
     <g id="line2d_24">
      <g>
       <use xlink:href="#m9691c95709" x="429.864725" y="328.957813" style="fill: #4a5568; stroke: #4a5568; stroke-width: 0.6"/>
      </g>
     </g>
    </g>
    <g id="xtick_22">
     <g id="line2d_25">
      <g>
       <use xlink:href="#m9691c95709" x="447.000361" y="328.957813" style="fill: #4a5568; stroke: #4a5568; stroke-width: 0.6"/>
      </g>
     </g>
    </g>
    <g id="xtick_23">
     <g id="line2d_26">
      <g>
       <use xlink:href="#m9691c95709" x="461.001195" y="328.957813" style="fill: #4a5568; stroke: #4a5568; stroke-width: 0.6"/>
      </g>
     </g>
    </g>
    <g id="xtick_24">
     <g id="line2d_27">
      <g>
       <use xlink:href="#m9691c95709" x="472.838732" y="328.957813" style="fill: #4a5568; stroke: #4a5568; stroke-width: 0.6"/>
      </g>
     </g>
    </g>
    <g id="xtick_25">
     <g id="line2d_28">
      <g>
       <use xlink:href="#m9691c95709" x="483.092872" y="328.957813" style="fill: #4a5568; stroke: #4a5568; stroke-width: 0.6"/>
      </g>
     </g>
    </g>
    <g id="xtick_26">
     <g id="line2d_29">
      <g>
       <use xlink:href="#m9691c95709" x="492.137665" y="328.957813" style="fill: #4a5568; stroke: #4a5568; stroke-width: 0.6"/>
      </g>
     </g>
    </g>
    <g id="xtick_27">
     <g id="line2d_30">
      <g>
       <use xlink:href="#m9691c95709" x="553.456654" y="328.957813" style="fill: #4a5568; stroke: #4a5568; stroke-width: 0.6"/>
      </g>
     </g>
    </g>
    <g id="xtick_28">
     <g id="line2d_31">
      <g>
       <use xlink:href="#m9691c95709" x="584.593124" y="328.957813" style="fill: #4a5568; stroke: #4a5568; stroke-width: 0.6"/>
      </g>
     </g>
    </g>
    <g id="xtick_29">
     <g id="line2d_32">
      <g>
       <use xlink:href="#m9691c95709" x="606.684801" y="328.957813" style="fill: #4a5568; stroke: #4a5568; stroke-width: 0.6"/>
      </g>
     </g>
    </g>
    <g id="xtick_30">
     <g id="line2d_33">
      <g>
       <use xlink:href="#m9691c95709" x="623.820437" y="328.957813" style="fill: #4a5568; stroke: #4a5568; stroke-width: 0.6"/>
      </g>
     </g>
    </g>
    <g id="text_4">
     <!-- Latency (ns, log scale) -->
     <g style="fill: #0b1f3a" transform="translate(291.433594 356.50625) scale(0.1 -0.1)">
      <defs>
       <path id="Helvetica-4c" d="M 488 4591 
L 1109 4591 
L 1109 547 
L 3434 547 
L 3434 0 
L 488 0 
L 488 4591 
z
" transform="scale(0.015625)"/>
       <path id="Helvetica-61" d="M 844 891 
Q 844 647 1022 506 
Q 1200 366 1444 366 
Q 1741 366 2019 503 
Q 2488 731 2488 1250 
L 2488 1703 
Q 2384 1638 2221 1594 
Q 2059 1550 1903 1531 
L 1563 1488 
Q 1256 1447 1103 1359 
Q 844 1213 844 891 
z
M 2206 2028 
Q 2400 2053 2466 2191 
Q 2503 2266 2503 2406 
Q 2503 2694 2298 2823 
Q 2094 2953 1713 2953 
Q 1272 2953 1088 2716 
Q 984 2584 953 2325 
L 428 2325 
Q 444 2944 830 3186 
Q 1216 3428 1725 3428 
Q 2316 3428 2684 3203 
Q 3050 2978 3050 2503 
L 3050 575 
Q 3050 488 3086 434 
Q 3122 381 3238 381 
Q 3275 381 3322 386 
Q 3369 391 3422 400 
L 3422 -16 
Q 3291 -53 3222 -62 
Q 3153 -72 3034 -72 
Q 2744 -72 2613 134 
Q 2544 244 2516 444 
Q 2344 219 2022 53 
Q 1700 -113 1313 -113 
Q 847 -113 551 170 
Q 256 453 256 878 
Q 256 1344 547 1600 
Q 838 1856 1309 1916 
L 2206 2028 
z
M 1741 3428 
L 1741 3428 
z
" transform="scale(0.015625)"/>
       <path id="Helvetica-74" d="M 525 4281 
L 1094 4281 
L 1094 3347 
L 1628 3347 
L 1628 2888 
L 1094 2888 
L 1094 703 
Q 1094 528 1213 469 
Q 1278 434 1431 434 
Q 1472 434 1519 436 
Q 1566 438 1628 444 
L 1628 0 
Q 1531 -28 1426 -40 
Q 1322 -53 1200 -53 
Q 806 -53 665 148 
Q 525 350 525 672 
L 525 2888 
L 72 2888 
L 72 3347 
L 525 3347 
L 525 4281 
z
" transform="scale(0.015625)"/>
       <path id="Helvetica-65" d="M 1806 3422 
Q 2163 3422 2497 3255 
Q 2831 3088 3006 2822 
Q 3175 2569 3231 2231 
Q 3281 2000 3281 1494 
L 828 1494 
Q 844 984 1069 676 
Q 1294 369 1766 369 
Q 2206 369 2469 659 
Q 2619 828 2681 1050 
L 3234 1050 
Q 3213 866 3089 639 
Q 2966 413 2813 269 
Q 2556 19 2178 -69 
Q 1975 -119 1719 -119 
Q 1094 -119 659 336 
Q 225 791 225 1609 
Q 225 2416 662 2919 
Q 1100 3422 1806 3422 
z
M 2703 1941 
Q 2669 2306 2544 2525 
Q 2313 2931 1772 2931 
Q 1384 2931 1121 2651 
Q 859 2372 844 1941 
L 2703 1941 
z
M 1753 3428 
L 1753 3428 
z
" transform="scale(0.015625)"/>
       <path id="Helvetica-6e" d="M 413 3347 
L 947 3347 
L 947 2872 
Q 1184 3166 1450 3294 
Q 1716 3422 2041 3422 
Q 2753 3422 3003 2925 
Q 3141 2653 3141 2147 
L 3141 0 
L 2569 0 
L 2569 2109 
Q 2569 2416 2478 2603 
Q 2328 2916 1934 2916 
Q 1734 2916 1606 2875 
Q 1375 2806 1200 2600 
Q 1059 2434 1017 2257 
Q 975 2081 975 1753 
L 975 0 
L 413 0 
L 413 3347 
z
M 1734 3428 
L 1734 3428 
z
" transform="scale(0.015625)"/>
       <path id="Helvetica-63" d="M 1703 3444 
Q 2269 3444 2623 3169 
Q 2978 2894 3050 2222 
L 2503 2222 
Q 2453 2531 2275 2736 
Q 2097 2941 1703 2941 
Q 1166 2941 934 2416 
Q 784 2075 784 1575 
Q 784 1072 996 728 
Q 1209 384 1666 384 
Q 2016 384 2220 598 
Q 2425 813 2503 1184 
L 3050 1184 
Q 2956 519 2581 211 
Q 2206 -97 1622 -97 
Q 966 -97 575 383 
Q 184 863 184 1581 
Q 184 2463 612 2953 
Q 1041 3444 1703 3444 
z
M 1616 3428 
L 1616 3428 
z
" transform="scale(0.015625)"/>
       <path id="Helvetica-79" d="M 2503 3347 
L 3125 3347 
Q 3006 3025 2597 1878 
Q 2291 1016 2084 472 
Q 1597 -809 1397 -1090 
Q 1197 -1372 709 -1372 
Q 591 -1372 527 -1362 
Q 463 -1353 369 -1328 
L 369 -816 
Q 516 -856 581 -865 
Q 647 -875 697 -875 
Q 853 -875 926 -823 
Q 1000 -772 1050 -697 
Q 1066 -672 1162 -440 
Q 1259 -209 1303 -97 
L 66 3347 
L 703 3347 
L 1600 622 
L 2503 3347 
z
M 1597 3428 
L 1597 3428 
z
" transform="scale(0.015625)"/>
       <path id="Helvetica-20" transform="scale(0.015625)"/>
       <path id="Helvetica-28" d="M 1894 4666 
Q 1403 3713 1256 3263 
Q 1034 2578 1034 1681 
Q 1034 775 1288 25 
Q 1444 -438 1903 -1306 
L 1525 -1306 
Q 1069 -594 959 -397 
Q 850 -200 722 138 
Q 547 600 478 1125 
Q 444 1397 444 1644 
Q 444 2569 734 3291 
Q 919 3750 1503 4666 
L 1894 4666 
z
" transform="scale(0.015625)"/>
       <path id="Helvetica-73" d="M 747 1050 
Q 772 769 888 619 
Q 1100 347 1625 347 
Q 1938 347 2175 483 
Q 2413 619 2413 903 
Q 2413 1119 2222 1231 
Q 2100 1300 1741 1391 
L 1294 1503 
Q 866 1609 663 1741 
Q 300 1969 300 2372 
Q 300 2847 642 3140 
Q 984 3434 1563 3434 
Q 2319 3434 2653 2991 
Q 2863 2709 2856 2384 
L 2325 2384 
Q 2309 2575 2191 2731 
Q 1997 2953 1519 2953 
Q 1200 2953 1036 2831 
Q 872 2709 872 2509 
Q 872 2291 1088 2159 
Q 1213 2081 1456 2022 
L 1828 1931 
Q 2434 1784 2641 1647 
Q 2969 1431 2969 969 
Q 2969 522 2630 197 
Q 2291 -128 1597 -128 
Q 850 -128 539 211 
Q 228 550 206 1050 
L 747 1050 
z
M 1578 3428 
L 1578 3428 
z
" transform="scale(0.015625)"/>
       <path id="Helvetica-2c" d="M 531 -653 
Q 747 -616 834 -350 
Q 881 -209 881 -78 
Q 881 -56 879 -39 
Q 878 -22 872 0 
L 531 0 
L 531 681 
L 1200 681 
L 1200 50 
Q 1200 -322 1050 -603 
Q 900 -884 531 -950 
L 531 -653 
z
" transform="scale(0.015625)"/>
       <path id="Helvetica-6c" d="M 428 4591 
L 991 4591 
L 991 0 
L 428 0 
L 428 4591 
z
" transform="scale(0.015625)"/>
       <path id="Helvetica-6f" d="M 1741 363 
Q 2300 363 2508 786 
Q 2716 1209 2716 1728 
Q 2716 2197 2566 2491 
Q 2328 2953 1747 2953 
Q 1231 2953 997 2559 
Q 763 2166 763 1609 
Q 763 1075 997 719 
Q 1231 363 1741 363 
z
M 1763 3444 
Q 2409 3444 2856 3012 
Q 3303 2581 3303 1744 
Q 3303 934 2909 406 
Q 2516 -122 1688 -122 
Q 997 -122 590 345 
Q 184 813 184 1600 
Q 184 2444 612 2944 
Q 1041 3444 1763 3444 
z
M 1744 3428 
L 1744 3428 
z
" transform="scale(0.015625)"/>
       <path id="Helvetica-67" d="M 1594 3406 
Q 1988 3406 2281 3213 
Q 2441 3103 2606 2894 
L 2606 3316 
L 3125 3316 
L 3125 272 
Q 3125 -366 2938 -734 
Q 2588 -1416 1616 -1416 
Q 1075 -1416 706 -1173 
Q 338 -931 294 -416 
L 866 -416 
Q 906 -641 1028 -763 
Q 1219 -950 1628 -950 
Q 2275 -950 2475 -494 
Q 2594 -225 2584 466 
Q 2416 209 2178 84 
Q 1941 -41 1550 -41 
Q 1006 -41 598 345 
Q 191 731 191 1622 
Q 191 2463 602 2934 
Q 1013 3406 1594 3406 
z
M 2606 1688 
Q 2606 2309 2350 2609 
Q 2094 2909 1697 2909 
Q 1103 2909 884 2353 
Q 769 2056 769 1575 
Q 769 1009 998 714 
Q 1228 419 1616 419 
Q 2222 419 2469 966 
Q 2606 1275 2606 1688 
z
M 1659 3428 
L 1659 3428 
z
" transform="scale(0.015625)"/>
       <path id="Helvetica-29" d="M 222 -1306 
Q 719 -338 863 106 
Q 1081 778 1081 1681 
Q 1081 2584 828 3334 
Q 672 3797 213 4666 
L 591 4666 
Q 1072 3897 1173 3717 
Q 1275 3538 1394 3222 
Q 1544 2831 1608 2450 
Q 1672 2069 1672 1716 
Q 1672 791 1378 66 
Q 1194 -400 613 -1306 
L 222 -1306 
z
" transform="scale(0.015625)"/>
      </defs>
      <use xlink:href="#Helvetica-4c"/>
      <use xlink:href="#Helvetica-61" x="55.615234"/>
      <use xlink:href="#Helvetica-74" x="111.230469"/>
      <use xlink:href="#Helvetica-65" x="139.013672"/>
      <use xlink:href="#Helvetica-6e" x="194.628906"/>
      <use xlink:href="#Helvetica-63" x="250.244141"/>
      <use xlink:href="#Helvetica-79" x="300.244141"/>
      <use xlink:href="#Helvetica-20" x="350.244141"/>
      <use xlink:href="#Helvetica-28" x="378.027344"/>
      <use xlink:href="#Helvetica-6e" x="411.328125"/>
      <use xlink:href="#Helvetica-73" x="466.943359"/>
      <use xlink:href="#Helvetica-2c" x="516.943359"/>
      <use xlink:href="#Helvetica-20" x="544.726562"/>
      <use xlink:href="#Helvetica-6c" x="572.509766"/>
      <use xlink:href="#Helvetica-6f" x="594.726562"/>
      <use xlink:href="#Helvetica-67" x="650.341797"/>
      <use xlink:href="#Helvetica-20" x="705.957031"/>
      <use xlink:href="#Helvetica-73" x="733.740234"/>
      <use xlink:href="#Helvetica-63" x="783.740234"/>
      <use xlink:href="#Helvetica-61" x="833.740234"/>
      <use xlink:href="#Helvetica-6c" x="889.355469"/>
      <use xlink:href="#Helvetica-65" x="911.572266"/>
      <use xlink:href="#Helvetica-29" x="967.1875"/>
     </g>
    </g>
   </g>
   <g id="matplotlib.axis_2">
    <g id="ytick_1">
     <g id="line2d_34">
      <path d="M 49.701563 328.957813 
L 633.207812 328.957813 
" clip-path="url(#p014543b727)" style="fill: none; stroke: #e2e8f0; stroke-width: 0.8; stroke-linecap: square"/>
     </g>
     <g id="line2d_35">
      <defs>
       <path id="m0720a2bd79" d="M 0 0 
L -3.5 0 
" style="stroke: #4a5568; stroke-width: 0.8"/>
      </defs>
      <g>
       <use xlink:href="#m0720a2bd79" x="49.701563" y="328.957813" style="fill: #4a5568; stroke: #4a5568; stroke-width: 0.8"/>
      </g>
     </g>
     <g id="text_5">
      <!-- 0 -->
      <g style="fill: #4a5568" transform="translate(37.140625 332.544531) scale(0.1 -0.1)">
       <use xlink:href="#Helvetica-30"/>
      </g>
     </g>
    </g>
    <g id="ytick_2">
     <g id="line2d_36">
      <path d="M 49.701563 263.093936 
L 633.207812 263.093936 
" clip-path="url(#p014543b727)" style="fill: none; stroke: #e2e8f0; stroke-width: 0.8; stroke-linecap: square"/>
     </g>
     <g id="line2d_37">
      <g>
       <use xlink:href="#m0720a2bd79" x="49.701563" y="263.093936" style="fill: #4a5568; stroke: #4a5568; stroke-width: 0.8"/>
      </g>
     </g>
     <g id="text_6">
      <!-- 1000 -->
      <g style="fill: #4a5568" transform="translate(20.457812 266.680655) scale(0.1 -0.1)">
       <use xlink:href="#Helvetica-31"/>
       <use xlink:href="#Helvetica-30" x="55.615234"/>
       <use xlink:href="#Helvetica-30" x="111.230469"/>
       <use xlink:href="#Helvetica-30" x="166.845703"/>
      </g>
     </g>
    </g>
    <g id="ytick_3">
     <g id="line2d_38">
      <path d="M 49.701563 197.230059 
L 633.207812 197.230059 
" clip-path="url(#p014543b727)" style="fill: none; stroke: #e2e8f0; stroke-width: 0.8; stroke-linecap: square"/>
     </g>
     <g id="line2d_39">
      <g>
       <use xlink:href="#m0720a2bd79" x="49.701563" y="197.230059" style="fill: #4a5568; stroke: #4a5568; stroke-width: 0.8"/>
      </g>
     </g>
     <g id="text_7">
      <!-- 2000 -->
      <g style="fill: #4a5568" transform="translate(20.457812 200.816778) scale(0.1 -0.1)">
       <use xlink:href="#Helvetica-32"/>
       <use xlink:href="#Helvetica-30" x="55.615234"/>
       <use xlink:href="#Helvetica-30" x="111.230469"/>
       <use xlink:href="#Helvetica-30" x="166.845703"/>
      </g>
     </g>
    </g>
    <g id="ytick_4">
     <g id="line2d_40">
      <path d="M 49.701563 131.366183 
L 633.207812 131.366183 
" clip-path="url(#p014543b727)" style="fill: none; stroke: #e2e8f0; stroke-width: 0.8; stroke-linecap: square"/>
     </g>
     <g id="line2d_41">
      <g>
       <use xlink:href="#m0720a2bd79" x="49.701563" y="131.366183" style="fill: #4a5568; stroke: #4a5568; stroke-width: 0.8"/>
      </g>
     </g>
     <g id="text_8">
      <!-- 3000 -->
      <g style="fill: #4a5568" transform="translate(20.457812 134.952901) scale(0.1 -0.1)">
       <use xlink:href="#Helvetica-33"/>
       <use xlink:href="#Helvetica-30" x="55.615234"/>
       <use xlink:href="#Helvetica-30" x="111.230469"/>
       <use xlink:href="#Helvetica-30" x="166.845703"/>
      </g>
     </g>
    </g>
    <g id="ytick_5">
     <g id="line2d_42">
      <path d="M 49.701563 65.502306 
L 633.207812 65.502306 
" clip-path="url(#p014543b727)" style="fill: none; stroke: #e2e8f0; stroke-width: 0.8; stroke-linecap: square"/>
     </g>
     <g id="line2d_43">
      <g>
       <use xlink:href="#m0720a2bd79" x="49.701563" y="65.502306" style="fill: #4a5568; stroke: #4a5568; stroke-width: 0.8"/>
      </g>
     </g>
     <g id="text_9">
      <!-- 4000 -->
      <g style="fill: #4a5568" transform="translate(20.457812 69.089025) scale(0.1 -0.1)">
       <use xlink:href="#Helvetica-34"/>
       <use xlink:href="#Helvetica-30" x="55.615234"/>
       <use xlink:href="#Helvetica-30" x="111.230469"/>
       <use xlink:href="#Helvetica-30" x="166.845703"/>
      </g>
     </g>
    </g>
    <g id="text_10">
     <!-- Count -->
     <g style="fill: #0b1f3a" transform="translate(14.373437 192.159219) rotate(-90) scale(0.1 -0.1)">
      <defs>
       <path id="Helvetica-43" d="M 2422 4716 
Q 3294 4716 3775 4256 
Q 4256 3797 4309 3213 
L 3703 3213 
Q 3600 3656 3292 3915 
Q 2984 4175 2428 4175 
Q 1750 4175 1333 3698 
Q 916 3222 916 2238 
Q 916 1431 1292 929 
Q 1669 428 2416 428 
Q 3103 428 3463 956 
Q 3653 1234 3747 1688 
L 4353 1688 
Q 4272 963 3816 472 
Q 3269 -119 2341 -119 
Q 1541 -119 997 366 
Q 281 1006 281 2344 
Q 281 3359 819 4009 
Q 1400 4716 2422 4716 
z
M 2297 4716 
L 2297 4716 
z
" transform="scale(0.015625)"/>
       <path id="Helvetica-75" d="M 975 3347 
L 975 1125 
Q 975 869 1056 706 
Q 1206 406 1616 406 
Q 2203 406 2416 931 
Q 2531 1213 2531 1703 
L 2531 3347 
L 3094 3347 
L 3094 0 
L 2563 0 
L 2569 494 
Q 2459 303 2297 172 
Q 1975 -91 1516 -91 
Q 800 -91 541 388 
Q 400 644 400 1072 
L 400 3347 
L 975 3347 
z
M 1747 3428 
L 1747 3428 
z
" transform="scale(0.015625)"/>
      </defs>
      <use xlink:href="#Helvetica-43"/>
      <use xlink:href="#Helvetica-6f" x="72.216797"/>
      <use xlink:href="#Helvetica-75" x="127.832031"/>
      <use xlink:href="#Helvetica-6e" x="183.447266"/>
      <use xlink:href="#Helvetica-74" x="239.0625"/>
     </g>
    </g>
   </g>
   <g id="patch_3">
    <path d="M 76.224574 328.957813 
L 85.215425 328.957813 
L 85.215425 225.683254 
L 76.224574 225.683254 
z
" clip-path="url(#p014543b727)" style="fill: #1f4e79; opacity: 0.85; stroke: #ffffff; stroke-width: 0.3; stroke-linejoin: miter"/>
   </g>
   <g id="patch_4">
    <path d="M 85.215425 328.957813 
L 94.206276 328.957813 
L 94.206276 265.991946 
L 85.215425 265.991946 
z
" clip-path="url(#p014543b727)" style="fill: #1f4e79; opacity: 0.85; stroke: #ffffff; stroke-width: 0.3; stroke-linejoin: miter"/>
   </g>
   <g id="patch_5">
    <path d="M 94.206276 328.957813 
L 103.197128 328.957813 
L 103.197128 242.873726 
L 94.206276 242.873726 
z
" clip-path="url(#p014543b727)" style="fill: #1f4e79; opacity: 0.85; stroke: #ffffff; stroke-width: 0.3; stroke-linejoin: miter"/>
   </g>
   <g id="patch_6">
    <path d="M 103.197128 328.957813 
L 112.187979 328.957813 
L 112.187979 213.564301 
L 103.197128 213.564301 
z
" clip-path="url(#p014543b727)" style="fill: #1f4e79; opacity: 0.85; stroke: #ffffff; stroke-width: 0.3; stroke-linejoin: miter"/>
   </g>
   <g id="patch_7">
    <path d="M 112.187979 328.957813 
L 121.17883 328.957813 
L 121.17883 177.997807 
L 112.187979 177.997807 
z
" clip-path="url(#p014543b727)" style="fill: #1f4e79; opacity: 0.85; stroke: #ffffff; stroke-width: 0.3; stroke-linejoin: miter"/>
   </g>
   <g id="patch_8">
    <path d="M 121.17883 328.957813 
L 130.169682 328.957813 
L 130.169682 147.568696 
L 121.17883 147.568696 
z
" clip-path="url(#p014543b727)" style="fill: #1f4e79; opacity: 0.85; stroke: #ffffff; stroke-width: 0.3; stroke-linejoin: miter"/>
   </g>
   <g id="patch_9">
    <path d="M 130.169682 328.957813 
L 139.160533 328.957813 
L 139.160533 106.86482 
L 130.169682 106.86482 
z
" clip-path="url(#p014543b727)" style="fill: #1f4e79; opacity: 0.85; stroke: #ffffff; stroke-width: 0.3; stroke-linejoin: miter"/>
   </g>
   <g id="patch_10">
    <path d="M 139.160533 328.957813 
L 148.151384 328.957813 
L 148.151384 81.046181 
L 139.160533 81.046181 
z
" clip-path="url(#p014543b727)" style="fill: #1f4e79; opacity: 0.85; stroke: #ffffff; stroke-width: 0.3; stroke-linejoin: miter"/>
   </g>
   <g id="patch_11">
    <path d="M 148.151384 328.957813 
L 157.142236 328.957813 
L 157.142236 53.317489 
L 148.151384 53.317489 
z
" clip-path="url(#p014543b727)" style="fill: #1f4e79; opacity: 0.85; stroke: #ffffff; stroke-width: 0.3; stroke-linejoin: miter"/>
   </g>
   <g id="patch_12">
    <path d="M 157.142236 328.957813 
L 166.133087 328.957813 
L 166.133087 42.97686 
L 157.142236 42.97686 
z
" clip-path="url(#p014543b727)" style="fill: #1f4e79; opacity: 0.85; stroke: #ffffff; stroke-width: 0.3; stroke-linejoin: miter"/>
   </g>
   <g id="patch_13">
    <path d="M 166.133087 328.957813 
L 175.123938 328.957813 
L 175.123938 59.772149 
L 166.133087 59.772149 
z
" clip-path="url(#p014543b727)" style="fill: #1f4e79; opacity: 0.85; stroke: #ffffff; stroke-width: 0.3; stroke-linejoin: miter"/>
   </g>
   <g id="patch_14">
    <path d="M 175.123938 328.957813 
L 184.11479 328.957813 
L 184.11479 66.490264 
L 175.123938 66.490264 
z
" clip-path="url(#p014543b727)" style="fill: #1f4e79; opacity: 0.85; stroke: #ffffff; stroke-width: 0.3; stroke-linejoin: miter"/>
   </g>
   <g id="patch_15">
    <path d="M 184.11479 328.957813 
L 193.105641 328.957813 
L 193.105641 97.643878 
L 184.11479 97.643878 
z
" clip-path="url(#p014543b727)" style="fill: #1f4e79; opacity: 0.85; stroke: #ffffff; stroke-width: 0.3; stroke-linejoin: miter"/>
   </g>
   <g id="patch_16">
    <path d="M 193.105641 328.957813 
L 202.096492 328.957813 
L 202.096492 132.420005 
L 193.105641 132.420005 
z
" clip-path="url(#p014543b727)" style="fill: #1f4e79; opacity: 0.85; stroke: #ffffff; stroke-width: 0.3; stroke-linejoin: miter"/>
   </g>
   <g id="patch_17">
    <path d="M 202.096492 328.957813 
L 211.087344 328.957813 
L 211.087344 161.861157 
L 202.096492 161.861157 
z
" clip-path="url(#p014543b727)" style="fill: #1f4e79; opacity: 0.85; stroke: #ffffff; stroke-width: 0.3; stroke-linejoin: miter"/>
   </g>
   <g id="patch_18">
    <path d="M 211.087344 328.957813 
L 220.078195 328.957813 
L 220.078195 199.667023 
L 211.087344 199.667023 
z
" clip-path="url(#p014543b727)" style="fill: #1f4e79; opacity: 0.85; stroke: #ffffff; stroke-width: 0.3; stroke-linejoin: miter"/>
   </g>
   <g id="patch_19">
    <path d="M 220.078195 328.957813 
L 229.069046 328.957813 
L 229.069046 226.407757 
L 220.078195 226.407757 
z
" clip-path="url(#p014543b727)" style="fill: #1f4e79; opacity: 0.85; stroke: #ffffff; stroke-width: 0.3; stroke-linejoin: miter"/>
   </g>
   <g id="patch_20">
    <path d="M 229.069046 328.957813 
L 238.059897 328.957813 
L 238.059897 261.249747 
L 229.069046 261.249747 
z
" clip-path="url(#p014543b727)" style="fill: #1f4e79; opacity: 0.85; stroke: #ffffff; stroke-width: 0.3; stroke-linejoin: miter"/>
   </g>
   <g id="patch_21">
    <path d="M 238.059897 328.957813 
L 247.050749 328.957813 
L 247.050749 276.003256 
L 238.059897 276.003256 
z
" clip-path="url(#p014543b727)" style="fill: #1f4e79; opacity: 0.85; stroke: #ffffff; stroke-width: 0.3; stroke-linejoin: miter"/>
   </g>
   <g id="patch_22">
    <path d="M 247.050749 328.957813 
L 256.0416 328.957813 
L 256.0416 293.852366 
L 247.050749 293.852366 
z
" clip-path="url(#p014543b727)" style="fill: #1f4e79; opacity: 0.85; stroke: #ffffff; stroke-width: 0.3; stroke-linejoin: miter"/>
   </g>
   <g id="patch_23">
    <path d="M 256.0416 328.957813 
L 265.032451 328.957813 
L 265.032451 309.001058 
L 256.0416 309.001058 
z
" clip-path="url(#p014543b727)" style="fill: #1f4e79; opacity: 0.85; stroke: #ffffff; stroke-width: 0.3; stroke-linejoin: miter"/>
   </g>
   <g id="patch_24">
    <path d="M 265.032451 328.957813 
L 274.023303 328.957813 
L 274.023303 315.982629 
L 265.032451 315.982629 
z
" clip-path="url(#p014543b727)" style="fill: #1f4e79; opacity: 0.85; stroke: #ffffff; stroke-width: 0.3; stroke-linejoin: miter"/>
   </g>
   <g id="patch_25">
    <path d="M 274.023303 328.957813 
L 283.014154 328.957813 
L 283.014154 321.581058 
L 274.023303 321.581058 
z
" clip-path="url(#p014543b727)" style="fill: #1f4e79; opacity: 0.85; stroke: #ffffff; stroke-width: 0.3; stroke-linejoin: miter"/>
   </g>
   <g id="patch_26">
    <path d="M 283.014154 328.957813 
L 292.005005 328.957813 
L 292.005005 325.467027 
L 283.014154 325.467027 
z
" clip-path="url(#p014543b727)" style="fill: #1f4e79; opacity: 0.85; stroke: #ffffff; stroke-width: 0.3; stroke-linejoin: miter"/>
   </g>
   <g id="patch_27">
    <path d="M 292.005005 328.957813 
L 300.995857 328.957813 
L 300.995857 326.981896 
L 292.005005 326.981896 
z
" clip-path="url(#p014543b727)" style="fill: #1f4e79; opacity: 0.85; stroke: #ffffff; stroke-width: 0.3; stroke-linejoin: miter"/>
   </g>
   <g id="patch_28">
    <path d="M 300.995857 328.957813 
L 309.986708 328.957813 
L 309.986708 328.23331 
L 300.995857 328.23331 
z
" clip-path="url(#p014543b727)" style="fill: #1f4e79; opacity: 0.85; stroke: #ffffff; stroke-width: 0.3; stroke-linejoin: miter"/>
   </g>
   <g id="patch_29">
    <path d="M 309.986708 328.957813 
L 318.977559 328.957813 
L 318.977559 328.760221 
L 309.986708 328.760221 
z
" clip-path="url(#p014543b727)" style="fill: #1f4e79; opacity: 0.85; stroke: #ffffff; stroke-width: 0.3; stroke-linejoin: miter"/>
   </g>
   <g id="patch_30">
    <path d="M 318.977559 328.957813 
L 327.968411 328.957813 
L 327.968411 328.760221 
L 318.977559 328.760221 
z
" clip-path="url(#p014543b727)" style="fill: #1f4e79; opacity: 0.85; stroke: #ffffff; stroke-width: 0.3; stroke-linejoin: miter"/>
   </g>
   <g id="patch_31">
    <path d="M 327.968411 328.957813 
L 336.959262 328.957813 
L 336.959262 328.760221 
L 327.968411 328.760221 
z
" clip-path="url(#p014543b727)" style="fill: #1f4e79; opacity: 0.85; stroke: #ffffff; stroke-width: 0.3; stroke-linejoin: miter"/>
   </g>
   <g id="patch_32">
    <path d="M 336.959262 328.957813 
L 345.950113 328.957813 
L 345.950113 328.891949 
L 336.959262 328.891949 
z
" clip-path="url(#p014543b727)" style="fill: #1f4e79; opacity: 0.85; stroke: #ffffff; stroke-width: 0.3; stroke-linejoin: miter"/>
   </g>
   <g id="patch_33">
    <path d="M 345.950113 328.957813 
L 354.940964 328.957813 
L 354.940964 328.891949 
L 345.950113 328.891949 
z
" clip-path="url(#p014543b727)" style="fill: #1f4e79; opacity: 0.85; stroke: #ffffff; stroke-width: 0.3; stroke-linejoin: miter"/>
   </g>
   <g id="patch_34">
    <path d="M 354.940964 328.957813 
L 363.931816 328.957813 
L 363.931816 328.957813 
L 354.940964 328.957813 
z
" clip-path="url(#p014543b727)" style="fill: #1f4e79; opacity: 0.85; stroke: #ffffff; stroke-width: 0.3; stroke-linejoin: miter"/>
   </g>
   <g id="patch_35">
    <path d="M 363.931816 328.957813 
L 372.922667 328.957813 
L 372.922667 328.957813 
L 363.931816 328.957813 
z
" clip-path="url(#p014543b727)" style="fill: #1f4e79; opacity: 0.85; stroke: #ffffff; stroke-width: 0.3; stroke-linejoin: miter"/>
   </g>
   <g id="patch_36">
    <path d="M 372.922667 328.957813 
L 381.913518 328.957813 
L 381.913518 328.891949 
L 372.922667 328.891949 
z
" clip-path="url(#p014543b727)" style="fill: #1f4e79; opacity: 0.85; stroke: #ffffff; stroke-width: 0.3; stroke-linejoin: miter"/>
   </g>
   <g id="patch_37">
    <path d="M 381.913518 328.957813 
L 390.90437 328.957813 
L 390.90437 328.957813 
L 381.913518 328.957813 
z
" clip-path="url(#p014543b727)" style="fill: #1f4e79; opacity: 0.85; stroke: #ffffff; stroke-width: 0.3; stroke-linejoin: miter"/>
   </g>
   <g id="patch_38">
    <path d="M 390.90437 328.957813 
L 399.895221 328.957813 
L 399.895221 328.957813 
L 390.90437 328.957813 
z
" clip-path="url(#p014543b727)" style="fill: #1f4e79; opacity: 0.85; stroke: #ffffff; stroke-width: 0.3; stroke-linejoin: miter"/>
   </g>
   <g id="patch_39">
    <path d="M 399.895221 328.957813 
L 408.886072 328.957813 
L 408.886072 328.957813 
L 399.895221 328.957813 
z
" clip-path="url(#p014543b727)" style="fill: #1f4e79; opacity: 0.85; stroke: #ffffff; stroke-width: 0.3; stroke-linejoin: miter"/>
   </g>
   <g id="patch_40">
    <path d="M 408.886072 328.957813 
L 417.876924 328.957813 
L 417.876924 328.957813 
L 408.886072 328.957813 
z
" clip-path="url(#p014543b727)" style="fill: #1f4e79; opacity: 0.85; stroke: #ffffff; stroke-width: 0.3; stroke-linejoin: miter"/>
   </g>
   <g id="patch_41">
    <path d="M 417.876924 328.957813 
L 426.867775 328.957813 
L 426.867775 328.957813 
L 417.876924 328.957813 
z
" clip-path="url(#p014543b727)" style="fill: #1f4e79; opacity: 0.85; stroke: #ffffff; stroke-width: 0.3; stroke-linejoin: miter"/>
   </g>
   <g id="patch_42">
    <path d="M 426.867775 328.957813 
L 435.858626 328.957813 
L 435.858626 328.957813 
L 426.867775 328.957813 
z
" clip-path="url(#p014543b727)" style="fill: #1f4e79; opacity: 0.85; stroke: #ffffff; stroke-width: 0.3; stroke-linejoin: miter"/>
   </g>
   <g id="patch_43">
    <path d="M 435.858626 328.957813 
L 444.849478 328.957813 
L 444.849478 328.957813 
L 435.858626 328.957813 
z
" clip-path="url(#p014543b727)" style="fill: #1f4e79; opacity: 0.85; stroke: #ffffff; stroke-width: 0.3; stroke-linejoin: miter"/>
   </g>
   <g id="patch_44">
    <path d="M 444.849478 328.957813 
L 453.840329 328.957813 
L 453.840329 328.957813 
L 444.849478 328.957813 
z
" clip-path="url(#p014543b727)" style="fill: #1f4e79; opacity: 0.85; stroke: #ffffff; stroke-width: 0.3; stroke-linejoin: miter"/>
   </g>
   <g id="patch_45">
    <path d="M 453.840329 328.957813 
L 462.83118 328.957813 
L 462.83118 328.957813 
L 453.840329 328.957813 
z
" clip-path="url(#p014543b727)" style="fill: #1f4e79; opacity: 0.85; stroke: #ffffff; stroke-width: 0.3; stroke-linejoin: miter"/>
   </g>
   <g id="patch_46">
    <path d="M 462.83118 328.957813 
L 471.822031 328.957813 
L 471.822031 328.957813 
L 462.83118 328.957813 
z
" clip-path="url(#p014543b727)" style="fill: #1f4e79; opacity: 0.85; stroke: #ffffff; stroke-width: 0.3; stroke-linejoin: miter"/>
   </g>
   <g id="patch_47">
    <path d="M 471.822031 328.957813 
L 480.812883 328.957813 
L 480.812883 328.957813 
L 471.822031 328.957813 
z
" clip-path="url(#p014543b727)" style="fill: #1f4e79; opacity: 0.85; stroke: #ffffff; stroke-width: 0.3; stroke-linejoin: miter"/>
   </g>
   <g id="patch_48">
    <path d="M 480.812883 328.957813 
L 489.803734 328.957813 
L 489.803734 328.957813 
L 480.812883 328.957813 
z
" clip-path="url(#p014543b727)" style="fill: #1f4e79; opacity: 0.85; stroke: #ffffff; stroke-width: 0.3; stroke-linejoin: miter"/>
   </g>
   <g id="patch_49">
    <path d="M 489.803734 328.957813 
L 498.794585 328.957813 
L 498.794585 328.957813 
L 489.803734 328.957813 
z
" clip-path="url(#p014543b727)" style="fill: #1f4e79; opacity: 0.85; stroke: #ffffff; stroke-width: 0.3; stroke-linejoin: miter"/>
   </g>
   <g id="patch_50">
    <path d="M 498.794585 328.957813 
L 507.785437 328.957813 
L 507.785437 328.957813 
L 498.794585 328.957813 
z
" clip-path="url(#p014543b727)" style="fill: #1f4e79; opacity: 0.85; stroke: #ffffff; stroke-width: 0.3; stroke-linejoin: miter"/>
   </g>
   <g id="patch_51">
    <path d="M 507.785437 328.957813 
L 516.776288 328.957813 
L 516.776288 328.957813 
L 507.785437 328.957813 
z
" clip-path="url(#p014543b727)" style="fill: #1f4e79; opacity: 0.85; stroke: #ffffff; stroke-width: 0.3; stroke-linejoin: miter"/>
   </g>
   <g id="patch_52">
    <path d="M 516.776288 328.957813 
L 525.767139 328.957813 
L 525.767139 328.957813 
L 516.776288 328.957813 
z
" clip-path="url(#p014543b727)" style="fill: #1f4e79; opacity: 0.85; stroke: #ffffff; stroke-width: 0.3; stroke-linejoin: miter"/>
   </g>
   <g id="patch_53">
    <path d="M 525.767139 328.957813 
L 534.757991 328.957813 
L 534.757991 328.957813 
L 525.767139 328.957813 
z
" clip-path="url(#p014543b727)" style="fill: #1f4e79; opacity: 0.85; stroke: #ffffff; stroke-width: 0.3; stroke-linejoin: miter"/>
   </g>
   <g id="patch_54">
    <path d="M 534.757991 328.957813 
L 543.748842 328.957813 
L 543.748842 328.957813 
L 534.757991 328.957813 
z
" clip-path="url(#p014543b727)" style="fill: #1f4e79; opacity: 0.85; stroke: #ffffff; stroke-width: 0.3; stroke-linejoin: miter"/>
   </g>
   <g id="patch_55">
    <path d="M 543.748842 328.957813 
L 552.739693 328.957813 
L 552.739693 328.957813 
L 543.748842 328.957813 
z
" clip-path="url(#p014543b727)" style="fill: #1f4e79; opacity: 0.85; stroke: #ffffff; stroke-width: 0.3; stroke-linejoin: miter"/>
   </g>
   <g id="patch_56">
    <path d="M 552.739693 328.957813 
L 561.730545 328.957813 
L 561.730545 328.957813 
L 552.739693 328.957813 
z
" clip-path="url(#p014543b727)" style="fill: #1f4e79; opacity: 0.85; stroke: #ffffff; stroke-width: 0.3; stroke-linejoin: miter"/>
   </g>
   <g id="patch_57">
    <path d="M 561.730545 328.957813 
L 570.721396 328.957813 
L 570.721396 328.957813 
L 561.730545 328.957813 
z
" clip-path="url(#p014543b727)" style="fill: #1f4e79; opacity: 0.85; stroke: #ffffff; stroke-width: 0.3; stroke-linejoin: miter"/>
   </g>
   <g id="patch_58">
    <path d="M 570.721396 328.957813 
L 579.712247 328.957813 
L 579.712247 328.957813 
L 570.721396 328.957813 
z
" clip-path="url(#p014543b727)" style="fill: #1f4e79; opacity: 0.85; stroke: #ffffff; stroke-width: 0.3; stroke-linejoin: miter"/>
   </g>
   <g id="patch_59">
    <path d="M 579.712247 328.957813 
L 588.703099 328.957813 
L 588.703099 328.957813 
L 579.712247 328.957813 
z
" clip-path="url(#p014543b727)" style="fill: #1f4e79; opacity: 0.85; stroke: #ffffff; stroke-width: 0.3; stroke-linejoin: miter"/>
   </g>
   <g id="patch_60">
    <path d="M 588.703099 328.957813 
L 597.69395 328.957813 
L 597.69395 328.957813 
L 588.703099 328.957813 
z
" clip-path="url(#p014543b727)" style="fill: #1f4e79; opacity: 0.85; stroke: #ffffff; stroke-width: 0.3; stroke-linejoin: miter"/>
   </g>
   <g id="patch_61">
    <path d="M 597.69395 328.957813 
L 606.684801 328.957813 
L 606.684801 328.957813 
L 597.69395 328.957813 
z
" clip-path="url(#p014543b727)" style="fill: #1f4e79; opacity: 0.85; stroke: #ffffff; stroke-width: 0.3; stroke-linejoin: miter"/>
   </g>
   <g id="line2d_44">
    <path d="M 163.723992 328.957813 
L 163.723992 28.677813 
" clip-path="url(#p014543b727)" style="fill: none; stroke-dasharray: 5.55,2.4; stroke-dashoffset: 0; stroke: #c4a35a; stroke-width: 1.5"/>
   </g>
   <g id="line2d_45">
    <path d="M 364.156428 328.957813 
L 364.156428 28.677813 
" clip-path="url(#p014543b727)" style="fill: none; stroke-dasharray: 5.55,2.4; stroke-dashoffset: 0; stroke: #c53030; stroke-width: 1.5"/>
   </g>
   <g id="line2d_46">
    <path d="M 270.180285 328.957813 
L 270.180285 28.677813 
" clip-path="url(#p014543b727)" style="fill: none; stroke-dasharray: 1.4,2.31; stroke-dashoffset: 0; stroke: #2f855a; stroke-width: 1.4"/>
   </g>
   <g id="patch_62">
    <path d="M 49.701563 328.957813 
L 49.701563 28.677813 
" style="fill: none; stroke: #4a5568; stroke-width: 0.8; stroke-linejoin: miter; stroke-linecap: square"/>
   </g>
   <g id="patch_63">
    <path d="M 49.701562 328.957813 
L 633.207812 328.957813 
" style="fill: none; stroke: #4a5568; stroke-width: 0.8; stroke-linejoin: miter; stroke-linecap: square"/>
   </g>
   <g id="text_11">
    <!-- Latency Distribution (illustrative from measured percentiles) -->
    <g style="fill: #0b1f3a" transform="translate(170.593047 16.677813) scale(0.13 -0.13)">
     <defs>
      <path id="Helvetica-44" d="M 2250 531 
Q 2566 531 2769 597 
Q 3131 719 3363 1066 
Q 3547 1344 3628 1778 
Q 3675 2038 3675 2259 
Q 3675 3113 3336 3584 
Q 2997 4056 2244 4056 
L 1141 4056 
L 1141 531 
L 2250 531 
z
M 516 4591 
L 2375 4591 
Q 3322 4591 3844 3919 
Q 4309 3313 4309 2366 
Q 4309 1634 4034 1044 
Q 3550 0 2369 0 
L 516 0 
L 516 4591 
z
" transform="scale(0.015625)"/>
      <path id="Helvetica-69" d="M 413 3331 
L 984 3331 
L 984 0 
L 413 0 
L 413 3331 
z
M 413 4591 
L 984 4591 
L 984 3953 
L 413 3953 
L 413 4591 
z
" transform="scale(0.015625)"/>
      <path id="Helvetica-72" d="M 428 3347 
L 963 3347 
L 963 2769 
Q 1028 2938 1284 3180 
Q 1541 3422 1875 3422 
Q 1891 3422 1928 3419 
Q 1966 3416 2056 3406 
L 2056 2813 
Q 2006 2822 1964 2825 
Q 1922 2828 1872 2828 
Q 1447 2828 1219 2554 
Q 991 2281 991 1925 
L 991 0 
L 428 0 
L 428 3347 
z
" transform="scale(0.015625)"/>
      <path id="Helvetica-62" d="M 369 4606 
L 916 4606 
L 916 2941 
Q 1100 3181 1356 3307 
Q 1613 3434 1913 3434 
Q 2538 3434 2927 3004 
Q 3316 2575 3316 1738 
Q 3316 944 2931 419 
Q 2547 -106 1866 -106 
Q 1484 -106 1222 78 
Q 1066 188 888 428 
L 888 0 
L 369 0 
L 369 4606 
z
M 1831 391 
Q 2288 391 2514 753 
Q 2741 1116 2741 1709 
Q 2741 2238 2514 2584 
Q 2288 2931 1847 2931 
Q 1463 2931 1173 2647 
Q 884 2363 884 1709 
Q 884 1238 1003 944 
Q 1225 391 1831 391 
z
" transform="scale(0.015625)"/>
      <path id="Helvetica-76" d="M 688 3347 
L 1581 622 
L 2516 3347 
L 3131 3347 
L 1869 0 
L 1269 0 
L 34 3347 
L 688 3347 
z
" transform="scale(0.015625)"/>
      <path id="Helvetica-66" d="M 553 3856 
Q 566 4206 675 4369 
Q 872 4656 1434 4656 
Q 1488 4656 1544 4653 
Q 1600 4650 1672 4644 
L 1672 4131 
Q 1584 4138 1545 4139 
Q 1506 4141 1472 4141 
Q 1216 4141 1166 4008 
Q 1116 3875 1116 3331 
L 1672 3331 
L 1672 2888 
L 1109 2888 
L 1109 0 
L 553 0 
L 553 2888 
L 88 2888 
L 88 3331 
L 553 3331 
L 553 3856 
z
" transform="scale(0.015625)"/>
      <path id="Helvetica-6d" d="M 413 3347 
L 969 3347 
L 969 2872 
Q 1169 3119 1331 3231 
Q 1609 3422 1963 3422 
Q 2363 3422 2606 3225 
Q 2744 3113 2856 2894 
Q 3044 3163 3297 3292 
Q 3550 3422 3866 3422 
Q 4541 3422 4784 2934 
Q 4916 2672 4916 2228 
L 4916 0 
L 4331 0 
L 4331 2325 
Q 4331 2659 4164 2784 
Q 3997 2909 3756 2909 
Q 3425 2909 3186 2687 
Q 2947 2466 2947 1947 
L 2947 0 
L 2375 0 
L 2375 2184 
Q 2375 2525 2294 2681 
Q 2166 2916 1816 2916 
Q 1497 2916 1236 2669 
Q 975 2422 975 1775 
L 975 0 
L 413 0 
L 413 3347 
z
" transform="scale(0.015625)"/>
      <path id="Helvetica-64" d="M 769 1634 
Q 769 1097 997 734 
Q 1225 372 1728 372 
Q 2119 372 2370 708 
Q 2622 1044 2622 1672 
Q 2622 2306 2362 2611 
Q 2103 2916 1722 2916 
Q 1297 2916 1033 2591 
Q 769 2266 769 1634 
z
M 1616 3406 
Q 2000 3406 2259 3244 
Q 2409 3150 2600 2916 
L 2600 4606 
L 3141 4606 
L 3141 0 
L 2634 0 
L 2634 466 
Q 2438 156 2169 18 
Q 1900 -119 1553 -119 
Q 994 -119 584 351 
Q 175 822 175 1603 
Q 175 2334 548 2870 
Q 922 3406 1616 3406 
z
" transform="scale(0.015625)"/>
      <path id="Helvetica-70" d="M 1825 378 
Q 2219 378 2480 708 
Q 2741 1038 2741 1694 
Q 2741 2094 2625 2381 
Q 2406 2934 1825 2934 
Q 1241 2934 1025 2350 
Q 909 2038 909 1556 
Q 909 1169 1025 897 
Q 1244 378 1825 378 
z
M 369 3331 
L 916 3331 
L 916 2888 
Q 1084 3116 1284 3241 
Q 1569 3428 1953 3428 
Q 2522 3428 2919 2992 
Q 3316 2556 3316 1747 
Q 3316 653 2744 184 
Q 2381 -113 1900 -113 
Q 1522 -113 1266 53 
Q 1116 147 931 375 
L 931 -1334 
L 369 -1334 
L 369 3331 
z
" transform="scale(0.015625)"/>
     </defs>
     <use xlink:href="#Helvetica-4c"/>
     <use xlink:href="#Helvetica-61" x="55.615234"/>
     <use xlink:href="#Helvetica-74" x="111.230469"/>
     <use xlink:href="#Helvetica-65" x="139.013672"/>
     <use xlink:href="#Helvetica-6e" x="194.628906"/>
     <use xlink:href="#Helvetica-63" x="250.244141"/>
     <use xlink:href="#Helvetica-79" x="300.244141"/>
     <use xlink:href="#Helvetica-20" x="350.244141"/>
     <use xlink:href="#Helvetica-44" x="378.027344"/>
     <use xlink:href="#Helvetica-69" x="450.244141"/>
     <use xlink:href="#Helvetica-73" x="472.460938"/>
     <use xlink:href="#Helvetica-74" x="522.460938"/>
     <use xlink:href="#Helvetica-72" x="550.244141"/>
     <use xlink:href="#Helvetica-69" x="583.544922"/>
     <use xlink:href="#Helvetica-62" x="605.761719"/>
     <use xlink:href="#Helvetica-75" x="661.376953"/>
     <use xlink:href="#Helvetica-74" x="716.992188"/>
     <use xlink:href="#Helvetica-69" x="744.775391"/>
     <use xlink:href="#Helvetica-6f" x="766.992188"/>
     <use xlink:href="#Helvetica-6e" x="822.607422"/>
     <use xlink:href="#Helvetica-20" x="878.222656"/>
     <use xlink:href="#Helvetica-28" x="906.005859"/>
     <use xlink:href="#Helvetica-69" x="939.306641"/>
     <use xlink:href="#Helvetica-6c" x="961.523438"/>
     <use xlink:href="#Helvetica-6c" x="983.740234"/>
     <use xlink:href="#Helvetica-75" x="1005.957031"/>
     <use xlink:href="#Helvetica-73" x="1061.572266"/>
     <use xlink:href="#Helvetica-74" x="1111.572266"/>
     <use xlink:href="#Helvetica-72" x="1139.355469"/>
     <use xlink:href="#Helvetica-61" x="1172.65625"/>
     <use xlink:href="#Helvetica-74" x="1228.271484"/>
     <use xlink:href="#Helvetica-69" x="1256.054688"/>
     <use xlink:href="#Helvetica-76" x="1278.271484"/>
     <use xlink:href="#Helvetica-65" x="1328.271484"/>
     <use xlink:href="#Helvetica-20" x="1383.886719"/>
     <use xlink:href="#Helvetica-66" x="1411.669922"/>
     <use xlink:href="#Helvetica-72" x="1439.453125"/>
     <use xlink:href="#Helvetica-6f" x="1472.753906"/>
     <use xlink:href="#Helvetica-6d" x="1528.369141"/>
     <use xlink:href="#Helvetica-20" x="1611.669922"/>
     <use xlink:href="#Helvetica-6d" x="1639.453125"/>
     <use xlink:href="#Helvetica-65" x="1722.753906"/>
     <use xlink:href="#Helvetica-61" x="1778.369141"/>
     <use xlink:href="#Helvetica-73" x="1833.984375"/>
     <use xlink:href="#Helvetica-75" x="1883.984375"/>
     <use xlink:href="#Helvetica-72" x="1939.599609"/>
     <use xlink:href="#Helvetica-65" x="1972.900391"/>
     <use xlink:href="#Helvetica-64" x="2028.515625"/>
     <use xlink:href="#Helvetica-20" x="2084.130859"/>
     <use xlink:href="#Helvetica-70" x="2111.914062"/>
     <use xlink:href="#Helvetica-65" x="2167.529297"/>
     <use xlink:href="#Helvetica-72" x="2223.144531"/>
     <use xlink:href="#Helvetica-63" x="2256.445312"/>
     <use xlink:href="#Helvetica-65" x="2306.445312"/>
     <use xlink:href="#Helvetica-6e" x="2362.060547"/>
     <use xlink:href="#Helvetica-74" x="2417.675781"/>
     <use xlink:href="#Helvetica-69" x="2445.458984"/>
     <use xlink:href="#Helvetica-6c" x="2467.675781"/>
     <use xlink:href="#Helvetica-65" x="2489.892578"/>
     <use xlink:href="#Helvetica-73" x="2545.507812"/>
     <use xlink:href="#Helvetica-29" x="2595.507812"/>
    </g>
   </g>
   <g id="legend_1">
    <g id="patch_64">
     <path d="M 526.261094 74.489219 
L 628.707812 74.489219 
L 628.707812 33.177813 
L 526.261094 33.177813 
z
" style="fill: #f7f9fc; opacity: 0.8; stroke: #cbd5e0; stroke-linejoin: miter"/>
    </g>
    <g id="line2d_47">
     <path d="M 529.861094 40.083906 
L 538.861094 40.083906 
L 547.861094 40.083906 
" style="fill: none; stroke-dasharray: 5.55,2.4; stroke-dashoffset: 0; stroke: #c4a35a; stroke-width: 1.5"/>
    </g>
    <g id="text_12">
     <!-- p50 ≈ 125 ns -->
     <g style="fill: #0b1f3a" transform="translate(555.061094 43.233906) scale(0.09 -0.09)">
      <defs>
       <path id="Helvetica-35" d="M 791 1141 
Q 847 659 1238 475 
Q 1438 381 1700 381 
Q 2200 381 2440 700 
Q 2681 1019 2681 1406 
Q 2681 1875 2395 2131 
Q 2109 2388 1709 2388 
Q 1419 2388 1211 2275 
Q 1003 2163 856 1963 
L 369 1991 
L 709 4400 
L 3034 4400 
L 3034 3856 
L 1131 3856 
L 941 2613 
Q 1097 2731 1238 2791 
Q 1488 2894 1816 2894 
Q 2431 2894 2859 2497 
Q 3288 2100 3288 1491 
Q 3288 856 2895 371 
Q 2503 -113 1644 -113 
Q 1097 -113 676 195 
Q 256 503 206 1141 
L 791 1141 
z
" transform="scale(0.015625)"/>
       <path id="Helvetica-2248" d="M 144 2400 
Q 390 2619 568 2697 
Q 747 2775 987 2775 
Q 1290 2775 1804 2542 
Q 2319 2309 2540 2309 
Q 2844 2309 3131 2513 
Q 3303 2631 3403 2763 
L 3403 2163 
Q 3278 2047 3109 1956 
Q 2828 1806 2550 1806 
Q 2472 1806 2345 1825 
Q 2219 1844 2115 1881 
Q 2056 1900 1625 2088 
Q 1412 2181 1303 2219 
Q 1131 2272 978 2272 
Q 706 2272 487 2131 
Q 353 2044 144 1822 
L 144 2400 
z
M 144 1081 
Q 390 1300 568 1378 
Q 747 1456 987 1456 
Q 1290 1456 1804 1223 
Q 2319 991 2540 991 
Q 2822 991 3042 1133 
Q 3262 1275 3403 1444 
L 3403 844 
Q 3194 672 2987 580 
Q 2781 488 2550 488 
Q 2453 488 2332 511 
Q 2212 534 2115 563 
Q 2044 588 1625 769 
Q 1412 863 1303 900 
Q 1131 953 978 953 
Q 703 953 478 806 
Q 340 719 144 503 
L 144 1081 
z
" transform="scale(0.015625)"/>
      </defs>
      <use xlink:href="#Helvetica-70"/>
      <use xlink:href="#Helvetica-35" x="55.615234"/>
      <use xlink:href="#Helvetica-30" x="111.230469"/>
      <use xlink:href="#Helvetica-20" x="166.845703"/>
      <use xlink:href="#Helvetica-2248" x="194.628906"/>
      <use xlink:href="#Helvetica-20" x="249.511719"/>
      <use xlink:href="#Helvetica-31" x="277.294922"/>
      <use xlink:href="#Helvetica-32" x="332.910156"/>
      <use xlink:href="#Helvetica-35" x="388.525391"/>
      <use xlink:href="#Helvetica-20" x="444.140625"/>
      <use xlink:href="#Helvetica-6e" x="471.923828"/>
      <use xlink:href="#Helvetica-73" x="527.539062"/>
     </g>
    </g>
    <g id="line2d_48">
     <path d="M 529.861094 52.915938 
L 538.861094 52.915938 
L 547.861094 52.915938 
" style="fill: none; stroke-dasharray: 5.55,2.4; stroke-dashoffset: 0; stroke: #c53030; stroke-width: 1.5"/>
    </g>
    <g id="text_13">
     <!-- p99 ≈ 1.7 μs -->
     <g style="fill: #0b1f3a" transform="translate(555.061094 56.065938) scale(0.09 -0.09)">
      <defs>
       <path id="Helvetica-39" d="M 850 1081 
Q 875 616 1209 438 
Q 1381 344 1597 344 
Q 2000 344 2284 680 
Q 2569 1016 2688 2044 
Q 2500 1747 2223 1626 
Q 1947 1506 1628 1506 
Q 981 1506 604 1909 
Q 228 2313 228 2947 
Q 228 3556 600 4018 
Q 972 4481 1697 4481 
Q 2675 4481 3047 3600 
Q 3253 3116 3253 2388 
Q 3253 1566 3006 931 
Q 2597 -125 1619 -125 
Q 963 -125 622 219 
Q 281 563 281 1081 
L 850 1081 
z
M 1703 2000 
Q 2038 2000 2314 2220 
Q 2591 2441 2591 2991 
Q 2591 3484 2342 3726 
Q 2094 3969 1709 3969 
Q 1297 3969 1055 3692 
Q 813 3416 813 2953 
Q 813 2516 1025 2258 
Q 1238 2000 1703 2000 
z
" transform="scale(0.015625)"/>
       <path id="Helvetica-2e" d="M 547 681 
L 1200 681 
L 1200 0 
L 547 0 
L 547 681 
z
" transform="scale(0.015625)"/>
       <path id="Helvetica-37" d="M 3347 4400 
L 3347 3909 
Q 3131 3700 2773 3181 
Q 2416 2663 2141 2063 
Q 1869 1478 1728 997 
Q 1638 688 1494 0 
L 872 0 
Q 1084 1281 1809 2550 
Q 2238 3294 2709 3834 
L 234 3834 
L 234 4400 
L 3347 4400 
z
" transform="scale(0.015625)"/>
       <path id="Helvetica-3bc" d="M 575 3328 
L 1153 3328 
L 1153 1369 
Q 1147 934 1325 691 
Q 1497 434 1953 434 
Q 2419 434 2591 697 
Q 2759 941 2759 1369 
L 2759 3328 
L 3334 3328 
L 3334 806 
Q 3316 434 3547 434 
Q 3634 434 3725 453 
L 3725 0 
Q 3641 -56 3372 -63 
Q 3109 -44 2994 63 
Q 2872 166 2803 384 
Q 2503 -50 1966 -63 
Q 1503 -63 1166 359 
L 1153 359 
L 1153 -1253 
L 575 -1253 
L 575 3328 
z
" transform="scale(0.015625)"/>
      </defs>
      <use xlink:href="#Helvetica-70"/>
      <use xlink:href="#Helvetica-39" x="55.615234"/>
      <use xlink:href="#Helvetica-39" x="111.230469"/>
      <use xlink:href="#Helvetica-20" x="166.845703"/>
      <use xlink:href="#Helvetica-2248" x="194.628906"/>
      <use xlink:href="#Helvetica-20" x="249.511719"/>
      <use xlink:href="#Helvetica-31" x="277.294922"/>
      <use xlink:href="#Helvetica-2e" x="332.910156"/>
      <use xlink:href="#Helvetica-37" x="360.693359"/>
      <use xlink:href="#Helvetica-20" x="416.308594"/>
      <use xlink:href="#Helvetica-3bc" x="444.091797"/>
      <use xlink:href="#Helvetica-73" x="505.175781"/>
     </g>
    </g>
    <g id="line2d_49">
     <path d="M 529.861094 65.747969 
L 538.861094 65.747969 
L 547.861094 65.747969 
" style="fill: none; stroke-dasharray: 1.4,2.31; stroke-dashoffset: 0; stroke: #2f855a; stroke-width: 1.4"/>
    </g>
    <g id="text_14">
     <!-- p50 target 500 ns -->
     <g style="fill: #0b1f3a" transform="translate(555.061094 68.897969) scale(0.09 -0.09)">
      <use xlink:href="#Helvetica-70"/>
      <use xlink:href="#Helvetica-35" x="55.615234"/>
      <use xlink:href="#Helvetica-30" x="111.230469"/>
      <use xlink:href="#Helvetica-20" x="166.845703"/>
      <use xlink:href="#Helvetica-74" x="194.628906"/>
      <use xlink:href="#Helvetica-61" x="222.412109"/>
      <use xlink:href="#Helvetica-72" x="278.027344"/>
      <use xlink:href="#Helvetica-67" x="311.328125"/>
      <use xlink:href="#Helvetica-65" x="366.943359"/>
      <use xlink:href="#Helvetica-74" x="422.558594"/>
      <use xlink:href="#Helvetica-20" x="450.341797"/>
      <use xlink:href="#Helvetica-35" x="478.125"/>
      <use xlink:href="#Helvetica-30" x="533.740234"/>
      <use xlink:href="#Helvetica-30" x="589.355469"/>
      <use xlink:href="#Helvetica-20" x="644.970703"/>
      <use xlink:href="#Helvetica-6e" x="672.753906"/>
      <use xlink:href="#Helvetica-73" x="728.369141"/>
     </g>
    </g>
   </g>
  </g>
 </g>
 <defs>
  <clipPath id="p014543b727">
   <rect x="49.701563" y="28.677813" width="583.50625" height="300.28"/>
  </clipPath>
 </defs>
</svg>
